<?xml version="1.0" encoding="UTF-8"?>
<svg width="2601px" height="1759px" viewBox="0 0 2601 1759" version="1.1" xmlns="http://www.w3.org/2000/svg" xmlns:xlink="http://www.w3.org/1999/xlink">
    <!-- Generator: Sketch 55.2 (78181) - https://sketchapp.com -->
    <title>krugi</title>
    <desc>Created with Sketch.</desc>
    <g id="лендинг" stroke="none" stroke-width="1" fill="none" fill-rule="evenodd">
        <g id="LP_VZ_1920_main" transform="translate(-401.000000, -1185.000000)">
            <g id="krugi" transform="translate(416.000000, 1179.000000)">
                <path d="M3338,544.698264 C3338,845.524511 3093.99289,1089.37998 2793,1089.37998 C2492.00711,1089.37998 2248,845.524511 2248,544.698264 C2248,243.872018 2492.00711,0 2793,0 C3093.99289,0 3338,243.872018 3338,544.698264" id="Fill-4-Copy-9" stroke="#90AFC4" stroke-width="63" opacity="0.15969122" transform="translate(2793.000000, 544.689989) scale(-1, 1) translate(-2793.000000, -544.689989) "></path>
                <path d="M2352,1345.23899 C2352,1513.59129 2215.44556,1650.06086 2047,1650.06086 C1878.55444,1650.06086 1742,1513.59129 1742,1345.23899 C1742,1176.88669 1878.55444,1040.40785 2047,1040.40785 C2215.44556,1040.40785 2352,1176.88669 2352,1345.23899" id="Fill-4-Copy-13" stroke="#90AFC4" stroke-width="29" opacity="0.100000001" transform="translate(2047.000000, 1345.234357) scale(-1, 1) translate(-2047.000000, -1345.234357) "></path>
                <path d="M434,777.560747 C434,897.339271 336.844875,994.434016 217,994.434016 C97.1551247,994.434016 0,897.339271 0,777.560747 C0,657.782223 97.1551247,560.680887 217,560.680887 C336.844875,560.680887 434,657.782223 434,777.560747" id="Fill-4-Copy-11" stroke="#90AFC4" stroke-width="29" opacity="0.100000001" transform="translate(217.000000, 777.557452) scale(-1, 1) translate(-217.000000, -777.557452) "></path>
                <path d="M1845,235.866713 C1845,270.641123 1816.79367,298.82992 1782,298.82992 C1747.20633,298.82992 1719,270.641123 1719,235.866713 C1719,201.092303 1747.20633,172.901593 1782,172.901593 C1816.79367,172.901593 1845,201.092303 1845,235.866713" id="Fill-4-Copy-10" stroke="#F23663" stroke-width="29" opacity="0.0472702753" transform="translate(1782.000000, 235.865757) scale(-1, 1) translate(-1782.000000, -235.865757) "></path>
                <path d="M508,1133.35591 C508,1168.13032 479.793673,1196.31911 445,1196.31911 C410.206327,1196.31911 382,1168.13032 382,1133.35591 C382,1098.5815 410.206327,1070.39078 445,1070.39078 C479.793673,1070.39078 508,1098.5815 508,1133.35591" id="Fill-4-Copy-12" stroke="#F23663" stroke-width="29" opacity="0.0472702753" transform="translate(445.000000, 1133.354949) scale(-1, 1) translate(-445.000000, -1133.354949) "></path>
                <path d="M1805,1727.01752 C1805,1743.57676 1791.56842,1757 1775,1757 C1758.43158,1757 1745,1743.57676 1745,1727.01752 C1745,1710.45828 1758.43158,1697.03413 1775,1697.03413 C1791.56842,1697.03413 1805,1710.45828 1805,1727.01752" id="Fill-4-Copy-14" stroke="#F23663" stroke-width="15" opacity="0.102283296" transform="translate(1775.000000, 1727.017065) scale(-1, 1) translate(-1775.000000, -1727.017065) "></path>
            </g>
        </g>
    </g>
</svg>