<?xml version="1.0" encoding="UTF-8"?>
<svg width="242px" height="68px" viewBox="0 0 242 68" version="1.1" xmlns="http://www.w3.org/2000/svg" xmlns:xlink="http://www.w3.org/1999/xlink">
    <!-- Generator: sketchtool 55.2 (78181) - https://sketchapp.com -->
    <title>2724E0E8-9434-470A-AC09-67E1DEB3383A</title>
    <desc>Created with sketchtool.</desc>
    <g id="лендинг" stroke="none" stroke-width="1" fill="none" fill-rule="evenodd">
        <g id="LP_VZ_1920_main" transform="translate(-946.000000, -40.000000)">
            <g id="1-block" transform="translate(-472.000000, -2221.000000)">
                <g id="header" transform="translate(22.000000, 2221.000000)">
                    <g id="logo" transform="translate(1396.000000, 40.000000)">
                        <g id="Group-12">
                            <g id="Group">
                                <path d="M34,0 C15.2223774,0 0,15.2223774 0,34 C0,41.4755094 2.41913208,48.3839245 6.50811321,53.9958491 C6.49913208,54.0362642 6.4869434,54.0766792 6.47924528,54.1164528 L4.50596226,64.5615094 C4.1614717,66.3833962 5.36045283,67.5426038 7.17015094,67.1371698 L17.5420755,64.8136226 C17.9353208,64.7257358 18.324717,64.567283 18.6993585,64.3600755 C23.2996226,66.6829811 28.494566,68 34,68 C52.7776226,68 68,52.7782642 68,34 C68,15.2223774 52.7776226,0 34,0" id="Fill-1" fill="#FFFFFE"></path>
                                <path d="M55.0743802,34.0003202 C55.0743802,45.6394669 45.6389699,55.0743802 34,55.0743802 C22.3610301,55.0743802 12.9256198,45.6394669 12.9256198,34.0003202 C12.9256198,22.3611735 22.3610301,12.9256198 34,12.9256198 C45.6389699,12.9256198 55.0743802,22.3611735 55.0743802,34.0003202" id="Fill-4" fill="#24ADC1"></path>
                                <path d="M48.3305785,33.7193302 C48.3305785,41.4788403 42.0403241,47.768595 34.2809917,47.768595 C26.5216594,47.768595 20.231405,41.4788403 20.231405,33.7193302 C20.231405,25.95982 26.5216594,19.6694215 34.2809917,19.6694215 C42.0403241,19.6694215 48.3305785,25.95982 48.3305785,33.7193302" id="Fill-5" fill="#171A1D"></path>
                                <path d="M54.5123967,21.9176756 C54.5123967,26.5732989 50.7379477,30.3471074 46.0823244,30.3471074 C41.4267011,30.3471074 37.6528926,26.5732989 37.6528926,21.9176756 C37.6528926,17.2620523 41.4267011,13.4876033 46.0823244,13.4876033 C50.7379477,13.4876033 54.5123967,17.2620523 54.5123967,21.9176756" id="Fill-6" fill="#FFFFFE"></path>
                            </g>
                            <text id="ВЗАХЛЁБ" font-family="SFProDisplay-Regular, SF Pro Display" font-size="25" font-weight="normal" letter-spacing="7.46319592" fill="#FFFFFF">
                                <tspan x="92" y="42">ВЗ</tspan>
                                <tspan x="136.760376" y="42" letter-spacing="7.21819599">АХ</tspan>
                                <tspan x="182.471182" y="42">ЛЁБ</tspan>
                            </text>
                        </g>
                    </g>
                </g>
            </g>
        </g>
    </g>
</svg>