<?xml version="1.0" encoding="UTF-8"?>
<svg width="135px" height="251px" viewBox="0 0 135 251" version="1.1" xmlns="http://www.w3.org/2000/svg" xmlns:xlink="http://www.w3.org/1999/xlink">
    <!-- Generator: Sketch 55.2 (78181) - https://sketchapp.com -->
    <title>sprite</title>
    <desc>Created with Sketch.</desc>
    <defs>
        <linearGradient x1="18.399113%" y1="100%" x2="90.5816128%" y2="0%" id="linearGradient-1">
            <stop stop-color="#FC9D22" offset="0%"></stop>
            <stop stop-color="#DF3680" offset="30%"></stop>
            <stop stop-color="#C3389F" offset="60.5891047%"></stop>
            <stop stop-color="#6C45CE" offset="100%"></stop>
        </linearGradient>
        <linearGradient x1="18.399113%" y1="100%" x2="90.5816128%" y2="0%" id="linearGradient-2">
            <stop stop-color="#DB7E07" offset="0%"></stop>
            <stop stop-color="#DF3680" offset="30%"></stop>
            <stop stop-color="#9F187C" offset="60.5891047%"></stop>
            <stop stop-color="#4317AF" offset="100%"></stop>
        </linearGradient>
    </defs>
    <g id="sprite" stroke="none" stroke-width="1" fill="none" fill-rule="evenodd">
        <rect id="Rectangle" x="-1" y="0" width="148" height="251"></rect>
        <g id="star" transform="translate(0.000000, 206.000000)" fill="#FFFFFF">
            <path d="M10,14.2557199 L6.31759395,16.6579581 C5.85503285,16.9597124 5.23543277,16.8293528 4.93367844,16.3667917 C4.77804259,16.1282165 4.73153689,15.8345911 4.8058316,15.5595985 L5.95256989,11.3150898 L2.52997949,8.55524593 C2.10005483,8.2085714 2.03256727,7.57901337 2.3792418,7.14908871 C2.55804615,6.92734644 2.82292951,6.79238162 3.10742133,6.7780627 L7.49855062,6.55705031 L9.06567948,2.44913476 C9.26253253,1.93312379 9.840423,1.67439517 10.356434,1.87124822 C10.622577,1.97277912 10.8327896,2.18299175 10.9343205,2.44913476 L12.5014494,6.55705031 L16.8925787,6.7780627 C17.4441652,6.80582492 17.8688087,7.27547987 17.8410465,7.82706641 C17.8267276,8.11155823 17.6917628,8.37644159 17.4700205,8.55524593 L14.0474301,11.3150898 L15.1941684,15.5595985 C15.3382146,16.0927674 15.0227682,16.6417588 14.4895993,16.785805 C14.2146067,16.8600997 13.9209812,16.813594 13.6824061,16.6579581 L10,14.2557199 Z" id="Star-"></path>
        </g>
        <g id="star_" transform="translate(0.000000, 186.000000)" fill="#ED3963">
            <path d="M10,14.2365073 L6.31756339,16.6355279 C5.85481621,16.9369968 5.23529668,16.8062549 4.9338278,16.3435077 C4.77839191,16.1049176 4.73204366,15.8113774 4.80640656,15.5365034 L5.95256989,11.2998403 L2.53329243,8.54638377 C2.10313944,8.19999259 2.03523708,7.57047916 2.38162826,7.14032617 C2.5604453,6.91826889 2.82554307,6.7830961 3.11028879,6.76878372 L7.49855062,6.54821331 L9.06583974,2.44541453 C9.26292464,1.92949206 9.8409313,1.67102314 10.3568538,1.86810804 C10.6226585,1.96964675 10.8326215,2.17960976 10.9341603,2.44541453 L12.5014494,6.54821331 L16.8897112,6.76878372 C17.4412996,6.79650861 17.8659749,7.26613483 17.83825,7.81772324 C17.8239376,8.10246896 17.6887649,8.36756673 17.4667076,8.54638377 L14.0474301,11.2998403 L15.1935934,15.5365034 C15.3378208,16.0696234 15.022561,16.6187219 14.489441,16.7629492 C14.2145669,16.8373121 13.9210268,16.7909638 13.6824366,16.6355279 L10,14.2365073 Z" id="Star"></path>
        </g>
        <g id="Group" transform="translate(2.000000, 91.000000)">
            <g id="button_to_read" transform="translate(88.000000, 0.000000)">
                <g id="to_read">
                    <circle id="Oval" stroke="#FFFFFF" stroke-width="4" fill="#15A7C9" cx="20" cy="20" r="20"></circle>
                    <g id="eye-(1)" transform="translate(11.000000, 13.000000)">
                        <path d="M9.5,13 C14.7467051,13 19,7.15020916 19,6.61604348 C19,6.08187781 14.7467237,0 9.50001855,0 C4.25331343,0 0,6.08187781 0,6.61604348 C0,7.15020916 4.25329488,13 9.5,13 Z" id="Oval" stroke="#FFFFFF" stroke-width="2"></path>
                        <path d="M9.5,2 C7.01867657,2 5,4.01867657 5,6.5 C5,8.98132343 7.01867657,11 9.5,11 C11.9813234,11 14,8.98132343 14,6.5 C14,4.01867657 11.981408,2 9.5,2 Z" id="Shape" fill="#FFFFFF" fill-rule="nonzero"></path>
                        <path d="M9.5,4 C8.12148698,4 7,5.12148698 7,6.5 C7,7.87851302 8.12148698,9 9.5,9 C10.878513,9 12,7.87851302 12,6.5 C12,5.12148698 10.87856,4 9.5,4 Z" id="Path" fill="#15A7C9" fill-rule="nonzero"></path>
                    </g>
                </g>
            </g>
            <g id="button_to_read2" transform="translate(88.000000, 44.000000)">
                <g id="to_read2">
                    <circle id="Oval" stroke="#FFFFFF" stroke-width="4" fill="#0F8EA3" cx="20" cy="20" r="20"></circle>
                    <g id="eye-(1)" transform="translate(11.000000, 13.000000)">
                        <path d="M9.5,13 C14.7467051,13 19,7.15020916 19,6.61604348 C19,6.08187781 14.7467237,0 9.50001855,0 C4.25331343,0 0,6.08187781 0,6.61604348 C0,7.15020916 4.25329488,13 9.5,13 Z" id="Oval" stroke="#FFFFFF" stroke-width="2"></path>
                        <path d="M9.5,2 C7.01867657,2 5,4.01867657 5,6.5 C5,8.98132343 7.01867657,11 9.5,11 C11.9813234,11 14,8.98132343 14,6.5 C14,4.01867657 11.981408,2 9.5,2 Z" id="Shape" fill="#FFFFFF" fill-rule="nonzero"></path>
                        <path d="M9.5,4 C8.12148698,4 7,5.12148698 7,6.5 C7,7.87851302 8.12148698,9 9.5,9 C10.878513,9 12,7.87851302 12,6.5 C12,5.12148698 10.87856,4 9.5,4 Z" id="Path" fill="#0F8EA3" fill-rule="nonzero"></path>
                    </g>
                </g>
            </g>
            <g id="button_play" transform="translate(44.000000, 0.000000)" stroke="#FFFFFF">
                <g id="play">
                    <circle id="Oval" stroke-width="4" fill="#F23663" cx="20" cy="20" r="20"></circle>
                    <path d="M15,12.8258089 L15,27.0070955 C15,27.5593803 15.4477153,28.0070955 16,28.0070955 C16.2153966,28.0070955 16.4250361,27.937547 16.5977205,27.8088001 L26.8397609,20.1727227 C27.28253,19.8426107 27.3738568,19.2160668 27.0437449,18.7732976 C26.9715227,18.6764283 26.8823427,18.5934498 26.7805279,18.5283847 L16.5384876,11.9831755 C16.073114,11.685777 15.4547651,11.8219477 15.1573666,12.2873213 C15.0546046,12.4481247 15,12.6349746 15,12.8258089 Z" id="Path-10" stroke-width="2"></path>
                </g>
            </g>
            <g id="button_play2" transform="translate(44.000000, 44.000000)" stroke="#FFFFFF">
                <g id="play2">
                    <circle id="Oval" stroke-width="4" fill="#D9234F" cx="20" cy="20" r="20"></circle>
                    <path d="M15,12.8258089 L15,27.0070955 C15,27.5593803 15.4477153,28.0070955 16,28.0070955 C16.2153966,28.0070955 16.4250361,27.937547 16.5977205,27.8088001 L26.8397609,20.1727227 C27.28253,19.8426107 27.3738568,19.2160668 27.0437449,18.7732976 C26.9715227,18.6764283 26.8823427,18.5934498 26.7805279,18.5283847 L16.5384876,11.9831755 C16.073114,11.685777 15.4547651,11.8219477 15.1573666,12.2873213 C15.0546046,12.4481247 15,12.6349746 15,12.8258089 Z" id="Path-10" stroke-width="2"></path>
                </g>
            </g>
            <g id="button_play">
                <g id="pause">
                    <circle id="Oval" stroke="#FFFFFF" stroke-width="4" fill="#15A7C9" cx="20" cy="20" r="20"></circle>
                    <rect id="Rectangle" fill="#FFFFFF" x="14" y="13" width="3" height="14" rx="1.5"></rect>
                    <rect id="Rectangle-Copy" fill="#FFFFFF" x="23" y="13" width="3" height="14" rx="1.5"></rect>
                </g>
            </g>
            <g id="button_play2" transform="translate(0.000000, 44.000000)">
                <g id="pause2">
                    <circle id="Oval" stroke="#FFFFFF" stroke-width="4" fill="#0F8EA3" cx="20" cy="20" r="20"></circle>
                    <rect id="Rectangle" fill="#FFFFFF" x="14" y="13" width="3" height="14" rx="1.5"></rect>
                    <rect id="Rectangle-Copy" fill="#FFFFFF" x="23" y="13" width="3" height="14" rx="1.5"></rect>
                </g>
            </g>
        </g>
        <g id="social">
            <g id="Icon_vk">
                <circle id="Oval-Copy-3" fill="#FFFFFF" cx="20" cy="20" r="20"></circle>
                <path d="M28.5160623,22.9601201 C29.3453435,23.7591031 30.2206229,24.5108297 30.9643968,25.3903838 C31.2929551,25.7812427 31.6040177,26.1845845 31.841976,26.6381818 C32.179159,27.2829936 31.8737641,27.9925703 31.2878624,28.0310726 L27.6457934,28.0294515 C26.7064452,28.106375 25.9570858,27.7331866 25.3269931,27.0993986 C24.8227382,26.5925465 24.3557747,26.0531093 23.8709048,25.5291541 C23.672127,25.3150004 23.4640674,25.1134916 23.215513,24.9542138 C22.7183222,24.6357392 22.2867608,24.7332512 22.00264,25.2449668 C21.7132623,25.7654365 21.6476327,26.3417548 21.6192124,26.9218017 C21.5801961,27.7681223 21.3209636,27.990625 20.4594837,28.0293704 C18.6184072,28.1150481 16.871134,27.8401824 15.2479738,26.9236661 C13.816938,26.1156856 12.7072323,24.9750455 11.7413529,23.6837197 C9.86076724,21.1692373 8.42061398,18.4062328 7.12625847,15.5658185 C6.83490938,14.9258702 7.04797945,14.5823488 7.76349733,14.5701902 C8.95164636,14.547413 10.1396311,14.5490342 11.3291765,14.568569 C11.8120751,14.57554 12.1317624,14.8488656 12.3182192,15.2990585 C12.9610436,16.8588466 13.7476122,18.3428459 14.7349299,19.7183904 C14.9978587,20.0846079 15.2659623,20.4508253 15.6477471,20.708588 C16.0701088,20.9939911 16.3916853,20.8993971 16.5903809,20.4351002 C16.7164652,20.1406996 16.771663,19.823603 16.8000833,19.5082896 C16.8942152,18.4234981 16.9066183,17.3405709 16.7415177,16.259589 C16.6401575,15.5849481 16.2550871,15.1482107 15.5729179,15.0205452 C15.2248104,14.9554561 15.2766405,14.8276286 15.4451909,14.6315506 C15.7379363,14.2933791 16.0132682,14.0828729 16.5621249,14.0828729 L20.6782214,14.0828729 C21.3262206,14.2090793 21.4701291,14.4963469 21.5588398,15.1397807 L21.5623718,19.6516802 C21.5553078,19.9007696 21.6884561,20.6399323 22.1430987,20.8048031 C22.506977,20.9221743 22.7468246,20.6349068 22.9651516,20.4072164 C23.9506623,19.3750312 24.6540235,18.155198 25.2823913,16.8920801 C25.5612552,16.3366746 25.8010206,15.75987 26.0333935,15.1835517 C26.205558,14.7558927 26.4757151,14.5454677 26.9638707,14.5547893 L30.9253805,14.5582747 C31.0428401,14.5582747 31.161696,14.5599769 31.2754594,14.5791875 C31.9430077,14.6914521 32.1259326,14.9748288 31.9197622,15.6181006 C31.5949002,16.6273466 30.9628361,17.4683984 30.3448179,18.313341 C29.6841693,19.2154291 28.9776046,20.0866343 28.3224593,20.9940722 C27.7205405,21.8227223 27.7683457,22.2404112 28.5160623,22.9601201 L28.5160623,22.9601201 Z" id="XMLID_807_" fill="#4161A1" fill-rule="nonzero"></path>
            </g>
            <g id="Icon_inst" transform="translate(40.000000, 0.000000)">
                <circle id="Oval-Copy-5" fill="#FFFFFF" cx="20" cy="20" r="20"></circle>
                <path d="M24.8502706,8 L15.1497294,8 C11.207352,8 8,11.207352 8,15.1497294 L8,24.8502706 C8,28.792648 11.207352,32 15.1497294,32 L24.8502706,32 C28.792648,32 32,28.792648 32,24.8502706 L32,15.1497294 C32,11.207352 28.7926044,8 24.8502706,8 Z" id="Shape" fill="url(#linearGradient-1)" fill-rule="nonzero"></path>
                <path d="M20,14 C16.6915947,14 14,16.6916041 14,19.9999789 C14,23.3083538 16.6915947,26 20,26 C23.3084053,26 26,23.3083959 26,19.9999789 C26,16.691562 23.3084053,14 20,14 Z M20,24 C17.7908432,24 16,22.2091568 16,20 C16,17.7908432 17.7908892,16 20,16 C22.2091568,16 24,17.7908432 24,20 C24,22.2091108 22.2091108,24 20,24 Z" id="Shape" fill="#FFFFFF" fill-rule="nonzero"></path>
                <ellipse id="Oval" fill="#FFFFFF" fill-rule="nonzero" cx="27" cy="12.9972376" rx="1" ry="1"></ellipse>
            </g>
            <g id="Icon_youT" transform="translate(80.000000, 0.000000)">
                <circle id="Oval-Copy-6" fill="#FFFFFF" cx="20" cy="20" r="20"></circle>
                <g id="youtube" transform="translate(8.000000, 10.969613)" fill-rule="nonzero">
                    <path d="M23.7517031,3.87562257 C23.7517031,3.87562257 23.5034062,2.12137444 22.8,1.34626841 C21.8896406,0.326365298 20.8551563,0.326365298 20.4,0.285558082 C17.0482969,0.0408072158 12,0 12,0 L12,0 C12,0 6.95170312,0.0408072158 3.6,0.285558082 C3.14484375,0.326365298 2.11035938,0.367172514 1.2,1.34626841 C0.45515625,2.12142065 0.248296875,3.87562257 0.248296875,3.87562257 C0.248296875,3.87562257 0,5.95623601 0,8.03684944 L0,9.95428023 C0,12.0348937 0.248296875,14.0746999 0.248296875,14.0746999 C0.248296875,14.0746999 0.49659375,15.828948 1.2,16.604054 C2.11035937,17.6239572 3.31035938,17.5831499 3.84829688,17.7055716 C5.75170313,17.909469 12,17.9502762 12,17.9502762 C12,17.9502762 17.0482969,17.9502762 20.4,17.6647182 C20.8551563,17.6239109 21.8896406,17.5831037 22.8,16.6040078 C23.5034531,15.8289018 23.7517031,14.0746537 23.7517031,14.0746537 C23.7517031,14.0746537 24,11.9940402 24,9.95423402 L24,8.03680323 C24,5.95623601 23.7517031,3.87562257 23.7517031,3.87562257" id="Path" fill="#D8362A"></path>
                    <polygon id="Path" fill="#FFFFFF" points="9 4 9 12.9751381 17 8.59099734"></polygon>
                </g>
            </g>
        </g>
        <g id="social" transform="translate(0.000000, 40.000000)">
            <g id="Icon_vk2">
                <circle id="Oval-Copy-3" fill="#FFFFFF" cx="20" cy="20" r="20"></circle>
                <path d="M28.5160623,22.9601201 C29.3453435,23.7591031 30.2206229,24.5108297 30.9643968,25.3903838 C31.2929551,25.7812427 31.6040177,26.1845845 31.841976,26.6381818 C32.179159,27.2829936 31.8737641,27.9925703 31.2878624,28.0310726 L27.6457934,28.0294515 C26.7064452,28.106375 25.9570858,27.7331866 25.3269931,27.0993986 C24.8227382,26.5925465 24.3557747,26.0531093 23.8709048,25.5291541 C23.672127,25.3150004 23.4640674,25.1134916 23.215513,24.9542138 C22.7183222,24.6357392 22.2867608,24.7332512 22.00264,25.2449668 C21.7132623,25.7654365 21.6476327,26.3417548 21.6192124,26.9218017 C21.5801961,27.7681223 21.3209636,27.990625 20.4594837,28.0293704 C18.6184072,28.1150481 16.871134,27.8401824 15.2479738,26.9236661 C13.816938,26.1156856 12.7072323,24.9750455 11.7413529,23.6837197 C9.86076724,21.1692373 8.42061398,18.4062328 7.12625847,15.5658185 C6.83490938,14.9258702 7.04797945,14.5823488 7.76349733,14.5701902 C8.95164636,14.547413 10.1396311,14.5490342 11.3291765,14.568569 C11.8120751,14.57554 12.1317624,14.8488656 12.3182192,15.2990585 C12.9610436,16.8588466 13.7476122,18.3428459 14.7349299,19.7183904 C14.9978587,20.0846079 15.2659623,20.4508253 15.6477471,20.708588 C16.0701088,20.9939911 16.3916853,20.8993971 16.5903809,20.4351002 C16.7164652,20.1406996 16.771663,19.823603 16.8000833,19.5082896 C16.8942152,18.4234981 16.9066183,17.3405709 16.7415177,16.259589 C16.6401575,15.5849481 16.2550871,15.1482107 15.5729179,15.0205452 C15.2248104,14.9554561 15.2766405,14.8276286 15.4451909,14.6315506 C15.7379363,14.2933791 16.0132682,14.0828729 16.5621249,14.0828729 L20.6782214,14.0828729 C21.3262206,14.2090793 21.4701291,14.4963469 21.5588398,15.1397807 L21.5623718,19.6516802 C21.5553078,19.9007696 21.6884561,20.6399323 22.1430987,20.8048031 C22.506977,20.9221743 22.7468246,20.6349068 22.9651516,20.4072164 C23.9506623,19.3750312 24.6540235,18.155198 25.2823913,16.8920801 C25.5612552,16.3366746 25.8010206,15.75987 26.0333935,15.1835517 C26.205558,14.7558927 26.4757151,14.5454677 26.9638707,14.5547893 L30.9253805,14.5582747 C31.0428401,14.5582747 31.161696,14.5599769 31.2754594,14.5791875 C31.9430077,14.6914521 32.1259326,14.9748288 31.9197622,15.6181006 C31.5949002,16.6273466 30.9628361,17.4683984 30.3448179,18.313341 C29.6841693,19.2154291 28.9776046,20.0866343 28.3224593,20.9940722 C27.7205405,21.8227223 27.7683457,22.2404112 28.5160623,22.9601201 L28.5160623,22.9601201 Z" id="XMLID_807_" fill="#325496" fill-rule="nonzero"></path>
            </g>
            <g id="Icon_inst2" transform="translate(40.000000, 0.000000)">
                <circle id="Oval-Copy-5" fill="#FFFFFF" cx="20" cy="20" r="20"></circle>
                <path d="M24.8502706,8 L15.1497294,8 C11.207352,8 8,11.207352 8,15.1497294 L8,24.8502706 C8,28.792648 11.207352,32 15.1497294,32 L24.8502706,32 C28.792648,32 32,28.792648 32,24.8502706 L32,15.1497294 C32,11.207352 28.7926044,8 24.8502706,8 Z" id="Shape" fill="url(#linearGradient-2)" fill-rule="nonzero"></path>
                <path d="M20,14 C16.6915947,14 14,16.6916041 14,19.9999789 C14,23.3083538 16.6915947,26 20,26 C23.3084053,26 26,23.3083959 26,19.9999789 C26,16.691562 23.3084053,14 20,14 Z M20,24 C17.7908432,24 16,22.2091568 16,20 C16,17.7908432 17.7908892,16 20,16 C22.2091568,16 24,17.7908432 24,20 C24,22.2091108 22.2091108,24 20,24 Z" id="Shape" fill="#FFFFFF" fill-rule="nonzero"></path>
                <ellipse id="Oval" fill="#FFFFFF" fill-rule="nonzero" cx="27" cy="12.9972376" rx="1" ry="1"></ellipse>
            </g>
            <g id="Icon_youT2" transform="translate(80.000000, 0.000000)">
                <circle id="Oval-Copy-6" fill="#FFFFFF" cx="20" cy="20" r="20"></circle>
                <g id="youtube" transform="translate(8.000000, 10.969613)" fill-rule="nonzero">
                    <path d="M23.7517031,3.87562257 C23.7517031,3.87562257 23.5034062,2.12137444 22.8,1.34626841 C21.8896406,0.326365298 20.8551563,0.326365298 20.4,0.285558082 C17.0482969,0.0408072158 12,0 12,0 L12,0 C12,0 6.95170312,0.0408072158 3.6,0.285558082 C3.14484375,0.326365298 2.11035938,0.367172514 1.2,1.34626841 C0.45515625,2.12142065 0.248296875,3.87562257 0.248296875,3.87562257 C0.248296875,3.87562257 0,5.95623601 0,8.03684944 L0,9.95428023 C0,12.0348937 0.248296875,14.0746999 0.248296875,14.0746999 C0.248296875,14.0746999 0.49659375,15.828948 1.2,16.604054 C2.11035937,17.6239572 3.31035938,17.5831499 3.84829688,17.7055716 C5.75170313,17.909469 12,17.9502762 12,17.9502762 C12,17.9502762 17.0482969,17.9502762 20.4,17.6647182 C20.8551563,17.6239109 21.8896406,17.5831037 22.8,16.6040078 C23.5034531,15.8289018 23.7517031,14.0746537 23.7517031,14.0746537 C23.7517031,14.0746537 24,11.9940402 24,9.95423402 L24,8.03680323 C24,5.95623601 23.7517031,3.87562257 23.7517031,3.87562257" id="Path" fill="#BC1F14"></path>
                    <polygon id="Path" fill="#FFFFFF" points="9 4 9 12.9751381 17 8.59099734"></polygon>
                </g>
            </g>
        </g>
    </g>
</svg>