<?xml version="1.0" encoding="UTF-8"?>
<svg width="209px" height="62px" viewBox="0 0 209 62" version="1.1" xmlns="http://www.w3.org/2000/svg" xmlns:xlink="http://www.w3.org/1999/xlink">
    <!-- Generator: sketchtool 55.2 (78181) - https://sketchapp.com -->
    <title>10FED2F0-F5C9-4C7E-A57D-00CFDAE196B8</title>
    <desc>Created with sketchtool.</desc>
    <defs>
        <linearGradient x1="61.0075915%" y1="4.9481245%" x2="26.5587698%" y2="71.9074222%" id="linearGradient-1">
            <stop stop-color="#00A0FF" offset="0%"></stop>
            <stop stop-color="#00A1FF" offset="1%"></stop>
            <stop stop-color="#00BEFF" offset="26%"></stop>
            <stop stop-color="#00D2FF" offset="51%"></stop>
            <stop stop-color="#00DFFF" offset="76%"></stop>
            <stop stop-color="#00E3FF" offset="100%"></stop>
        </linearGradient>
        <linearGradient x1="107.684729%" y1="50%" x2="-130.640394%" y2="50%" id="linearGradient-2">
            <stop stop-color="#FFE000" offset="0%"></stop>
            <stop stop-color="#FFBD00" offset="41%"></stop>
            <stop stop-color="#FFA500" offset="78%"></stop>
            <stop stop-color="#FF9C00" offset="100%"></stop>
        </linearGradient>
        <linearGradient x1="86.219293%" y1="30.8655901%" x2="-50.1497903%" y2="136.193383%" id="linearGradient-3">
            <stop stop-color="#FF3A44" offset="0%"></stop>
            <stop stop-color="#C31162" offset="100%"></stop>
        </linearGradient>
        <linearGradient x1="-18.7537448%" y1="-11.9795648%" x2="42.1210306%" y2="35.0591329%" id="linearGradient-4">
            <stop stop-color="#32A071" offset="0%"></stop>
            <stop stop-color="#2DA771" offset="7%"></stop>
            <stop stop-color="#15CF74" offset="48%"></stop>
            <stop stop-color="#06E775" offset="80%"></stop>
            <stop stop-color="#00F076" offset="100%"></stop>
        </linearGradient>
    </defs>
    <g id="лендинг" stroke="none" stroke-width="1" fill="none" fill-rule="evenodd">
        <g id="LP_VZ_1920_main" transform="translate(-1175.000000, -557.000000)" fill-rule="nonzero">
            <g id="1-block" transform="translate(-472.000000, -2221.000000)">
                <g id="text" transform="translate(1418.000000, 2459.000000)">
                    <g id="donload" transform="translate(0.000000, 319.000000)">
                        <g id="Google-Play-Badge-US" transform="translate(229.000000, 0.000000)">
                            <rect id="Background-Black" fill="#000000" x="0" y="0" width="209" height="62" rx="7.75"></rect>
                            <path d="M105.490815,33.7125 C101.861065,33.7296018 98.9308063,36.6864558 98.9421475,40.3205695 C98.9535547,43.9546831 101.902265,46.8930928 105.53205,46.8874272 C109.161835,46.8817452 112.101367,43.9341315 112.101407,40.3 C112.12691,38.5397794 111.43761,36.8446001 110.191388,35.6027307 C108.945165,34.3608613 107.248793,33.6787033 105.490815,33.7125 L105.490815,33.7125 Z M105.490815,44.299 C103.854774,44.4135532 102.315057,43.5151859 101.608092,42.0335775 C100.901128,40.551969 101.170608,38.7882584 102.287643,37.5860089 C103.404679,36.3837595 105.14223,35.9873302 106.669246,36.5863288 C108.196262,37.1853273 109.202374,38.6580065 109.20637,40.3 C109.256751,41.3271414 108.890599,42.3311088 108.191002,43.0840744 C107.491406,43.8370401 106.517689,44.2751554 105.490815,44.299 L105.490815,44.299 Z M91.0775556,33.7125 C87.445754,33.7210557 84.5077219,36.6741576 84.5134072,40.310309 C84.5191091,43.9464604 87.4663749,46.8903249 91.0981854,46.8874818 C94.7299959,46.8846346 97.6726566,43.9361559 97.6726667,40.3 C97.6981693,38.5397794 97.0088697,36.8446001 95.7626468,35.6027307 C94.516424,34.3608613 92.8200526,33.6787033 91.0620741,33.7125 L91.0775556,33.7125 Z M91.0775556,44.299 C89.440661,44.4200132 87.8964541,43.5261255 87.1845075,42.0454497 C86.4725609,40.564774 86.7378219,38.7987654 87.8532481,37.5932248 C88.9686743,36.3876842 90.7071728,35.9880512 92.2361182,36.5857236 C93.7650635,37.183396 94.7731732,38.6566917 94.7776296,40.3 C94.8280107,41.3271414 94.461858,42.3311088 93.7622617,43.0840744 C93.0626654,43.8370401 92.0889485,44.2751554 91.0620741,44.299 L91.0775556,44.299 Z M73.9085926,35.743 L73.9085926,38.533 L80.5965926,38.533 C80.4917263,39.8470959 79.9461298,41.0870814 79.0484444,42.0515 C77.6953984,43.4313482 75.8229447,44.1744699 73.8931111,44.0975 C69.7890218,44.0975 66.462,40.7664985 66.462,36.6575 C66.462,32.5485015 69.7890218,29.2175 73.8931111,29.2175 C75.7784393,29.1867152 77.5990092,29.9057808 78.9555556,31.217 L80.9217037,29.2485 C79.0715422,27.3727801 76.5415567,26.3271439 73.9085926,26.35 C70.1604652,26.2039575 66.6329056,28.1226913 64.7154629,31.3503884 C62.7980203,34.5780856 62.7980203,38.5974144 64.7154629,41.8251116 C66.6329056,45.0528087 70.1604652,46.9715425 73.9085926,46.8255 C76.5896214,46.9467942 79.1920208,45.9011982 81.0455556,43.958 C82.6675128,42.1738285 83.5334963,39.8284299 83.4606667,37.417 C83.4656623,36.8295317 83.4138153,36.2429599 83.3058519,35.6655 L73.9085926,35.743 Z M144.055185,37.913 C143.228597,35.4782756 140.986644,33.8071322 138.419926,33.7124881 C136.708237,33.7091494 135.071506,34.4152817 133.898373,35.663227 C132.725239,36.9111723 132.120349,38.5896108 132.227333,40.3 C132.189312,42.050409 132.863877,43.7410439 134.096029,44.9834398 C135.328181,46.2258357 137.011975,46.9131661 138.760519,46.8875 C140.960218,46.8993714 143.018922,45.8047406 144.240963,43.9735 L141.996148,42.4235 C141.31457,43.5611104 140.085511,44.2558589 138.760519,44.2525 C137.388227,44.3048669 136.123467,43.5119097 135.571333,42.253 L144.380296,38.6105 L144.055185,37.913 Z M135.075926,40.114 C135.012532,39.1455046 135.341164,38.1922247 135.987734,37.4690662 C136.634304,36.7459078 137.544387,36.3137436 138.512815,36.27 C139.533617,36.202655 140.496095,36.751558 140.958889,37.665 L135.075926,40.114 Z M127.923481,46.5 L130.818519,46.5 L130.818519,27.125 L127.923481,27.125 L127.923481,46.5 Z M123.186148,35.185 L123.077778,35.185 C122.195275,34.197149 120.933681,33.6332639 119.609926,33.634996 C116.095857,33.8056111 113.334255,36.7078434 113.334255,40.23025 C113.334255,43.7526566 116.095857,46.6548889 119.609926,46.8255 C120.937972,46.8478568 122.207743,46.2803167 123.077778,45.2755 L123.170667,45.2755 L123.170667,46.221 C123.170667,48.7475 121.823778,50.096 119.65637,50.096 C118.179906,50.0614 116.870831,49.1366018 116.343333,47.7555 L113.819852,48.8095 C114.791596,51.176057 117.100735,52.7152804 119.65637,52.7001127 C123.046815,52.7001127 125.848963,50.7005 125.848963,45.8335 L125.848963,34.1 L123.186148,34.1 L123.186148,35.185 Z M119.873111,44.299 C117.803063,44.1163477 116.21542,42.3805573 116.21542,40.3 C116.21542,38.2194427 117.803063,36.4836523 119.873111,36.301 C120.8734,36.3523942 121.810597,36.8059437 122.472219,37.5588196 C123.133842,38.3116954 123.463844,39.3001211 123.387407,40.3 C123.472764,41.3044766 123.143818,42.3001683 122.47705,43.0555709 C121.810283,43.8109736 120.863787,44.2602714 119.85763,44.299 L119.873111,44.299 Z M157.616963,27.125 L150.696741,27.125 L150.696741,46.5 L153.591778,46.5 L153.591778,39.153 L157.632444,39.153 C159.881414,39.3147639 162.032241,38.2051889 163.205979,36.2777081 C164.379717,34.3502273 164.379717,31.9277727 163.205979,30.0002919 C162.032241,28.0728111 159.881414,26.9632361 157.632444,27.125 L157.616963,27.125 Z M157.616963,36.425 L153.576296,36.425 L153.576296,29.822 L157.678889,29.822 C159.512904,29.822 160.999667,31.3105413 160.999667,33.14675 C160.999667,34.9829587 159.512904,36.4715 157.678889,36.4715 L157.616963,36.425 Z M175.467111,33.635 C173.313192,33.5061004 171.288174,34.6689864 170.311778,36.5955 L172.881704,37.665 C173.399413,36.7096857 174.431593,36.1504261 175.513556,36.239 C176.255936,36.1521917 177.002028,36.3676036 177.584248,36.8368508 C178.166467,37.3060979 178.536003,37.9898411 178.609852,38.7345 L178.609852,38.936 C177.680022,38.4430986 176.643072,38.187544 175.590963,38.192 C172.819778,38.192 170.01763,39.742 170.01763,42.5475 C170.072879,43.7560486 170.614039,44.8908358 171.517989,45.6936859 C172.421938,46.4965361 173.611808,46.8991756 174.816889,46.81 C176.301918,46.9167688 177.72674,46.2035054 178.532444,44.95 L178.625333,44.95 L178.625333,46.5 L181.412,46.5 L181.412,39.0445 C181.412,35.65 178.842074,33.6815 175.544519,33.6815 L175.467111,33.635 Z M175.111037,44.2525 C174.166667,44.2525 172.850741,43.772 172.850741,42.6095 C172.850741,41.0595 174.491778,40.548 175.947037,40.548 C176.866702,40.52528 177.775603,40.7501005 178.578889,41.199 C178.378707,42.9340933 176.93247,44.2564378 175.188444,44.299 L175.111037,44.2525 Z M191.567852,34.1 L188.254815,42.501 L188.161926,42.501 L184.725037,34.1 L181.628741,34.1 L186.784074,45.849 L183.842593,52.3745 L186.861481,52.3745 L194.788,34.1 L191.567852,34.1 Z M165.543481,46.5 L168.438519,46.5 L168.438519,27.125 L165.543481,27.125 L165.543481,46.5 Z" id="Google-Play" fill="#FFFFFF"></path>
                            <path d="M73.4131852,15.872 C73.4663696,17.0209081 73.0466884,18.1413967 72.2520741,18.972 C71.3641333,19.895495 70.1256675,20.39711 68.8461481,20.3515 C66.8836231,20.3361221 65.1215331,19.1443851 64.3746192,17.3273146 C63.6277053,15.5102442 64.0415254,13.4219498 65.4247407,12.028 C66.3234918,11.1093552 67.5620814,10.6043489 68.8461481,10.633 C69.5006396,10.6308167 70.1486608,10.7626859 70.7503704,11.0205 C71.3105747,11.246728 71.809279,11.6026127 72.2056296,12.059 L71.3851111,12.8805 C70.758648,12.1344485 69.8182069,11.7268193 68.8461481,11.78 C67.8690335,11.775201 66.9321406,12.1691859 66.2515076,12.8711057 C65.5708746,13.5730255 65.2052572,14.522287 65.238963,15.5 C65.2182207,16.977444 66.0873118,18.3223012 67.4418745,18.9088504 C68.7964372,19.4953995 70.3704433,19.2084458 71.4315556,18.1815 C71.9079354,17.6646317 72.1826907,16.993427 72.2056296,16.2905 L68.8461481,16.2905 L68.8461481,15.1745 L73.3512593,15.1745 C73.3925532,15.4046969 73.4132772,15.63812 73.4131852,15.872 L73.4131852,15.872 Z M80.5037037,11.997 L76.3237037,11.997 L76.3237037,14.942 L80.1321481,14.942 L80.1321481,16.058 L76.3237037,16.058 L76.3237037,19.003 L80.5037037,19.003 L80.5037037,20.15 L75.0851852,20.15 L75.0851852,10.85 L80.5037037,10.85 L80.5037037,11.997 Z M85.5816296,20.15 L84.3895556,20.15 L84.3895556,11.997 L81.7886667,11.997 L81.7886667,10.85 L88.2444444,10.85 L88.2444444,11.997 L85.5816296,11.997 L85.5816296,20.15 Z M92.796,20.15 L92.796,10.85 L93.9880741,10.85 L93.9880741,20.15 L92.796,20.15 Z M99.2827407,20.15 L98.0906667,20.15 L98.0906667,11.997 L95.4897778,11.997 L95.4897778,10.85 L101.868148,10.85 L101.868148,11.997 L99.2827407,11.997 L99.2827407,20.15 Z M113.959185,18.941 C112.075073,20.8168532 109.031445,20.8168532 107.147333,18.941 C105.320935,17.0054125 105.320935,13.9790875 107.147333,12.0435 C108.048353,11.1348074 109.274359,10.6237511 110.553259,10.6237511 C111.83216,10.6237511 113.058165,11.1348074 113.959185,12.0435 C115.793378,13.9759778 115.793378,17.0085222 113.959185,18.941 L113.959185,18.941 Z M108.029778,18.166 C109.425161,19.5572259 111.681358,19.5572259 113.076741,18.166 C114.447159,16.6534653 114.447159,14.3465347 113.076741,12.834 C111.681358,11.4427741 109.425161,11.4427741 108.029778,12.834 C106.65936,14.3465347 106.65936,16.6534653 108.029778,18.166 L108.029778,18.166 Z M117.009037,20.15 L117.009037,10.85 L118.464296,10.85 L122.984889,18.0885 L122.984889,10.85 L124.176963,10.85 L124.176963,20.15 L122.938444,20.15 L118.216593,12.5705 L118.216593,20.15 L117.009037,20.15 Z" id="GET-IT-ON" stroke="#FFFFFF" stroke-width="0.5" fill="#FFFFFF"></path>
                            <g id="Icon" transform="translate(14.933333, 10.850000)">
                                <path d="M1.22933333,0.837 C0.7247376,1.44321792 0.470049725,2.21928213 0.517185185,3.007 L0.517185185,37.293 C0.470049725,38.0807179 0.7247376,38.8567821 1.22933333,39.463 L1.3377037,39.5715 L20.5192593,20.3825 L20.5192593,19.933 L1.3377037,0.7285 L1.22933333,0.837 Z" id="Shape" fill="url(#linearGradient-1)"></path>
                                <path d="M26.8666667,26.784 L20.5192593,20.3825 L20.5192593,19.933 L26.8666667,13.516 L27.006,13.5935 L34.6074074,17.918 C36.7748148,19.1425 36.7748148,21.1575 34.6074074,22.3975 L27.036963,26.7065 L26.8666667,26.784 Z" id="Shape" fill="url(#linearGradient-2)"></path>
                                <path d="M27.0524444,26.691 L20.5192593,20.15 L1.22933333,39.463 C2.1407556,40.2651597 3.49339002,40.3042247 4.44948148,39.556 L27.0679259,26.691" id="Shape" fill="url(#linearGradient-3)"></path>
                                <path d="M27.0524444,13.609 L4.434,0.744 C3.47790854,-0.0042246941 2.12527411,0.0348402793 1.21385185,0.837 L20.5192593,20.15 L27.0524444,13.609 Z" id="Shape" fill="url(#linearGradient-4)"></path>
                                <path d="M26.8666667,26.5515 L4.434,39.339 C3.51600781,40.0261715 2.2556959,40.0261715 1.3377037,39.339 L1.22933333,39.4475 L1.3377037,39.556 C2.25396866,40.2483528 3.51773504,40.2483528 4.434,39.556 L27.0524444,26.691 L26.8666667,26.5515 Z" id="Shape" fill="#000000" opacity="0.2"></path>
                                <path d="M1.22933333,39.246 C0.7247376,38.6397821 0.470049725,37.8637179 0.517185185,37.076 L0.517185185,37.3085 C0.470049725,38.0962179 0.7247376,38.8722821 1.22933333,39.4785 L1.3377037,39.37 L1.22933333,39.246 Z M34.6074074,22.165 L26.8666667,26.5515 L27.006,26.691 L34.6074074,22.382 C35.485316,21.9691005 36.075777,21.1178195 36.1555556,20.15 C35.9791123,21.0254988 35.4073448,21.7696857 34.6074074,22.165 Z" id="Shape" fill="#000000" opacity="0.12"></path>
                                <path d="M4.434,0.961 L34.6074074,18.135 C35.4073448,18.5303143 35.9791123,19.2745012 36.1555556,20.15 C36.075777,19.1821805 35.485316,18.3308995 34.6074074,17.918 L4.434,0.744 C2.26659259,-0.4805 0.501703704,0.5425 0.501703704,3.0225 L0.501703704,3.255 C0.548148148,0.7595 2.28207407,-0.2635 4.434,0.961 L4.434,0.961 Z" id="Shape" fill="#FFFFFF" opacity="0.25"></path>
                            </g>
                        </g>
                    </g>
                </g>
            </g>
        </g>
    </g>
</svg>