<?xml version="1.0" encoding="UTF-8"?>
<svg width="44px" height="44px" viewBox="0 0 44 44" version="1.1" xmlns="http://www.w3.org/2000/svg" xmlns:xlink="http://www.w3.org/1999/xlink">
    <!-- Generator: sketchtool 55.2 (78181) - https://sketchapp.com -->
    <title>BC98ABCF-A1A7-48B7-9A1F-A0EB719A4301</title>
    <desc>Created with sketchtool.</desc>
    <g id="лендинг-страшные-истории" stroke="none" stroke-width="1" fill="none" fill-rule="evenodd">
        <g id="hoover" transform="translate(-125.000000, -376.000000)">
            <g id="button_to_read2" transform="translate(127.000000, 378.000000)">
                <g id="to_read2">
                    <circle id="Oval" stroke="#FFFFFF" stroke-width="4" fill="#0F8EA3" cx="20" cy="20" r="20"></circle>
                    <g id="eye-(1)" transform="translate(11.000000, 13.000000)">
                        <path d="M9.5,13 C14.7467051,13 19,7.15020916 19,6.61604348 C19,6.08187781 14.7467237,0 9.50001855,0 C4.25331343,0 0,6.08187781 0,6.61604348 C0,7.15020916 4.25329488,13 9.5,13 Z" id="Oval" stroke="#FFFFFF" stroke-width="2"></path>
                        <path d="M9.5,2 C7.01867657,2 5,4.01867657 5,6.5 C5,8.98132343 7.01867657,11 9.5,11 C11.9813234,11 14,8.98132343 14,6.5 C14,4.01867657 11.981408,2 9.5,2 Z" id="Shape" fill="#FFFFFF" fill-rule="nonzero"></path>
                        <path d="M9.5,4 C8.12148698,4 7,5.12148698 7,6.5 C7,7.87851302 8.12148698,9 9.5,9 C10.878513,9 12,7.87851302 12,6.5 C12,5.12148698 10.87856,4 9.5,4 Z" id="Path" fill="#0F8EA3" fill-rule="nonzero"></path>
                    </g>
                </g>
            </g>
        </g>
    </g>
</svg>