<?xml version="1.0" encoding="UTF-8"?>
<svg width="132px" height="39px" viewBox="0 0 132 39" version="1.1" xmlns="http://www.w3.org/2000/svg" xmlns:xlink="http://www.w3.org/1999/xlink">
    <!-- Generator: sketchtool 58 (101010) - https://sketch.com -->
    <title>5AE12BAF-3DDF-49C5-8AED-65D655C33D07</title>
    <desc>Created with sketchtool.</desc>
    <g id="лендинг" stroke="none" stroke-width="1" fill="none" fill-rule="evenodd">
        <g id="sprite" transform="translate(0.000000, -415.000000)" fill-rule="nonzero">
            <g id="App_Store_BlackRU" transform="translate(0.000000, 415.000000)">
                <path d="M8.45670563,38.9979609 C8.116419,38.9979609 7.78435251,38.9939846 7.44673519,38.9870517 C6.74733357,38.9787328 6.04956662,38.9231511 5.35915694,38.8207623 C4.71538475,38.7195493 4.09174255,38.5312746 3.50880095,38.2621484 C2.93120462,37.9952521 2.40439033,37.6452902 1.94853965,37.2256692 C1.48609062,36.8109912 1.10108069,36.3300354 0.808767088,35.8018613 C0.513232444,35.2702545 0.308704882,34.7004361 0.202309043,34.1122556 C0.087410773,33.4802489 0.0252460483,32.8411904 0.016350913,32.2005908 C0.00926998486,31.9855668 3.63797881e-12,31.2696356 3.63797881e-12,31.2696356 L3.63797881e-12,7.71735491 C3.63797881e-12,7.71735491 0.00987309231,7.01242471 0.0164067563,6.8053226 C0.0249237802,6.16573774 0.086727016,5.52767099 0.201281527,4.89664514 C0.307873758,4.30685332 0.512559657,3.73539177 0.80825333,3.20204355 C1.0994926,2.67423429 1.48236505,2.19291936 1.94202832,1.77675729 C2.40117495,1.3566411 2.92967441,1.00487715 3.50825369,0.73429337 C4.08985552,0.466031855 4.71231912,0.279085257 5.35479,0.179716878 C6.04746709,0.0762995243 6.74765642,0.0203870984 7.44948268,0.0124487608 L8.45725289,0 L123.235916,0 L124.255726,0.0129483426 C124.951168,0.0204922281 125.644997,0.075905841 126.331309,0.178717714 C126.980284,0.279332523 127.609234,0.467583547 128.19748,0.737280665 C129.356584,1.28258538 130.299724,2.14530887 130.89471,3.20453127 C131.185684,3.73419756 131.387213,4.30099769 131.492457,4.88569513 C131.608375,5.52189856 131.673252,6.16497948 131.686568,6.80980864 C131.689807,7.09854648 131.689807,7.40869497 131.689807,7.71735491 C131.69863,8.09968786 131.69863,8.46359746 131.69863,8.83049435 L131.69863,30.1684147 C131.69863,30.5388189 131.69863,30.900251 131.689807,31.2646398 C131.689807,31.5961989 131.689807,31.8999242 131.685451,32.2125196 C131.672423,32.8458421 131.608628,33.4774445 131.494579,34.1022639 C131.390364,34.6946875 131.18695,35.2689536 130.891471,35.80492 C130.597091,36.3273613 130.214292,36.8041509 129.757183,37.2177167 C129.300922,37.6395927 128.773178,37.9916021 128.194241,38.2602112 C127.607625,38.5314063 126.9796,38.7203773 126.331309,38.8207623 C125.640951,38.9236975 124.943118,38.9792828 124.243664,38.9870517 C123.916534,38.9939846 123.573991,38.9979609 123.241388,38.9979609 L122.030706,39 L8.45670563,38.9979609 Z" id="Background-Black" fill="#000000"></path>
                <path d="M34.7148438,9.4921875 L35.4921875,9.4921875 C36.2773438,9.4921875 36.7265625,9.8515625 36.7265625,10.4257812 C36.7265625,10.9921875 36.25,11.3945312 35.5195312,11.3945312 C34.7890625,11.3945312 34.2929688,11.0351562 34.2421875,10.484375 L33.4023438,10.484375 C33.453125,11.4765625 34.2929688,12.1367188 35.5195312,12.1367188 C36.7109375,12.1367188 37.625,11.421875 37.625,10.46875 C37.625,9.67578125 37.1015625,9.171875 36.3710938,9.09765625 L36.3710938,9.03125 C37,8.88671875 37.4296875,8.359375 37.4296875,7.7421875 C37.4296875,6.8515625 36.6484375,6.2265625 35.5390625,6.2265625 C34.3632812,6.2265625 33.6054688,6.8515625 33.546875,7.859375 L34.375,7.859375 C34.4257812,7.296875 34.8554688,6.95703125 35.5117188,6.95703125 C36.1757812,6.95703125 36.5664062,7.3046875 36.5664062,7.8359375 C36.5664062,8.37890625 36.1367188,8.76171875 35.46875,8.76171875 L34.7148438,8.76171875 L34.7148438,9.4921875 Z M39.8789062,12.0703125 C40.4375,12.0703125 40.9023438,11.828125 41.15625,11.3984375 L41.2226562,11.3984375 L41.2226562,12 L42.03125,12 L42.03125,9.09765625 C42.03125,8.20703125 41.4296875,7.67578125 40.3632812,7.67578125 C39.3984375,7.67578125 38.7109375,8.140625 38.625,8.85546875 L39.4375,8.85546875 C39.53125,8.546875 39.8554688,8.37109375 40.3242188,8.37109375 C40.8984375,8.37109375 41.1953125,8.6328125 41.1953125,9.09765625 L41.1953125,9.46875 L40.0429688,9.5390625 C39.03125,9.6015625 38.4609375,10.0429688 38.4609375,10.8046875 C38.4609375,11.578125 39.0585938,12.0703125 39.8789062,12.0703125 Z M40.09375,11.3945312 C39.6367188,11.3945312 39.3046875,11.1640625 39.3046875,10.7695312 C39.3046875,10.3828125 39.5703125,10.1757812 40.15625,10.1367188 L41.1953125,10.0664062 L41.1953125,10.4335938 C41.1953125,10.9804688 40.7265625,11.3945312 40.09375,11.3945312 Z M46.1015625,8.4296875 L46.1015625,7.7578125 L43.3007812,7.7578125 L43.3007812,12 L44.140625,12 L44.140625,8.4296875 L46.1015625,8.4296875 Z M49.3085938,7.68359375 C48.7304688,7.68359375 48.2304688,7.9765625 47.9726562,8.4609375 L47.9101562,8.4609375 L47.9101562,7.7578125 L47.1015625,7.7578125 L47.1015625,13.4140625 L47.9414062,13.4140625 L47.9414062,11.359375 L48.0078125,11.359375 C48.2304688,11.8085938 48.7109375,12.0703125 49.3164062,12.0703125 C50.390625,12.0703125 51.0742188,11.21875 51.0742188,9.87890625 C51.0742188,8.53125 50.390625,7.68359375 49.3085938,7.68359375 Z M49.0703125,11.3515625 C48.3671875,11.3515625 47.9257812,10.7851562 47.9257812,9.87890625 C47.9257812,8.96875 48.3671875,8.40234375 49.0742188,8.40234375 C49.7851562,8.40234375 50.2109375,8.95703125 50.2109375,9.87890625 C50.2109375,10.8007812 49.7851562,11.3515625 49.0703125,11.3515625 Z M52.5820312,13.5390625 C53.4492188,13.5390625 53.8515625,13.2148438 54.2148438,12.1953125 L55.8007812,7.7578125 L54.9101562,7.7578125 L53.8476562,11.15625 L53.78125,11.15625 L52.7148438,7.7578125 L51.8007812,7.7578125 L53.3398438,12.0117188 L53.2773438,12.2304688 C53.1328125,12.6796875 52.90625,12.8476562 52.5078125,12.8476562 C52.4296875,12.8476562 52.3007812,12.84375 52.234375,12.8320312 L52.234375,13.5195312 C52.3125,13.53125 52.5117188,13.5390625 52.5820312,13.5390625 Z M58.265625,12.078125 C59.3125,12.078125 60,11.5351562 60,10.7460938 C60,10.2695312 59.7109375,9.9296875 59.1328125,9.8125 L59.1328125,9.74609375 C59.578125,9.64453125 59.8554688,9.28125 59.8554688,8.83984375 C59.8554688,8.13671875 59.2695312,7.67578125 58.2890625,7.67578125 C57.3085938,7.67578125 56.703125,8.16015625 56.6132812,8.890625 L57.4257812,8.890625 C57.4765625,8.5625 57.8007812,8.3515625 58.2695312,8.3515625 C58.78125,8.3515625 59.03125,8.59765625 59.03125,8.92578125 C59.03125,9.3203125 58.7695312,9.52734375 58.2539062,9.52734375 L57.625,9.52734375 L57.625,10.1445312 L58.2578125,10.1445312 C58.8476562,10.1445312 59.1640625,10.3398438 59.1640625,10.7578125 C59.1640625,11.140625 58.828125,11.4023438 58.2578125,11.4023438 C57.7617188,11.4023438 57.4179688,11.203125 57.3359375,10.8476562 L56.5,10.8476562 C56.578125,11.6328125 57.3085938,12.078125 58.265625,12.078125 Z M61.921875,12 L63.8632812,9.01171875 L63.9296875,9.01171875 L63.9296875,12 L64.7617188,12 L64.7617188,7.7578125 L63.9296875,7.7578125 L61.9882812,10.734375 L61.921875,10.734375 L61.921875,7.7578125 L61.0898438,7.7578125 L61.0898438,12 L61.921875,12 Z M69.2265625,7.7578125 L65.7070312,7.7578125 L65.7070312,8.4296875 L67.046875,8.4296875 L67.046875,12 L67.8867188,12 L67.8867188,8.4296875 L69.2265625,8.4296875 L69.2265625,7.7578125 Z M70.1679688,12 L71.8476562,12 C72.8320312,12 73.4609375,11.4335938 73.4609375,10.5351562 C73.4609375,9.640625 72.8320312,9.07421875 71.8476562,9.07421875 L71.0078125,9.07421875 L71.0078125,7.7578125 L70.1679688,7.7578125 L70.1679688,12 Z M71.7851562,9.7421875 C72.2929688,9.7421875 72.625,10.0546875 72.625,10.5351562 C72.625,11.0117188 72.296875,11.328125 71.7851562,11.328125 L71.0078125,11.328125 L71.0078125,9.7421875 L71.7851562,9.7421875 Z M78.6054688,12 C79.5390625,12 80.0976562,11.515625 80.0976562,10.7851562 C80.0976562,10.2773438 79.7382812,9.89453125 79.1875,9.828125 L79.1875,9.76171875 C79.6054688,9.68359375 79.90625,9.2890625 79.90625,8.8515625 C79.90625,8.1875 79.4179688,7.7578125 78.5859375,7.7578125 L76.6679688,7.7578125 L76.6679688,12 L78.6054688,12 Z M77.5,8.37890625 L78.4257812,8.37890625 C78.8710938,8.37890625 79.0820312,8.609375 79.0820312,8.953125 C79.0820312,9.33203125 78.8398438,9.53515625 78.3320312,9.53515625 L77.5,9.53515625 L77.5,8.37890625 Z M77.5,10.1445312 L78.3984375,10.1445312 C78.9609375,10.1445312 79.25,10.34375 79.25,10.7539062 C79.25,11.1484375 78.9921875,11.375 78.5039062,11.375 L77.5,11.375 L77.5,10.1445312 Z" id="Загрузитьв" fill="#FFFFFF"></path>
                <path d="M40.5862108,25.8321265 L35.9743198,25.8321265 L34.86678,29.1046652 L32.9133663,29.1046652 L37.281675,16.9971152 L39.3112033,16.9971152 L43.679512,29.1046652 L41.692786,29.1046652 L40.5862108,25.8321265 Z M36.4519653,24.3220172 L40.1076494,24.3220172 L38.3055199,19.010929 L38.2550886,19.010929 L36.4519653,24.3220172 Z M53.1135739,24.6914545 C53.1135739,27.4345975 51.6463701,29.1970172 49.4322454,29.1970172 C48.2877837,29.2569257 47.2097633,28.6570727 46.6567413,27.6526172 L46.6148451,27.6526172 L46.6148451,32.0248877 L44.8041512,32.0248877 L44.8041512,20.2772882 L46.5568335,20.2772882 L46.5568335,21.7455017 L46.5901361,21.7455017 C47.1677267,20.7473435 48.2469096,20.1477486 49.3989428,20.1849265 C51.6377668,20.1849362 53.1135739,21.9559262 53.1135739,24.6914545 Z M51.2524487,24.6914545 C51.2524487,22.9042795 50.3294956,21.7293167 48.9212875,21.7293167 C47.5378176,21.7293167 46.6072551,22.929025 46.6072551,24.6914545 C46.6072551,26.470069 47.5378176,27.661207 48.9212875,27.661207 C50.3295054,27.661207 51.2524487,26.4948242 51.2524487,24.6914545 Z M62.822611,24.6914545 C62.822611,27.4345975 61.3554073,29.1970172 59.1412825,29.1970172 C57.9968208,29.2569257 56.9188004,28.6570727 56.3657784,27.6526172 L56.3238823,27.6526172 L56.3238823,32.0248877 L54.5131884,32.0248877 L54.5131884,20.2772882 L56.2658317,20.2772882 L56.2658317,21.7455017 L56.2991343,21.7455017 C56.8767291,20.7473441 57.9559161,20.1477527 59.1079507,20.1849362 C61.3468429,20.1849362 62.822611,21.9559262 62.822611,24.6914545 Z M60.9614956,24.6914545 C60.9614956,22.9042795 60.0385328,21.7293167 58.6303247,21.7293167 C57.2468548,21.7293167 56.3162922,22.929025 56.3162922,24.6914545 C56.3162922,26.470069 57.2468548,27.661207 58.6303247,27.661207 C60.0385425,27.661207 60.9614956,26.4948242 60.9614956,24.6914545 L60.9614956,24.6914545 Z M69.2394864,25.7311945 C69.3736515,26.9318582 70.5392419,27.7201945 72.1320269,27.7201945 C73.6582264,27.7201945 74.7562469,26.9318192 74.7562469,25.8492182 C74.7562469,24.909445 74.0940049,24.3467432 72.5259483,23.9611112 L70.9578917,23.5831037 C68.7361575,23.0460932 67.7047323,22.0063435 67.7047323,20.3191352 C67.7047323,18.2301197 69.5239906,16.7952317 72.1072887,16.7952317 C74.6639292,16.7952317 76.4166018,18.2301197 76.4755974,20.3191352 L74.6477553,20.3191352 C74.5383382,19.1108567 73.5402156,18.3815177 72.0815762,18.3815177 C70.6229368,18.3815177 69.6248239,19.1194367 69.6248239,20.1934577 C69.6248239,21.0494395 70.2623277,21.5531245 71.8218199,21.9387077 L73.1548585,22.2662492 C75.6373038,22.8537257 76.668729,23.8515992 76.668729,25.6225697 C76.668729,27.8877287 74.8656446,29.3064317 71.9978423,29.3064317 C69.3146267,29.3064317 67.5029877,27.9210542 67.3859512,25.7311067 L69.2394864,25.7311945 Z M80.5765306,18.1882727 L80.5765306,20.2772882 L82.2540142,20.2772882 L82.2540142,21.7121762 L80.5765306,21.7121762 L80.5765306,26.578606 C80.5765306,27.3346112 80.9124112,27.686908 81.649813,27.686908 C81.8489576,27.683433 82.0477799,27.6694386 82.2454498,27.644983 L82.2454498,29.0713007 C81.9139131,29.1332908 81.5769339,29.1613659 81.2397177,29.1550922 C79.4537718,29.1550922 78.7572724,28.4838242 78.7572724,26.7718607 L78.7572724,21.7121762 L77.4746651,21.7121762 L77.4746651,20.2772882 L78.7572529,20.2772882 L78.7572529,18.1882727 L80.5765306,18.1882727 Z M83.2255278,24.6914545 C83.2255278,21.9140402 84.8601896,20.1687512 87.4092498,20.1687512 C89.9668646,20.1687512 91.5939169,21.9140012 91.5939169,24.6914545 C91.5939169,27.4764932 89.975429,29.2141577 87.4092498,29.2141577 C84.8439767,29.2141577 83.2255278,27.4764835 83.2255278,24.6914545 Z M89.7489656,24.6914545 C89.7489656,22.786207 88.8764438,21.66172 87.40924,21.66172 C85.9420363,21.66172 85.0704693,22.7947772 85.0704693,24.6914545 C85.0704693,26.6043167 85.9420363,27.7202432 87.40924,27.7202432 C88.8764438,27.7202432 89.7489656,26.6043167 89.7489656,24.6914545 L89.7489656,24.6914545 Z M93.086765,20.2772882 L94.8137347,20.2772882 L94.8137347,21.7797632 L94.8556309,21.7797632 C95.0964618,20.8125519 95.9820849,20.1468835 96.9774574,20.1849167 C97.1861237,20.1841877 97.3942143,20.2068647 97.5978324,20.2525232 L97.5978324,21.9473462 C97.3344039,21.866795 97.0596027,21.8298113 96.7842673,21.8378537 C96.2519407,21.8162433 95.7367666,22.0285391 95.3740145,22.4189986 C95.0112625,22.809458 94.8371737,23.3390717 94.8974588,23.8687787 L94.8974588,29.1046457 L93.086765,29.1046457 L93.086765,20.2772882 Z M105.946209,26.511955 C105.702626,28.1144162 104.143124,29.214148 102.147844,29.214148 C99.5816646,29.214148 97.9888698,27.4936142 97.9888698,24.7333405 C97.9888698,21.9644965 99.590229,20.1687415 102.071729,20.1687415 C104.512308,20.1687415 106.047071,21.846424 106.047071,24.522916 L106.047071,25.143718 L99.8166924,25.143718 L99.8166924,25.2532105 C99.7585224,25.9103913 99.9852919,26.5609092 100.439318,27.0392934 C100.893344,27.5176776 101.530867,27.7778202 102.18972,27.7535492 C103.068412,27.8359364 103.896846,27.331021 104.226868,26.5119452 L105.946209,26.511955 Z M99.8252396,23.8773685 L104.235423,23.8773685 C104.268282,23.2868378 104.053473,22.7093702 103.642748,22.2840835 C103.232023,21.8587968 102.662622,21.6242511 102.071729,21.636955 C101.476162,21.6333984 100.90385,21.868054 100.481999,22.2887652 C100.060148,22.7094763 99.8237136,23.2813831 99.8252396,23.8773685 L99.8252396,23.8773685 Z" id="App-Store" fill="#FFFFFF"></path>
                <path d="M23.5029124,19.1641307 C23.5242083,17.5100716 24.3907633,15.9822242 25.7989783,15.1158722 C24.9065632,13.8404677 23.4654125,13.0608241 21.9102735,13.0121342 C20.2741405,12.8402807 18.6879809,13.9918435 17.8542374,13.9918435 C17.004359,13.9918435 15.72068,13.0291967 14.3383696,13.057657 C12.5196095,13.1164577 10.8651356,14.1261551 9.98027184,15.7173302 C8.09591866,18.9820397 9.5014766,23.7800635 11.3065291,26.4190082 C12.2096351,27.7112245 13.2651067,29.1546632 14.64617,29.1034757 C15.9976234,29.047384 16.502365,28.2411077 18.1336848,28.2411077 C19.7498636,28.2411077 20.2234169,29.1034757 21.6325019,29.0709302 C23.0826744,29.0473742 23.9963518,27.7729712 24.8677726,26.4685187 C25.5166528,25.5477675 26.015965,24.5301368 26.347214,23.4533215 C24.6248495,22.7243445 23.5049227,21.0355012 23.5029124,19.1641307 L23.5029124,19.1641307 Z M20.8414049,11.2765855 C21.6320991,10.3267326 22.0216442,9.10585763 21.9273145,7.87323099 C20.7193095,8.00019597 19.6034513,8.57794118 18.8020748,9.49135074 C18.0107524,10.392552 17.6098703,11.5715646 17.6877245,12.768706 C18.9119274,12.7813193 20.0742822,12.2313671 20.8414049,11.2765855 L20.8414049,11.2765855 Z" id="Icon" fill="#FFFFFF"></path>
            </g>
        </g>
    </g>
</svg>