<?xml version="1.0" encoding="UTF-8"?>
<svg width="132px" height="39px" viewBox="0 0 132 39" version="1.1" xmlns="http://www.w3.org/2000/svg" xmlns:xlink="http://www.w3.org/1999/xlink">
    <!-- Generator: sketchtool 58 (101010) - https://sketch.com -->
    <title>3D5A48EB-D52D-41E1-A780-42888E7728DE</title>
    <desc>Created with sketchtool.</desc>
    <defs>
        <linearGradient x1="61.0462893%" y1="4.9481245%" x2="26.4763609%" y2="71.9074222%" id="linearGradient-1">
            <stop stop-color="#00A0FF" offset="0%"></stop>
            <stop stop-color="#00A1FF" offset="1%"></stop>
            <stop stop-color="#00BEFF" offset="26%"></stop>
            <stop stop-color="#00D2FF" offset="51%"></stop>
            <stop stop-color="#00DFFF" offset="76%"></stop>
            <stop stop-color="#00E3FF" offset="100%"></stop>
        </linearGradient>
        <linearGradient x1="107.684729%" y1="50%" x2="-130.640394%" y2="50%" id="linearGradient-2">
            <stop stop-color="#FFE000" offset="0%"></stop>
            <stop stop-color="#FFBD00" offset="41%"></stop>
            <stop stop-color="#FFA500" offset="78%"></stop>
            <stop stop-color="#FF9C00" offset="100%"></stop>
        </linearGradient>
        <linearGradient x1="86.219293%" y1="30.9326224%" x2="-50.1497903%" y2="135.891427%" id="linearGradient-3">
            <stop stop-color="#FF3A44" offset="0%"></stop>
            <stop stop-color="#C31162" offset="100%"></stop>
        </linearGradient>
        <linearGradient x1="-18.7537448%" y1="-11.7624357%" x2="42.1210306%" y2="35.1114743%" id="linearGradient-4">
            <stop stop-color="#32A071" offset="0%"></stop>
            <stop stop-color="#2DA771" offset="7%"></stop>
            <stop stop-color="#15CF74" offset="48%"></stop>
            <stop stop-color="#06E775" offset="80%"></stop>
            <stop stop-color="#00F076" offset="100%"></stop>
        </linearGradient>
    </defs>
    <g id="лендинг" stroke="none" stroke-width="1" fill="none" fill-rule="evenodd">
        <g id="sprite" transform="translate(0.000000, -504.000000)" fill-rule="nonzero">
            <g id="Google_Play_BlackRU" transform="translate(0.000000, 504.000000)">
                <rect id="Background-Black" fill="#000000" x="0" y="0" width="131.69863" height="39" rx="4.8825"></rect>
                <path d="M45.78125,14.3984375 L44.6992188,14.3984375 L44.6992188,13 L41.2695312,13 L41.2695312,14.3945312 L40.1601562,14.3945312 L40.0976562,12.0585938 L40.5273438,12.0585938 C40.7591157,11.8658845 40.9381504,11.5826842 41.0644531,11.2089844 C41.1907558,10.8352846 41.2760414,10.3723986 41.3203125,9.8203125 L41.484375,7.3125 L45.2109375,7.3125 L45.2109375,12.0585938 L45.875,12.0585938 L45.78125,14.3984375 Z M41.8710938,12.0585938 L44.0390625,12.0585938 L44.0390625,8.26171875 L42.5976562,8.26171875 L42.5,9.7578125 C42.4218746,10.7604217 42.2122413,11.5273411 41.8710938,12.0585938 Z M51.1601562,10.2851562 C51.1601562,10.8450549 51.0611989,11.3359354 50.8632812,11.7578125 C50.6653636,12.1796896 50.3821633,12.5052072 50.0136719,12.734375 C49.6451804,12.9635428 49.2226586,13.078125 48.7460938,13.078125 C48.2747372,13.078125 47.8541685,12.9648449 47.484375,12.7382812 C47.1145815,12.5117176 46.828126,12.1881531 46.625,11.7675781 C46.421874,11.3470031 46.3190104,10.863284 46.3164062,10.3164062 L46.3164062,10.0351562 C46.3164062,9.47525762 46.4173167,8.982424 46.6191406,8.55664062 C46.8209646,8.13085725 47.1061179,7.8040376 47.4746094,7.57617188 C47.8431008,7.34830615 48.2643205,7.234375 48.7382812,7.234375 C49.212242,7.234375 49.6334617,7.34830615 50.0019531,7.57617188 C50.3704446,7.8040376 50.6555979,8.13085725 50.8574219,8.55664062 C51.0592458,8.982424 51.1601562,9.47395555 51.1601562,10.03125 L51.1601562,10.2851562 Z M49.9726562,10.0273438 C49.9726562,9.4309866 49.8658865,8.97786613 49.6523438,8.66796875 C49.438801,8.35807137 49.1341166,8.203125 48.7382812,8.203125 C48.3450501,8.203125 48.0416677,8.35611826 47.828125,8.66210938 C47.6145823,8.96810049 47.5065104,9.41666371 47.5039062,10.0078125 L47.5039062,10.2851562 C47.5039062,10.8658883 47.610676,11.3164046 47.8242188,11.6367188 C48.0377615,11.9570329 48.3450501,12.1171875 48.7460938,12.1171875 C49.1393249,12.1171875 49.4414052,11.9628922 49.6523438,11.6542969 C49.8632823,11.3457016 49.9700521,10.8958363 49.9726562,10.3046875 L49.9726562,10.0273438 Z M56.4765625,11.1054688 C56.4322914,11.717451 56.2063822,12.199217 55.7988281,12.5507812 C55.391274,12.9023455 54.85417,13.078125 54.1875,13.078125 C53.4583297,13.078125 52.8847677,12.8326847 52.4667969,12.3417969 C52.048826,11.850909 51.8398438,11.1770876 51.8398438,10.3203125 L51.8398438,9.97265625 C51.8398438,9.42577852 51.936197,8.9440125 52.1289062,8.52734375 C52.3216155,8.110675 52.5970034,7.79101674 52.9550781,7.56835938 C53.3131528,7.34570201 53.7291643,7.234375 54.203125,7.234375 C54.8593783,7.234375 55.3880188,7.41015449 55.7890625,7.76171875 C56.1901062,8.11328301 56.4218747,8.60676766 56.484375,9.2421875 L55.3125,9.2421875 C55.283854,8.87499816 55.1816415,8.60872479 55.0058594,8.44335938 C54.8300772,8.27799396 54.5625018,8.1953125 54.203125,8.1953125 C53.812498,8.1953125 53.5201833,8.33528506 53.3261719,8.61523438 C53.1321605,8.89518369 53.0325521,9.32942414 53.0273438,9.91796875 L53.0273438,10.3476562 C53.0273438,10.9622427 53.1204418,11.4114569 53.3066406,11.6953125 C53.4928395,11.9791681 53.7864563,12.1210938 54.1875,12.1210938 C54.549481,12.1210938 54.8196606,12.0384123 54.9980469,11.8730469 C55.1764332,11.7076815 55.2786457,11.4518246 55.3046875,11.1054688 L56.4765625,11.1054688 Z M61.5273438,8.26171875 L59.7851562,8.26171875 L59.7851562,13 L58.6132812,13 L58.6132812,8.26171875 L56.8945312,8.26171875 L56.8945312,7.3125 L61.5273438,7.3125 L61.5273438,8.26171875 Z M64.328125,10 L65.3632812,7.3125 L66.6289062,7.3125 L64.640625,12.0039062 L64.4804688,12.3125 C64.1861964,12.8255234 63.7356801,13.0820312 63.1289062,13.0820312 L62.71875,13.0664062 L62.7070312,12.125 L62.830078,12.1367188 C62.8808591,12.1393229 62.9414059,12.140625 63.0117188,12.140625 C63.1757821,12.140625 63.3079422,12.1119795 63.4082031,12.0546875 C63.508464,11.9973955 63.5924476,11.8919279 63.6601562,11.7382812 L63.8046875,11.3671875 L61.8085938,7.3125 L63.0703125,7.3125 L64.328125,10 Z M71.8789062,13 L70.703125,13 L70.703125,8.26171875 L68.4257812,8.26171875 L68.4257812,13 L67.2539062,13 L67.2539062,7.3125 L71.8789062,7.3125 L71.8789062,13 Z M77.5351562,13 L76.3632812,13 L76.3632812,10.5625 L74.078125,10.5625 L74.078125,13 L72.90625,13 L72.90625,7.3125 L74.078125,7.3125 L74.078125,9.6171875 L76.3632812,9.6171875 L76.3632812,7.3125 L77.5351562,7.3125 L77.5351562,13 Z M83.2304688,10.2851562 C83.2304688,10.8450549 83.1315114,11.3359354 82.9335938,11.7578125 C82.7356761,12.1796896 82.4524758,12.5052072 82.0839844,12.734375 C81.7154929,12.9635428 81.2929711,13.078125 80.8164062,13.078125 C80.3450497,13.078125 79.924481,12.9648449 79.5546875,12.7382812 C79.184894,12.5117176 78.8984385,12.1881531 78.6953125,11.7675781 C78.4921865,11.3470031 78.3893229,10.863284 78.3867188,10.3164062 L78.3867188,10.0351562 C78.3867188,9.47525762 78.4876292,8.982424 78.6894531,8.55664062 C78.8912771,8.13085725 79.1764304,7.8040376 79.5449219,7.57617188 C79.9134133,7.34830615 80.334633,7.234375 80.8085938,7.234375 C81.2825545,7.234375 81.7037742,7.34830615 82.0722656,7.57617188 C82.4407571,7.8040376 82.7259104,8.13085725 82.9277344,8.55664062 C83.1295583,8.982424 83.2304688,9.47395555 83.2304688,10.03125 L83.2304688,10.2851562 Z M82.0429688,10.0273438 C82.0429688,9.4309866 81.936199,8.97786613 81.7226562,8.66796875 C81.5091135,8.35807137 81.2044291,8.203125 80.8085938,8.203125 C80.4153626,8.203125 80.1119802,8.35611826 79.8984375,8.66210938 C79.6848948,8.96810049 79.5768229,9.41666371 79.5742188,10.0078125 L79.5742188,10.2851562 C79.5742188,10.8658883 79.6809885,11.3164046 79.8945312,11.6367188 C80.108074,11.9570329 80.4153626,12.1171875 80.8164062,12.1171875 C81.2096374,12.1171875 81.5117177,11.9628922 81.7226562,11.6542969 C81.9335948,11.3457016 82.0403646,10.8958363 82.0429688,10.3046875 L82.0429688,10.0273438 Z M86.0742188,13 L86.0742188,7.3125 L88.0664062,7.3125 C88.7565139,7.3125 89.2799461,7.44466014 89.6367188,7.70898438 C89.9934914,7.97330861 90.171875,8.36067453 90.171875,8.87109375 C90.171875,9.14974098 90.1002611,9.39518123 89.9570312,9.60742188 C89.8138014,9.81966252 89.6145846,9.97525992 89.359375,10.0742188 C89.6510431,10.1471358 89.8808585,10.2942697 90.0488281,10.515625 C90.2167977,10.7369803 90.3007812,11.0078109 90.3007812,11.328125 C90.3007812,11.8750027 90.1263038,12.2890611 89.7773438,12.5703125 C89.4283837,12.8515639 88.9309928,12.9947916 88.2851562,13 L86.0742188,13 Z M87.2460938,10.5234375 L87.2460938,12.0585938 L88.25,12.0585938 C88.526043,12.0585938 88.7415357,11.9928392 88.8964844,11.8613281 C89.0514331,11.7298171 89.1289062,11.5481782 89.1289062,11.3164062 C89.1289062,10.7955703 88.8593777,10.53125 88.3203125,10.5234375 L87.2460938,10.5234375 Z" id="ДОСТУПНОВ" fill="#FFFFFF"></path>
                <path d="M87.2460938,9.6953125 L87.2460938,8.26171875 L88.0664062,8.26171875 C88.3893245,8.26171875 88.6256503,8.31835881 88.7753906,8.43164062 C88.925131,8.54492244 89,8.73046746 89,8.98828125 C89,9.44922105 88.70443,9.68489578 88.1132812,9.6953125 L87.2460938,9.6953125 Z" id="Path" fill="#000000"></path>
                <path d="M66.4736641,22.20625 C64.1864247,22.2170076 62.3399601,24.0769641 62.3471066,26.3629389 C62.3542947,28.6489136 64.2123862,30.4972681 66.4996481,30.4937042 C68.78691,30.4901301 70.6392177,28.635986 70.639243,26.35 C70.6553132,25.2427644 70.22096,24.176442 69.4356689,23.3952661 C68.6503778,22.6140901 67.5814314,22.1849908 66.4736641,22.20625 L66.4736641,22.20625 Z M66.4736641,28.8655 C65.4427344,28.9375576 64.4725015,28.3724556 64.027017,27.4404761 C63.5815326,26.5084967 63.7513421,25.3990657 64.4552274,24.6428121 C65.1591127,23.8865584 66.2540082,23.6371916 67.2162374,24.013981 C68.1784666,24.3907704 68.8124551,25.3171331 68.8149731,26.35 C68.8467201,26.9961051 68.6159937,27.627633 68.1751522,28.1012726 C67.7343107,28.5749123 67.1207357,28.850501 66.4736641,28.8655 L66.4736641,28.8655 Z M57.3913364,22.20625 C55.1028039,22.2116318 53.2514412,24.0692282 53.2550237,26.3564847 C53.2586167,28.6437412 55.1157979,30.495527 57.404336,30.4937386 C59.6928741,30.4919476 61.5471535,28.6372593 61.5471598,26.35 C61.56323,25.2427644 61.1288768,24.176442 60.3435857,23.3952661 C59.5582946,22.6140901 58.4893482,22.1849908 57.3815809,22.20625 L57.3913364,22.20625 Z M57.3913364,28.8655 C56.3598685,28.9416212 55.3868067,28.379337 54.9381828,27.4479442 C54.4895589,26.5165514 54.6567097,25.405675 55.359581,24.6473511 C56.0624523,23.8890271 57.1579445,23.6376451 58.1213895,24.0136003 C59.0848346,24.3895555 59.7200818,25.3163061 59.7228899,26.35 C59.7546369,26.9961051 59.5239105,27.627633 59.083069,28.1012726 C58.6422275,28.5749123 58.0286525,28.850501 57.3815809,28.8655 L57.3913364,28.8655 Z M46.5725378,23.4835 L46.5725378,25.2385 L50.786894,25.2385 C50.7208139,26.0651087 50.3770133,26.8450996 49.8113486,27.45175 C48.9587442,28.319719 47.7788419,28.7871666 46.5627823,28.73875 C43.9766439,28.73875 41.8801644,26.6434426 41.8801644,24.05875 C41.8801644,21.4740574 43.9766439,19.37875 46.5627823,19.37875 C47.7507974,19.3593854 48.8980058,19.8117008 49.7528158,20.6365 L50.9917585,19.39825 C49.8259033,18.2183617 48.2316658,17.5606228 46.5725378,17.575 C44.2107041,17.4831345 41.9878583,18.69008 40.7796068,20.7204056 C39.5713553,22.7507313 39.5713553,25.2790187 40.7796068,27.3093444 C41.9878583,29.33967 44.2107041,30.5466155 46.5725378,30.45475 C48.2619532,30.531048 49.9018213,29.8733343 51.0698021,28.651 C52.0918574,27.5286986 52.6375456,26.0533672 52.591653,24.5365 C52.5948009,24.1669635 52.5621302,23.7979909 52.4940984,23.43475 L46.5725378,23.4835 Z M90.7745003,24.8485 C90.2536367,23.3169798 88.8408988,22.2657767 87.223515,22.2062425 C86.1449164,22.2041423 85.1135518,22.6483224 84.374317,23.4333202 C83.6350822,24.2183181 83.2539187,25.27411 83.3213333,26.35 C83.2973749,27.4510637 83.7224429,28.5145276 84.4988675,29.2960347 C85.2752922,30.0775418 86.3363132,30.5098948 87.438135,30.49375 C88.8242469,30.5012175 90.1215125,29.8126594 90.8915657,28.66075 L89.4770249,27.68575 C89.0475371,28.4013436 88.2730616,28.8383628 87.438135,28.83625 C86.5734031,28.8691905 85.7764312,28.3703948 85.4285114,27.5785 L90.9793648,25.28725 L90.7745003,24.8485 Z M85.1163369,26.233 C85.0763902,25.6237852 85.2834729,25.0241413 85.6909006,24.5692513 C86.0983283,24.1143613 86.6718053,23.8425161 87.2820477,23.815 C87.9252929,23.7726378 88.5317861,24.1179155 88.8234094,24.6925 L85.1163369,26.233 Z M80.6093171,30.25 L82.433587,30.25 L82.433587,18.0625 L80.6093171,18.0625 L80.6093171,30.25 Z M77.6241481,23.1325 L77.55586,23.1325 C76.9997621,22.5111099 76.2047854,22.156408 75.3706383,22.1574975 C73.1562935,22.2648199 71.416106,24.0904176 71.416106,26.306125 C71.416106,28.5218324 73.1562935,30.3474301 75.3706383,30.45475 C76.2074893,30.4688131 77.007619,30.1118121 77.55586,29.47975 L77.6143927,29.47975 L77.6143927,30.0745 C77.6143927,31.66375 76.7656682,32.512 75.3999046,32.512 C74.4695299,32.4902355 73.6446332,31.9085076 73.3122374,31.03975 L71.7220984,31.70275 C72.3344304,33.1913907 73.7895043,34.1596119 75.3999046,34.1500709 C77.5363491,34.1500709 79.3020863,32.89225 79.3020863,29.83075 L79.3020863,22.45 L77.6241481,22.45 L77.6241481,23.1325 Z M75.536481,28.8655 C74.2320671,28.7506058 73.2316343,27.6587376 73.2316343,26.35 C73.2316343,25.0412624 74.2320671,23.9493942 75.536481,23.8345 C76.1668,23.8668286 76.7573623,24.1521259 77.1742752,24.6257091 C77.5911881,25.0992923 77.7991346,25.7210439 77.7509691,26.35 C77.8047555,26.9818482 77.5974743,27.6081704 77.1773194,28.083343 C76.7571645,28.5585157 76.1607427,28.8411385 75.5267255,28.8655 L75.536481,28.8655 Z M99.320278,18.0625 L94.9595901,18.0625 L94.9595901,30.25 L96.78386,30.25 L96.78386,25.6285 L99.3300335,25.6285 C100.747193,25.7302547 102.102508,25.0322962 102.842124,23.8198486 C103.58174,22.6074011 103.58174,21.0835989 102.842124,19.8711514 C102.102508,18.6587038 100.747193,17.9607453 99.3300335,18.0625 L99.320278,18.0625 Z M99.320278,23.9125 L96.7741045,23.9125 L96.7741045,19.759 L99.3592998,19.759 C100.51498,19.759 101.451845,20.6953405 101.451845,21.850375 C101.451845,23.0054095 100.51498,23.94175 99.3592998,23.94175 L99.320278,23.9125 Z M110.568317,22.1575 C109.211053,22.076418 107.935014,22.8079108 107.31975,24.01975 L108.939156,24.6925 C109.265384,24.0915765 109.915798,23.7397842 110.597583,23.7955 C111.065384,23.7408948 111.535525,23.8763958 111.902403,24.1715674 C112.26928,24.466739 112.502139,24.8968355 112.548674,25.36525 L112.548674,25.492 C111.962754,25.1819491 111.309333,25.021197 110.64636,25.024 C108.900134,25.024 107.134397,25.999 107.134397,27.76375 C107.169212,28.5239661 107.510216,29.2377838 108.079828,29.7428024 C108.649441,30.2478211 109.399221,30.5010943 110.158588,30.445 C111.094359,30.512161 111.992192,30.0634953 112.499896,29.275 L112.558429,29.275 L112.558429,30.25 L114.314411,30.25 L114.314411,25.56025 C114.314411,23.425 112.695006,22.18675 110.617094,22.18675 L110.568317,22.1575 Z M110.343941,28.83625 C109.748858,28.83625 108.919645,28.534 108.919645,27.80275 C108.919645,26.82775 109.953723,26.506 110.870736,26.506 C111.450251,26.4917084 112.022982,26.6331277 112.529163,26.9155 C112.403021,28.0069297 111.491693,28.838727 110.392718,28.8655 L110.343941,28.83625 Z M120.713989,22.45 L118.626322,27.7345 L118.567789,27.7345 L116.402078,22.45 L114.450987,22.45 L117.699554,29.8405 L115.846017,33.94525 L117.748331,33.94525 L122.743123,22.45 L120.713989,22.45 Z M104.315071,30.25 L106.13934,30.25 L106.13934,18.0625 L104.315071,18.0625 L104.315071,30.25 Z" id="Google-Play" fill="#FFFFFF"></path>
                <g id="Icon" transform="translate(9.410046, 6.825000)">
                    <path d="M0.774648402,0.5265 C0.456683967,0.907830627 0.296195717,1.39600005 0.325897514,1.8915 L0.325897514,23.4585 C0.296195717,23.954 0.456683967,24.4421694 0.774648402,24.8235 L0.84293658,24.89175 L12.9299442,12.82125 L12.9299442,12.5385 L0.84293658,0.45825 L0.774648402,0.5265 Z" id="Shape" fill="url(#linearGradient-1)"></path>
                    <path d="M16.9296804,16.848 L12.9299442,12.82125 L12.9299442,12.5385 L16.9296804,8.502 L17.0174795,8.55075 L21.8074074,11.271 C23.173171,12.04125 23.173171,13.30875 21.8074074,14.08875 L17.0369904,16.79925 L16.9296804,16.848 Z" id="Shape" fill="url(#linearGradient-2)"></path>
                    <path d="M17.0467458,16.7895 L12.9299442,12.675 L0.774648402,24.8235 C1.34896928,25.3280843 2.20131426,25.3526575 2.80378285,24.882 L17.0565013,16.7895" id="Shape" fill="url(#linearGradient-3)"></path>
                    <path d="M17.0467458,8.5605 L2.7940274,0.468 C2.19155881,-0.00265746887 1.33921383,0.0219156595 0.764892948,0.5265 L12.9299442,12.675 L17.0467458,8.5605 Z" id="Shape" fill="url(#linearGradient-4)"></path>
                    <path d="M16.9296804,16.70175 L2.7940274,24.7455 C2.21556656,25.177753 1.42139741,25.177753 0.84293658,24.7455 L0.774648402,24.81375 L0.84293658,24.882 C1.42030902,25.3175123 2.21665496,25.3175123 2.7940274,24.882 L17.0467458,16.7895 L16.9296804,16.70175 Z" id="Shape" fill="#000000" opacity="0.2"></path>
                    <path d="M0.774648402,24.687 C0.456683967,24.3056694 0.296195717,23.8175 0.325897514,23.322 L0.325897514,23.46825 C0.296195717,23.96375 0.456683967,24.4519194 0.774648402,24.83325 L0.84293658,24.765 L0.774648402,24.687 Z M21.8074074,13.9425 L16.9296804,16.70175 L17.0174795,16.7895 L21.8074074,14.079 C22.3606101,13.8192729 22.7326814,13.2837897 22.7829528,12.675 C22.6717694,13.225717 22.3114775,13.6938346 21.8074074,13.9425 Z" id="Shape" fill="#000000" opacity="0.12"></path>
                    <path d="M2.7940274,0.6045 L21.8074074,11.4075 C22.3114775,11.6561654 22.6717694,12.124283 22.7829528,12.675 C22.7326814,12.0662103 22.3606101,11.5307271 21.8074074,11.271 L2.7940274,0.468 C1.42826383,-0.30225 0.31614206,0.34125 0.31614206,1.90125 L0.31614206,2.0475 C0.345408422,0.47775 1.43801928,-0.16575 2.7940274,0.6045 L2.7940274,0.6045 Z" id="Shape" fill="#FFFFFF" opacity="0.25"></path>
                </g>
            </g>
        </g>
    </g>
</svg>