<?xml version="1.0" encoding="UTF-8"?>
<svg width="164px" height="50px" viewBox="0 0 164 50" version="1.1" xmlns="http://www.w3.org/2000/svg" xmlns:xlink="http://www.w3.org/1999/xlink">
    <!-- Generator: Sketch 55.2 (78181) - https://sketchapp.com -->
    <title>App Store Badge US</title>
    <desc>Created with Sketch.</desc>
    <g id="лендинг-страшные-истории" stroke="none" stroke-width="1" fill="none" fill-rule="evenodd">
        <g id="LP_VZ_320_read_step3" transform="translate(-79.000000, -262.000000)" fill-rule="nonzero">
            <g id="scach">
                <g id="donload" transform="translate(79.000000, 262.000000)">
                    <g id="App-Store-Badge-US">
                        <path d="M10.5308591,49.9973858 C10.1071113,49.9973858 9.69359978,49.992288 9.27317597,49.9833996 C8.40223398,49.9727344 7.5333276,49.9014758 6.67358299,49.7702081 C5.87191453,49.6404478 5.09531327,49.3990699 4.36939515,49.0540364 C3.65013332,48.7118617 2.9941087,48.2631926 2.42645274,47.725217 C1.85058009,47.1935784 1.37113979,46.5769685 1.00713122,45.8998222 C0.639111589,45.218275 0.384420101,44.4877386 0.251928839,43.733661 C0.108849779,42.923396 0.0314380788,42.1040903 0.0203612576,41.2828087 C0.0115436092,41.0071369 3.63797881e-12,40.0892764 3.63797881e-12,40.0892764 L3.63797881e-12,9.89404476 C3.63797881e-12,9.89404476 0.0122946392,8.99028809 0.0204307975,8.72477256 C0.0310367689,7.90479197 0.107998319,7.08675768 0.250649307,6.27775018 C0.383385129,5.52160682 0.638273789,4.7889638 1.00649146,4.10518404 C1.36916221,3.4285055 1.84594074,2.81143508 2.4183444,2.27789397 C2.99010469,1.73928346 3.6482278,1.28830403 4.36871366,0.941401757 C5.09296341,0.597476737 5.86809699,0.357801612 6.66814498,0.230406253 C7.53071313,0.0978199029 8.40263601,0.0261373057 9.27659733,0.0159599498 L10.5315406,0 L153.461658,0 L154.731594,0.0166004392 C155.597606,0.0262720873 156.461608,0.0973151808 157.31625,0.229125274 C158.124397,0.358118619 158.907609,0.599466086 159.640132,0.945231622 C161.083526,1.64434023 162.257988,2.75039599 162.998905,4.10837342 C163.361245,4.78743277 163.612202,5.5140996 163.743259,6.2637117 C163.887609,7.07935713 163.968397,7.90381985 163.984979,8.73052389 C163.989013,9.10070062 163.989013,9.49832688 163.989013,9.89404476 C164,10.3842152 164,10.850766 164,11.3211466 L164,38.6774548 C164,39.1523319 164,39.6157064 163.989013,40.0828715 C163.989013,40.5079473 163.989013,40.8973387 163.983589,41.2981021 C163.967365,42.1100539 163.887924,42.9198006 163.745902,43.7208512 C163.616126,44.4803685 163.362821,45.2166072 162.994872,45.9037436 C162.62829,46.5735401 162.151603,47.1848089 161.582379,47.7150214 C161.014212,48.2558881 160.35703,48.7071822 159.636098,49.0515529 C158.905605,49.3992388 158.123546,49.6415093 157.31625,49.7702081 C156.456571,49.9021763 155.587581,49.9734395 154.716574,49.9833996 C154.30921,49.992288 153.882652,49.9973858 153.468473,49.9973858 L151.96085,50 L10.5308591,49.9973858 Z" id="Background-Black" fill="#FFFFFF"></path>
                        <path d="M54.2265625,14.9238281 L54.2265625,13.9082031 L55.1689453,13.9082031 C55.9550781,13.9082031 56.4580078,13.46875 56.4580078,12.8242188 C56.4580078,12.1992188 55.9941406,11.7939453 55.203125,11.7939453 C54.4267578,11.7939453 53.9091797,12.2041016 53.8603516,12.8681641 L52.6835938,12.8681641 C52.7470703,11.5888672 53.7236328,10.7783203 55.2421875,10.7783203 C56.6728516,10.7783203 57.6787109,11.5546875 57.6787109,12.6826172 C57.6787109,13.4589844 57.1416016,14.1132812 56.3554688,14.2890625 L56.3554688,14.3720703 C57.2783203,14.4648438 57.9277344,15.0996094 57.9277344,16.0712891 C57.9277344,17.2871094 56.7558594,18.1757812 55.2128906,18.1757812 C53.6455078,18.1757812 52.5712891,17.3359375 52.5078125,16.0566406 L53.71875,16.0566406 C53.7724609,16.7109375 54.3535156,17.1308594 55.2177734,17.1308594 C56.0722656,17.1308594 56.6337891,16.6621094 56.6337891,15.9980469 C56.6337891,15.3339844 56.1064453,14.9238281 55.1884766,14.9238281 L54.2265625,14.9238281 Z M60.7255859,18.0878906 C59.6953125,18.0878906 58.9580078,17.4628906 58.9580078,16.4863281 C58.9580078,15.5292969 59.6855469,14.9677734 60.984375,14.8945312 L62.3613281,14.8115234 L62.3613281,14.3525391 C62.3613281,13.8203125 62.0097656,13.5224609 61.3554688,13.5224609 C60.7988281,13.5224609 60.4179688,13.7226562 60.3056641,14.0888672 L59.1630859,14.0888672 C59.2607422,13.15625 60.1445312,12.5605469 61.4140625,12.5605469 C62.7861328,12.5605469 63.5576172,13.2246094 63.5576172,14.3525391 L63.5576172,18 L62.390625,18 L62.390625,17.2675781 L62.3076172,17.2675781 C62.0097656,17.7851562 61.4238281,18.0878906 60.7255859,18.0878906 Z M61.0820312,17.1552734 C61.8144531,17.1552734 62.3613281,16.6767578 62.3613281,16.0419922 L62.3613281,15.6074219 L61.1552734,15.6904297 C60.4765625,15.734375 60.1591797,15.9833984 60.1591797,16.4277344 C60.1591797,16.8867188 60.5449219,17.1552734 61.0820312,17.1552734 Z M68.7041016,13.6103516 L66.3164062,13.6103516 L66.3164062,18 L65.1054688,18 L65.1054688,12.6630859 L68.7041016,12.6630859 L68.7041016,13.6103516 Z M72.8447266,12.5751953 C74.1972656,12.5751953 75.046875,13.625 75.046875,15.3339844 C75.046875,17.0283203 74.2070312,18.0878906 72.859375,18.0878906 C72.0927734,18.0878906 71.5019531,17.7558594 71.2285156,17.1894531 L71.1455078,17.1894531 L71.1455078,19.7724609 L69.9345703,19.7724609 L69.9345703,12.6630859 L71.1015625,12.6630859 L71.1015625,13.546875 L71.1845703,13.546875 C71.4921875,12.9414062 72.1123047,12.5751953 72.8447266,12.5751953 Z M72.4638672,17.0820312 C73.3037109,17.0820312 73.8017578,16.4277344 73.8017578,15.3339844 C73.8017578,14.2402344 73.2988281,13.5859375 72.46875,13.5859375 C71.6435547,13.5859375 71.1259766,14.2548828 71.1210938,15.3339844 C71.1259766,16.4130859 71.6386719,17.0820312 72.4638672,17.0820312 Z M76.9462891,19.9335938 C76.8730469,19.9335938 76.5458984,19.9287109 76.4677734,19.9140625 L76.4677734,18.9521484 C76.5361328,18.9619141 76.7167969,18.9667969 76.7998047,18.9667969 C77.3125,18.9667969 77.6005859,18.7714844 77.7568359,18.2685547 L77.8203125,18.0195312 L75.9111328,12.6630859 L77.2392578,12.6630859 L78.4892578,16.8525391 L78.5722656,16.8525391 L79.8173828,12.6630859 L81.0966797,12.6630859 L79.1679688,18.1855469 C78.7138672,19.4990234 78.1425781,19.9335938 76.9462891,19.9335938 Z M84.2314453,18.1025391 C83.0009766,18.1025391 82.0390625,17.5507812 81.9365234,16.4863281 L83.1181641,16.4863281 C83.2255859,16.9208984 83.6308594,17.1552734 84.2167969,17.1552734 C84.8808594,17.1552734 85.2714844,16.8574219 85.2714844,16.4130859 C85.2714844,15.9345703 84.9052734,15.7001953 84.2119141,15.7001953 L83.4453125,15.7001953 L83.4453125,14.8798828 L84.2070312,14.8798828 C84.8271484,14.8798828 85.1201172,14.6259766 85.1201172,14.1816406 C85.1201172,13.7958984 84.8271484,13.5078125 84.2216797,13.5078125 C83.6601562,13.5078125 83.2939453,13.7617188 83.2304688,14.1572266 L82.078125,14.1572266 C82.1855469,13.2050781 82.9375,12.5556641 84.2607422,12.5556641 C85.5253906,12.5556641 86.3066406,13.1269531 86.3066406,14.0351562 C86.3066406,14.6015625 85.9501953,15.0361328 85.3740234,15.1679688 L85.3740234,15.2509766 C86.1210938,15.3974609 86.4775391,15.8222656 86.4775391,16.4277344 C86.4775391,17.4189453 85.6035156,18.1025391 84.2314453,18.1025391 Z M89.0068359,18 L87.8105469,18 L87.8105469,12.6630859 L89.0068359,12.6630859 L89.0068359,16.2373047 L89.0898438,16.2373047 L91.3652344,12.6630859 L92.5615234,12.6630859 L92.5615234,18 L91.3652344,18 L91.3652344,14.40625 L91.2822266,14.40625 L89.0068359,18 Z M98.2109375,12.6630859 L98.2109375,13.6103516 L96.5654297,13.6103516 L96.5654297,18 L95.3544922,18 L95.3544922,13.6103516 L93.7089844,13.6103516 L93.7089844,12.6630859 L98.2109375,12.6630859 Z M99.3583984,18 L99.3583984,12.6630859 L100.569336,12.6630859 L100.569336,14.2744141 L101.628906,14.2744141 C102.874023,14.2744141 103.669922,15.0019531 103.669922,16.1396484 C103.669922,17.2773438 102.874023,18 101.628906,18 L99.3583984,18 Z M101.482422,15.2119141 L100.569336,15.2119141 L100.569336,17.0576172 L101.482422,17.0576172 C102.083008,17.0576172 102.463867,16.6865234 102.463867,16.1347656 C102.463867,15.578125 102.078125,15.2119141 101.482422,15.2119141 Z M110.144531,18 L107.585938,18 L107.585938,12.6630859 L110.110352,12.6630859 C111.18457,12.6630859 111.814453,13.2050781 111.814453,14.0302734 C111.814453,14.5917969 111.428711,15.0849609 110.886719,15.1777344 L110.886719,15.2607422 C111.589844,15.3388672 112.053711,15.8271484 112.053711,16.4765625 C112.053711,17.3896484 111.331055,18 110.144531,18 Z M108.782227,13.5029297 L108.782227,14.8798828 L109.734375,14.8798828 C110.334961,14.8798828 110.62793,14.6357422 110.62793,14.1865234 C110.62793,13.7763672 110.369141,13.5029297 109.832031,13.5029297 L108.782227,13.5029297 Z M108.782227,15.6953125 L108.782227,17.1601562 L109.93457,17.1601562 C110.520508,17.1601562 110.828125,16.8867188 110.828125,16.4228516 C110.828125,15.9394531 110.486328,15.6953125 109.822266,15.6953125 L108.782227,15.6953125 Z" id="Загрузитьв" fill="#101D32"></path>
                        <path d="M61.1530225,34.3757783 L55.389913,34.3757783 L54.0059095,38.4047663 L51.5648855,38.4047663 L57.0236098,23.498549 L59.5597481,23.498549 L65.0184724,38.4047663 L62.5358206,38.4047663 L61.1530225,34.3757783 Z M55.9867882,32.5166064 L60.5550028,32.5166064 L58.3030264,25.977857 L58.2400065,25.977857 L55.9867882,32.5166064 Z M76.8074613,32.9714393 C76.8074613,36.3486614 74.9740147,38.5184656 72.2072009,38.5184656 C70.7770591,38.592222 69.4299437,37.8537125 68.7388765,36.6170766 L68.6865223,36.6170766 L68.6865223,42 L66.4238437,42 L66.4238437,27.5369359 L68.6140299,27.5369359 L68.6140299,29.3445278 L68.6556454,29.3445278 C69.377414,28.1156447 70.725982,27.3774531 72.1655854,27.4232247 C74.9632638,27.4232367 76.8074613,29.6035921 76.8074613,32.9714393 Z M74.4817627,32.9714393 C74.4817627,30.7711578 73.3284225,29.3246017 71.568698,29.3246017 C69.8398869,29.3246017 68.6770376,30.8016232 68.6770376,32.9714393 C68.6770376,35.1611816 69.8398869,36.6276519 71.568698,36.6276519 C73.3284347,36.6276519 74.4817627,35.191659 74.4817627,32.9714393 Z M88.9400646,32.9714393 C88.9400646,36.3486614 87.106618,38.5184656 84.3398043,38.5184656 C82.9096625,38.592222 81.562547,37.8537125 80.8714799,36.6170766 L80.8191256,36.6170766 L80.8191256,42 L78.556447,42 L78.556447,27.5369359 L80.7465845,27.5369359 L80.7465845,29.3445278 L80.7882001,29.3445278 C81.5099739,28.1156454 82.8585471,27.3774582 84.2981522,27.4232367 C87.0959158,27.4232367 88.9400646,29.6035921 88.9400646,32.9714393 Z M86.6143783,32.9714393 C86.6143783,30.7711578 85.4610258,29.3246017 83.7013014,29.3246017 C81.9724902,29.3246017 80.809641,30.8016232 80.809641,32.9714393 C80.809641,35.1611816 81.9724902,36.6276519 83.7013014,36.6276519 C85.461038,36.6276519 86.6143783,35.191659 86.6143783,32.9714393 L86.6143783,32.9714393 Z M96.958718,34.2515158 C97.1263734,35.7297137 98.582918,36.7002744 100.573293,36.7002744 C102.480462,36.7002744 103.85257,35.7296657 103.85257,34.3968208 C103.85257,33.2398184 103.02502,32.5470479 101.065545,32.0722768 L99.1060711,31.6068926 C96.3297484,30.9457518 95.0408592,29.6656633 95.0408592,27.5884559 C95.0408592,25.0165632 97.31424,23.25 100.54238,23.25 C103.737208,23.25 105.927382,25.0165632 106.001104,27.5884559 L103.716997,27.5884559 C103.580267,26.1008831 102.332994,25.2029569 100.510249,25.2029569 C98.6875048,25.2029569 97.4402434,26.1114464 97.4402434,27.433728 C97.4402434,28.4875704 98.2368806,29.1076825 100.185653,29.5823935 L101.851444,29.9856464 C104.953556,30.7089185 106.242445,31.937451 106.242445,34.1177824 C106.242445,36.9065342 103.989276,38.6531713 100.405614,38.6531713 C97.0526148,38.6531713 94.7887552,36.947563 94.6425041,34.2514078 L96.958718,34.2515158 Z M111.125711,24.9650433 L111.125711,27.5369359 L113.221927,27.5369359 L113.221927,29.3034991 L111.125711,29.3034991 L111.125711,35.294807 C111.125711,36.2255633 111.545434,36.6592937 112.466906,36.6592937 C112.715761,36.6550155 112.964213,36.6377862 113.211225,36.6076777 L113.211225,38.3636896 C112.79693,38.4400087 112.375835,38.4745734 111.954443,38.4668496 C109.72269,38.4668496 108.85233,37.6404176 108.85233,35.5327327 L108.85233,29.3034991 L107.249559,29.3034991 L107.249559,27.5369359 L108.852306,27.5369359 L108.852306,24.9650433 L111.125711,24.9650433 Z M114.43595,32.9714393 C114.43595,29.5520241 116.478655,27.4033105 119.664011,27.4033105 C122.860057,27.4033105 124.893253,29.5519761 124.893253,32.9714393 C124.893253,36.4002414 122.870759,38.5395681 119.664011,38.5395681 C116.458395,38.5395681 114.43595,36.4002294 114.43595,32.9714393 Z M122.587766,32.9714393 C122.587766,30.6257927 121.497445,29.2413799 119.663999,29.2413799 C117.830552,29.2413799 116.741425,30.636344 116.741425,32.9714393 C116.741425,35.3264608 117.830552,36.7003344 119.663999,36.7003344 C121.497445,36.7003344 122.587766,35.3264608 122.587766,32.9714393 L122.587766,32.9714393 Z M126.758745,27.5369359 L128.916801,27.5369359 L128.916801,29.3867089 L128.969155,29.3867089 C129.270102,28.1959261 130.376794,27.3763881 131.620631,27.4232127 C131.881384,27.4223151 132.141419,27.450234 132.395864,27.5064465 L132.395864,29.5930288 C132.066678,29.4938581 131.723281,29.4483255 131.379217,29.4582271 C130.714011,29.4316213 130.070239,29.6929895 129.616937,30.1737039 C129.163635,30.6544183 128.94609,31.3064525 129.021424,31.9586016 L129.021424,38.4047423 L126.758745,38.4047423 L126.758745,27.5369359 Z M142.828159,35.2127496 C142.523773,37.1856207 140.574989,38.5395561 138.081647,38.5395561 C134.874899,38.5395561 132.884512,36.4213199 132.884512,33.0230073 C132.884512,29.6141434 134.885602,27.4032985 137.986533,27.4032985 C141.036328,27.4032985 142.954198,29.4687783 142.954198,32.763943 L142.954198,33.5282438 L135.168595,33.5282438 L135.168595,33.6630455 C135.095904,34.4721341 135.37928,35.2730196 135.94664,35.8619826 C136.514,36.4509456 137.310661,36.7712203 138.133977,36.7413391 C139.232007,36.84277 140.267235,36.2211431 140.679637,35.2127376 L142.828159,35.2127496 Z M135.179275,31.9691769 L140.690327,31.9691769 C140.731389,31.2421446 140.462959,30.5311951 139.949709,30.0076031 C139.436458,29.4840111 138.724924,29.1952501 137.986533,29.2108904 C137.242301,29.2065118 136.527128,29.4954081 135.999975,30.0133669 C135.472822,30.5313257 135.177369,31.2354291 135.179275,31.9691769 L135.179275,31.9691769 Z" id="App-Store" fill="#000000"></path>
                        <path d="M37.5510825,25.5739047 C37.5843926,23.0071081 38.9398154,20.6361689 41.1424765,19.2917494 C39.7466045,17.3125553 37.4924269,16.1026914 35.0599545,16.0271336 C32.5007953,15.7604484 30.0198019,17.5474628 28.7157011,17.5474628 C27.3863629,17.5474628 25.3784948,16.0536114 23.2163524,16.0977765 C20.3715368,16.1890245 17.7836896,17.7558898 16.3996289,20.225102 C13.4522158,25.2913329 15.6507208,32.7369864 18.4740957,36.8321451 C19.8866899,38.8374279 21.5376071,41.0773803 23.6977988,40.9979467 C25.8116762,40.9109026 26.6011684,39.6597096 29.1527991,39.6597096 C31.6807469,39.6597096 32.4214559,40.9979467 34.6254778,40.947442 C36.8937667,40.9108874 38.3228964,38.9332475 39.6859302,36.9089763 C40.7008768,35.480139 41.4818766,33.9009627 42,32.2299427 C39.3059616,31.098704 37.5542269,28.4779288 37.5510825,25.5739047 L37.5510825,25.5739047 Z M33.1941243,13.5613919 C34.4924718,12.0092456 35.1321184,10.0142245 34.9772258,8 C32.9936394,8.20747236 31.1613613,9.15156077 29.8454733,10.6441554 C28.5460943,12.1168006 27.8878319,14.0434147 28.0156712,15.999653 C30.025855,16.0202644 31.9344822,15.1215923 33.1941243,13.5613919 L33.1941243,13.5613919 Z" id="Icon" fill="#000000"></path>
                    </g>
                </g>
            </g>
        </g>
    </g>
</svg>