<?xml version="1.0" encoding="UTF-8"?>
<svg width="164px" height="50px" viewBox="0 0 164 50" version="1.1" xmlns="http://www.w3.org/2000/svg" xmlns:xlink="http://www.w3.org/1999/xlink">
    <!-- Generator: Sketch 55.2 (78181) - https://sketchapp.com -->
    <title>Google Play Badge US</title>
    <desc>Created with Sketch.</desc>
    <defs>
        <linearGradient x1="61.5168141%" y1="4.9481245%" x2="25.4743542%" y2="71.9074222%" id="linearGradient-1">
            <stop stop-color="#00A0FF" offset="0%"></stop>
            <stop stop-color="#00A1FF" offset="1%"></stop>
            <stop stop-color="#00BEFF" offset="26%"></stop>
            <stop stop-color="#00D2FF" offset="51%"></stop>
            <stop stop-color="#00DFFF" offset="76%"></stop>
            <stop stop-color="#00E3FF" offset="100%"></stop>
        </linearGradient>
        <linearGradient x1="107.684729%" y1="50%" x2="-130.640394%" y2="50%" id="linearGradient-2">
            <stop stop-color="#FFE000" offset="0%"></stop>
            <stop stop-color="#FFBD00" offset="41%"></stop>
            <stop stop-color="#FFA500" offset="78%"></stop>
            <stop stop-color="#FF9C00" offset="100%"></stop>
        </linearGradient>
        <linearGradient x1="86.219293%" y1="31.7116291%" x2="-50.1497903%" y2="132.382292%" id="linearGradient-3">
            <stop stop-color="#FF3A44" offset="0%"></stop>
            <stop stop-color="#C31162" offset="100%"></stop>
        </linearGradient>
        <linearGradient x1="-18.7537448%" y1="-9.23910245%" x2="42.1210306%" y2="35.719752%" id="linearGradient-4">
            <stop stop-color="#32A071" offset="0%"></stop>
            <stop stop-color="#2DA771" offset="7%"></stop>
            <stop stop-color="#15CF74" offset="48%"></stop>
            <stop stop-color="#06E775" offset="80%"></stop>
            <stop stop-color="#00F076" offset="100%"></stop>
        </linearGradient>
    </defs>
    <g id="лендинг-страшные-истории" stroke="none" stroke-width="1" fill="none" fill-rule="evenodd">
        <g id="LP_VZ_320_read_step3" transform="translate(-79.000000, -322.000000)" fill-rule="nonzero">
            <g id="scach" transform="translate(-2.000000, 0.000000)">
                <g id="donload" transform="translate(81.000000, 262.000000)">
                    <g id="Google-Play-Badge-US" transform="translate(0.000000, 60.000000)">
                        <rect id="Background-Black" fill="#FFFFFF" x="0" y="0" width="164" height="50" rx="6.103125"></rect>
                        <path d="M110.883848,16 L110.883848,8.890625 L113.374082,8.890625 C114.236717,8.890625 114.891007,9.05582517 115.336973,9.38623047 C115.782938,9.71663577 116.005918,10.2008432 116.005918,10.8388672 C116.005918,11.1871762 115.916401,11.4939765 115.737363,11.7592773 C115.558326,12.0245781 115.309305,12.2190749 114.990293,12.3427734 C115.354878,12.4339197 115.642147,12.6178372 115.852109,12.8945312 C116.062071,13.1712253 116.167051,13.5097636 116.167051,13.9101562 C116.167051,14.5937534 115.948954,15.1113264 115.512754,15.4628906 C115.076554,15.8144549 114.454815,15.9934896 113.64752,16 L110.883848,16 Z M112.348691,12.9042969 L112.348691,14.8232422 L113.603574,14.8232422 C113.948628,14.8232422 114.217994,14.741049 114.41168,14.5766602 C114.605366,14.4122713 114.702207,14.1852228 114.702207,13.8955078 C114.702207,13.2444629 114.365296,12.9140625 113.691465,12.9042969 L112.348691,12.9042969 Z M112.348691,11.8691406 L113.432676,11.8691406 C114.171612,11.8561197 114.541074,11.5615263 114.541074,10.9853516 C114.541074,10.6630843 114.447488,10.4311531 114.260313,10.2895508 C114.073137,10.1479485 113.77773,10.0771484 113.374082,10.0771484 L112.348691,10.0771484 L112.348691,11.8691406 Z" id="В" fill="#000000"></path>
                        <path d="M59.2265625,17.7480469 L57.8740234,17.7480469 L57.8740234,16 L53.5869141,16 L53.5869141,17.7431641 L52.2001953,17.7431641 L52.1220703,14.8232422 L52.6591797,14.8232422 C52.9488947,14.5823556 53.172688,14.2283552 53.3305664,13.7612305 C53.4884448,13.2941057 53.5950518,12.7154982 53.6503906,12.0253906 L53.8554688,8.890625 L58.5136719,8.890625 L58.5136719,14.8232422 L59.34375,14.8232422 L59.2265625,17.7480469 Z M54.3388672,14.8232422 L57.0488281,14.8232422 L57.0488281,10.0771484 L55.2470703,10.0771484 L55.125,11.9472656 C55.0273433,13.2005271 54.7653016,14.1591764 54.3388672,14.8232422 Z M65.9501953,12.6064453 C65.9501953,13.3063186 65.8264986,13.9199192 65.5791016,14.4472656 C65.3317045,14.974612 64.9777041,15.381509 64.5170898,15.6679688 C64.0564756,15.9544285 63.5283233,16.0976562 62.9326172,16.0976562 C62.3434215,16.0976562 61.8177106,15.9560561 61.3554688,15.6728516 C60.8932269,15.389647 60.5351575,14.9851914 60.28125,14.4594727 C60.0273425,13.9337539 59.898763,13.329105 59.8955078,12.6455078 L59.8955078,12.2939453 C59.8955078,11.594072 60.0216459,10.97803 60.2739258,10.4458008 C60.5262057,9.91357156 60.8826474,9.505047 61.3432617,9.22021484 C61.803876,8.93538269 62.3304007,8.79296875 62.9228516,8.79296875 C63.5153024,8.79296875 64.0418271,8.93538269 64.5024414,9.22021484 C64.9630557,9.505047 65.3194974,9.91357156 65.5717773,10.4458008 C65.8240573,10.97803 65.9501953,11.5924444 65.9501953,12.2890625 L65.9501953,12.6064453 Z M64.4658203,12.2841797 C64.4658203,11.5387333 64.3323581,10.9723327 64.0654297,10.5849609 C63.7985013,10.1975892 63.4176457,10.0039062 62.9228516,10.0039062 C62.4313126,10.0039062 62.0520847,10.1951478 61.7851562,10.5776367 C61.5182278,10.9601256 61.383138,11.5208296 61.3798828,12.2597656 L61.3798828,12.6064453 C61.3798828,13.3323604 61.513345,13.8955058 61.7802734,14.2958984 C62.0472019,14.6962911 62.4313126,14.8964844 62.9326172,14.8964844 C63.4241561,14.8964844 63.8017565,14.7036152 64.0654297,14.3178711 C64.3291029,13.932127 64.4625651,13.3697954 64.4658203,12.6308594 L64.4658203,12.2841797 Z M72.5957031,13.6318359 C72.5403643,14.3968137 72.2579778,14.9990212 71.7485352,15.4384766 C71.2390925,15.8779319 70.5677125,16.0976562 69.734375,16.0976562 C68.8229121,16.0976562 68.1059596,15.7908559 67.5834961,15.1772461 C67.0610325,14.5636363 66.7998047,13.7213595 66.7998047,12.6503906 L66.7998047,12.2158203 C66.7998047,11.5322231 66.9202462,10.9300156 67.1611328,10.4091797 C67.4020194,9.88834375 67.7462543,9.48877092 68.1938477,9.21044922 C68.641441,8.93212751 69.1614554,8.79296875 69.7539062,8.79296875 C70.5742229,8.79296875 71.2350235,9.01269312 71.7363281,9.45214844 C72.2376327,9.89160376 72.5273434,10.5084596 72.6054688,11.3027344 L71.140625,11.3027344 C71.1048175,10.8437477 70.9770519,10.510906 70.7573242,10.3041992 C70.5375966,10.0974925 70.2031272,9.99414062 69.7539062,9.99414062 C69.2656226,9.99414062 68.9002291,10.1691063 68.6577148,10.519043 C68.4152006,10.8689796 68.2906901,11.4117802 68.2841797,12.1474609 L68.2841797,12.6845703 C68.2841797,13.4528033 68.4005522,14.0143211 68.6333008,14.3691406 C68.8660493,14.7239601 69.2330704,14.9013672 69.734375,14.9013672 C70.1868512,14.9013672 70.5245757,14.7980154 70.7475586,14.5913086 C70.9705415,14.3846018 71.0983071,14.0647808 71.1308594,13.6318359 L72.5957031,13.6318359 Z M78.9091797,10.0771484 L76.7314453,10.0771484 L76.7314453,16 L75.2666016,16 L75.2666016,10.0771484 L73.1181641,10.0771484 L73.1181641,8.890625 L78.9091797,8.890625 L78.9091797,10.0771484 Z M82.4101562,12.25 L83.7041016,8.890625 L85.2861328,8.890625 L82.8007812,14.7548828 L82.6005859,15.140625 C82.2327456,15.7819042 81.6696001,16.1025391 80.9111328,16.1025391 L80.3984375,16.0830078 L80.3837891,14.90625 C80.4619145,14.9192709 80.5888663,14.9257812 80.7646484,14.9257812 C80.9697276,14.9257812 81.1349278,14.8899743 81.2602539,14.8183594 C81.3855801,14.7467444 81.4905595,14.6149098 81.5751953,14.4228516 L81.7558594,13.9589844 L79.2607422,8.890625 L80.8378906,8.890625 L82.4101562,12.25 Z M91.8486328,16 L90.3789062,16 L90.3789062,10.0771484 L87.5322266,10.0771484 L87.5322266,16 L86.0673828,16 L86.0673828,8.890625 L91.8486328,8.890625 L91.8486328,16 Z M98.9189453,16 L97.4541016,16 L97.4541016,12.953125 L94.5976562,12.953125 L94.5976562,16 L93.1328125,16 L93.1328125,8.890625 L94.5976562,8.890625 L94.5976562,11.7714844 L97.4541016,11.7714844 L97.4541016,8.890625 L98.9189453,8.890625 L98.9189453,16 Z M106.038086,12.6064453 C106.038086,13.3063186 105.914389,13.9199192 105.666992,14.4472656 C105.419595,14.974612 105.065595,15.381509 104.60498,15.6679688 C104.144366,15.9544285 103.616214,16.0976562 103.020508,16.0976562 C102.431312,16.0976562 101.905601,15.9560561 101.443359,15.6728516 C100.981117,15.389647 100.623048,14.9851914 100.369141,14.4594727 C100.115233,13.9337539 99.9866537,13.329105 99.9833984,12.6455078 L99.9833984,12.2939453 C99.9833984,11.594072 100.109536,10.97803 100.361816,10.4458008 C100.614096,9.91357156 100.970538,9.505047 101.431152,9.22021484 C101.891767,8.93538269 102.418291,8.79296875 103.010742,8.79296875 C103.603193,8.79296875 104.129718,8.93538269 104.590332,9.22021484 C105.050946,9.505047 105.407388,9.91357156 105.659668,10.4458008 C105.911948,10.97803 106.038086,11.5924444 106.038086,12.2890625 L106.038086,12.6064453 Z M104.553711,12.2841797 C104.553711,11.5387333 104.420249,10.9723327 104.15332,10.5849609 C103.886392,10.1975892 103.505536,10.0039062 103.010742,10.0039062 C102.519203,10.0039062 102.139975,10.1951478 101.873047,10.5776367 C101.606118,10.9601256 101.471029,11.5208296 101.467773,12.2597656 L101.467773,12.6064453 C101.467773,13.3323604 101.601236,13.8955058 101.868164,14.2958984 C102.135092,14.6962911 102.519203,14.8964844 103.020508,14.8964844 C103.512047,14.8964844 103.889647,14.7036152 104.15332,14.3178711 C104.416994,13.932127 104.550456,13.3697954 104.553711,12.6308594 L104.553711,12.2841797 Z" id="ДОСТУПНОНА" fill="#000000"></path>
                        <path d="M84.4258741,27.8424423 C81.5623297,27.8554188 79.2506199,30.0990287 79.2595671,32.8565315 C79.2685663,35.6140344 81.5948325,37.843649 84.4584052,37.8393501 C87.3219779,37.8350387 89.6410029,35.5984402 89.6410346,32.8409238 C89.6611539,31.5052987 89.1173587,30.2190258 88.1342015,29.2767167 C87.1510443,28.3344076 85.8127604,27.8167979 84.4258741,27.8424423 L84.4258741,27.8424423 Z M84.4258741,35.8752961 C83.1351859,35.962217 81.9204878,35.2805514 81.3627567,34.1563325 C80.8050257,33.0321135 81.0176212,31.6938403 81.8988613,30.7815941 C82.7801013,29.869348 84.1508726,29.5685442 85.3555502,30.023054 C86.5602278,30.4775638 87.3539594,31.5950074 87.3571119,32.8409238 C87.396858,33.620301 87.1079966,34.3820941 86.5560783,34.9534315 C86.00416,35.5247689 85.2359853,35.8572032 84.4258741,35.8752961 L84.4258741,35.8752961 Z M73.0551144,27.8424423 C70.1899511,27.8489341 67.8721091,30.089697 67.8765943,32.8487461 C67.8810926,35.6077951 70.2062191,37.8415488 73.0713895,37.8393915 C75.93656,37.8372311 78.2580535,35.5999762 78.2580614,32.8409238 C78.2781807,31.5052987 77.7343855,30.2190258 76.7512283,29.2767167 C75.7680711,28.3344076 74.4297872,27.8167979 73.0429009,27.8424423 L73.0551144,27.8424423 Z M73.0551144,35.8752961 C71.7637524,35.9671188 70.5455127,35.2888522 69.9838511,34.165341 C69.4221896,33.0418297 69.6314565,31.7018128 70.5114271,30.7870694 C71.3913976,29.8723259 72.7629159,29.5690913 73.9691157,30.0225948 C75.1753155,30.4760983 75.970623,31.5940097 75.9741387,32.8409238 C76.0138848,33.620301 75.7250234,34.3820941 75.1731051,34.9534315 C74.6211868,35.5247689 73.8530121,35.8572032 73.0429009,35.8752961 L73.0551144,35.8752961 Z M59.5103534,29.3831507 L59.5103534,31.5001546 L64.7865813,31.5001546 C64.7038513,32.4972679 64.273425,33.4381476 63.5652323,34.1699318 C62.4978011,35.2169368 61.0206043,35.7808048 59.4981399,35.7224014 C56.2603841,35.7224014 53.6356645,33.1948948 53.6356645,30.0770575 C53.6356645,26.9592202 56.2603841,24.4317137 59.4981399,24.4317137 C60.9854936,24.4083547 62.4217588,24.9539693 63.4919513,25.9488998 L65.0430646,24.455236 C63.5834543,23.031972 61.5875242,22.2385613 59.5103534,22.2559041 C56.5534194,22.1450895 53.7704935,23.6009917 52.2578045,26.0501127 C50.7451154,28.4992337 50.7451154,31.5490311 52.2578045,33.9981521 C53.7704935,36.4472732 56.5534194,37.9031753 59.5103534,37.7923608 C61.625443,37.8843967 63.6785011,37.0910164 65.1407726,35.6165512 C66.4203503,34.2627525 67.1035331,32.4831045 67.0460771,30.653353 C67.0500182,30.2075922 67.0091156,29.7625117 66.9239422,29.324345 L59.5103534,29.3831507 Z M114.849679,31.0297093 C114.197576,29.1822824 112.428877,27.9142476 110.403969,27.8424332 C109.053601,27.8398999 107.762368,28.3757009 106.836871,29.3226203 C105.911375,30.2695397 105.434172,31.5431099 105.518572,32.8409238 C105.488577,34.169104 106.020748,35.4519286 106.992804,36.3946372 C107.964861,37.3373458 109.293223,37.8588803 110.672665,37.8394053 C112.408029,37.8484131 114.032161,37.0178261 114.996241,35.6283123 L113.225285,34.452199 C112.687581,35.3153981 111.717965,35.8425613 110.672665,35.8400127 C109.590051,35.8797478 108.59227,35.2780656 108.156686,34.3228265 L115.106162,31.5589603 L114.849679,31.0297093 Z M107.765855,32.6997902 C107.715843,31.9649126 107.975103,31.2415802 108.485188,30.69286 C108.995274,30.1441398 109.713247,29.8162211 110.47725,29.7830292 C111.28257,29.731929 112.041879,30.1484271 112.406981,30.8415312 L107.765855,32.6997902 Z M102.123222,37.545377 L104.407145,37.545377 L104.407145,22.8439607 L102.123222,22.8439607 L102.123222,37.545377 Z M98.3858938,28.9597499 L98.3003994,28.9597499 C97.6041842,28.2101856 96.6089008,27.7823193 95.5645775,27.7836336 C92.7922946,27.9130933 90.6136402,30.1152572 90.6136402,32.7879987 C90.6136402,35.4607401 92.7922946,37.662904 95.5645775,37.7923608 C96.6122861,37.8093247 97.6140207,37.3786851 98.3003994,36.6162475 L98.3736804,36.6162475 L98.3736804,37.3336766 C98.3736804,39.2507413 97.3111067,40.2739598 95.601218,40.2739598 C94.4364211,40.2477059 93.403679,39.545985 92.987531,38.4980287 L90.9967321,39.2977858 C91.7633504,41.0934885 93.5850527,42.2614247 95.601218,42.2499157 C98.2759724,42.2499157 100.486614,40.732644 100.486614,37.0396483 L100.486614,28.1364706 L98.3858938,28.1364706 L98.3858938,28.9597499 Z M95.7722069,35.8752961 C94.1391259,35.7367027 92.8866187,34.4196148 92.8866187,32.8409238 C92.8866187,31.2622327 94.1391259,29.9451449 95.7722069,29.8065515 C96.5613444,29.8455485 97.300708,30.1896941 97.8226685,30.7609633 C98.344629,31.3322325 98.6049709,32.0822329 98.5446692,32.8409238 C98.6120081,33.6031033 98.3524991,34.358617 97.8264797,34.9318035 C97.3004603,35.5049901 96.5537609,35.8459095 95.7599934,35.8752961 L95.7722069,35.8752961 Z M125.548697,22.8439607 L120.089267,22.8439607 L120.089267,37.545377 L122.373189,37.545377 L122.373189,31.9705999 L125.56091,31.9705999 C127.335144,32.0933436 129.031953,31.2514172 129.957926,29.788878 C130.883899,28.3263388 130.883899,26.4882219 129.957926,25.0256827 C129.031953,23.5631435 127.335144,22.7212171 125.56091,22.8439607 L125.548697,22.8439607 Z M125.548697,29.9006405 L122.360976,29.9006405 L122.360976,24.8903979 L125.597551,24.8903979 C127.044423,24.8903979 128.217345,26.0198774 128.217345,27.4131609 C128.217345,28.8064444 127.044423,29.9359239 125.597551,29.9359239 L125.548697,29.9006405 Z M139.630851,27.7836366 C137.931604,27.6858298 136.334048,28.5682077 135.563759,30.030013 L137.591199,30.8415312 C137.999625,30.1166551 138.813921,29.6922986 139.667492,29.7595069 C140.253163,29.6936383 140.841762,29.8570892 141.301081,30.2131458 C141.760399,30.5692025 142.05193,31.088015 142.11019,31.6530493 L142.11019,31.8059441 C141.376639,31.431939 140.558579,31.2380286 139.728559,31.2414097 C137.542345,31.2414097 135.331703,32.417523 135.331703,34.5462881 C135.37529,35.4633139 135.802216,36.3243709 136.51535,36.9335597 C137.228485,37.5427486 138.167185,37.8482645 139.117885,37.7805996 C140.289438,37.861614 141.413495,37.320402 142.049123,36.3692637 L142.122404,36.3692637 L142.122404,37.545377 L144.320832,37.545377 L144.320832,31.888272 C144.320832,29.3125839 142.293392,27.81892 139.691919,27.81892 L139.630851,27.7836366 Z M139.349941,35.8400127 C138.604918,35.8400127 137.566772,35.4754176 137.566772,34.5933326 C137.566772,33.4172193 138.861402,33.0291019 140.00947,33.0291019 C140.735002,33.0118623 141.452043,33.1824523 142.085763,33.5230695 C141.927838,34.8396284 140.786887,35.8430006 139.411009,35.8752961 L139.349941,35.8400127 Z M152.332882,28.1364706 L149.719195,34.5110047 L149.645914,34.5110047 L146.934519,28.1364706 L144.491821,28.1364706 L148.558913,37.0514094 L146.23835,42.0028464 L148.619981,42.0028464 L154.873288,28.1364706 L152.332882,28.1364706 Z M131.802004,37.545377 L134.085927,37.545377 L134.085927,22.8439607 L131.802004,22.8439607 L131.802004,37.545377 Z" id="Google-Play" fill="#000000"></path>
                        <g id="Icon" transform="translate(13.000000, 8.750000)">
                            <path d="M0.996756757,0.66347561 C0.587625081,1.1440142 0.381121399,1.75918705 0.419339339,2.38359756 L0.419339339,29.5615244 C0.381121399,30.1859349 0.587625081,30.8011077 0.996756757,31.2816463 L1.08462462,31.3676524 L16.6372372,16.1568598 L16.6372372,15.8005488 L1.08462462,0.577469512 L0.996756757,0.66347561 Z" id="Shape" fill="url(#linearGradient-1)"></path>
                            <path d="M21.7837838,21.2312195 L16.6372372,16.1568598 L16.6372372,15.8005488 L21.7837838,10.7139024 L21.8967568,10.7753354 L28.0600601,14.2032927 C29.8174174,15.1739329 29.8174174,16.771189 28.0600601,17.7541159 L21.9218619,21.1697866 L21.7837838,21.2312195 Z" id="Shape" fill="url(#linearGradient-2)"></path>
                            <path d="M21.9344144,21.1575 L16.6372372,15.972561 L0.996756757,31.2816463 C1.73574778,31.9175047 2.8324784,31.9484708 3.60768769,31.3553659 L21.946967,21.1575" id="Shape" fill="url(#linearGradient-3)"></path>
                            <path d="M21.9344144,10.787622 L3.59513514,0.589756098 C2.81992584,-0.00334884288 1.72319523,0.0276172945 0.984204204,0.66347561 L16.6372372,15.972561 L21.9344144,10.787622 Z" id="Shape" fill="url(#linearGradient-4)"></path>
                            <path d="M21.7837838,21.0469207 L3.59513514,31.1833537 C2.85081714,31.7280628 1.82894262,31.7280628 1.08462462,31.1833537 L0.996756757,31.2693598 L1.08462462,31.3553659 C1.82754216,31.9041821 2.8522176,31.9041821 3.59513514,31.3553659 L21.9344144,21.1575 L21.7837838,21.0469207 Z" id="Shape" fill="#000000" opacity="0.2"></path>
                            <path d="M0.996756757,31.1096341 C0.587625081,30.6290956 0.381121399,30.0139227 0.419339339,29.3895122 L0.419339339,29.573811 C0.381121399,30.1982215 0.587625081,30.8133943 0.996756757,31.2939329 L1.08462462,31.2079268 L0.996756757,31.1096341 Z M28.0600601,17.5698171 L21.7837838,21.0469207 L21.8967568,21.1575 L28.0600601,17.7418293 C28.7718778,17.4145308 29.25063,16.739735 29.3153153,15.972561 C29.1722532,16.6665539 28.7086579,17.2564582 28.0600601,17.5698171 Z" id="Shape" fill="#000000" opacity="0.12"></path>
                            <path d="M3.59513514,0.761768293 L28.0600601,14.3753049 C28.7086579,14.6886637 29.1722532,15.278568 29.3153153,15.972561 C29.25063,15.205387 28.7718778,14.5305911 28.0600601,14.2032927 L3.59513514,0.589756098 C1.83777778,-0.380884146 0.406786787,0.430030488 0.406786787,2.39588415 L0.406786787,2.58018293 C0.444444444,0.602042683 1.85033033,-0.208871951 3.59513514,0.761768293 L3.59513514,0.761768293 Z" id="Shape" fill="#FFFFFF" opacity="0.25"></path>
                        </g>
                    </g>
                </g>
            </g>
        </g>
    </g>
</svg>