<?xml version="1.0" encoding="UTF-8"?>
<svg width="243px" height="68px" viewBox="0 0 243 68" version="1.1" xmlns="http://www.w3.org/2000/svg" xmlns:xlink="http://www.w3.org/1999/xlink">
    <!-- Generator: sketchtool 55.2 (78181) - https://sketchapp.com -->
    <title>2820DDF0-D772-4494-B742-66C7E901314D</title>
    <desc>Created with sketchtool.</desc>
    <g id="лендинг-страшные-истории" stroke="none" stroke-width="1" fill="none" fill-rule="evenodd">
        <g id="LP_VZ_1920_main" transform="translate(-946.000000, -20.000000)">
            <g id="header" transform="translate(-450.000000, 0.000000)">
                <g id="logo" transform="translate(1396.000000, 20.000000)">
                    <g id="Group-12">
                        <g id="Group">
                            <path d="M34,0 C15.2223774,0 0,15.2223774 0,34 C0,41.4755094 2.41913208,48.3839245 6.50811321,53.9958491 C6.49913208,54.0362642 6.4869434,54.0766792 6.47924528,54.1164528 L4.50596226,64.5615094 C4.1614717,66.3833962 5.36045283,67.5426038 7.17015094,67.1371698 L17.5420755,64.8136226 C17.9353208,64.7257358 18.324717,64.567283 18.6993585,64.3600755 C23.2996226,66.6829811 28.494566,68 34,68 C52.7776226,68 68,52.7782642 68,34 C68,15.2223774 52.7776226,0 34,0" id="Fill-1" fill="#FFFFFE"></path>
                            <path d="M55.0743802,34.0003202 C55.0743802,45.6394669 45.6389699,55.0743802 34,55.0743802 C22.3610301,55.0743802 12.9256198,45.6394669 12.9256198,34.0003202 C12.9256198,22.3611735 22.3610301,12.9256198 34,12.9256198 C45.6389699,12.9256198 55.0743802,22.3611735 55.0743802,34.0003202" id="Fill-4" fill="#24ADC1"></path>
                            <path d="M48.3305785,33.7193302 C48.3305785,41.4788403 42.0403241,47.768595 34.2809917,47.768595 C26.5216594,47.768595 20.231405,41.4788403 20.231405,33.7193302 C20.231405,25.95982 26.5216594,19.6694215 34.2809917,19.6694215 C42.0403241,19.6694215 48.3305785,25.95982 48.3305785,33.7193302" id="Fill-5" fill="#171A1D"></path>
                            <path d="M54.5123967,21.9176756 C54.5123967,26.5732989 50.7379477,30.3471074 46.0823244,30.3471074 C41.4267011,30.3471074 37.6528926,26.5732989 37.6528926,21.9176756 C37.6528926,17.2620523 41.4267011,13.4876033 46.0823244,13.4876033 C50.7379477,13.4876033 54.5123967,17.2620523 54.5123967,21.9176756" id="Fill-6" fill="#FFFFFE"></path>
                        </g>
                        <path d="M100.483887,42 L93.8310547,42 L93.8310547,24.3852539 L100.508301,24.3852539 C103.523438,24.3852539 105.562012,26.1430664 105.562012,28.7797852 C105.562012,30.6108398 104.219238,32.3198242 102.522461,32.625 L102.522461,32.7226562 C104.915039,33.027832 106.453125,34.7124023 106.453125,37.0561523 C106.453125,40.1567383 104.231445,42 100.483887,42 Z M96.0283203,26.3261719 L96.0283203,31.9780273 L99.3242188,31.9780273 C101.924316,31.9780273 103.340332,30.9404297 103.340332,29.0361328 C103.340332,27.2905273 102.144043,26.3261719 100.007812,26.3261719 L96.0283203,26.3261719 Z M96.0283203,40.059082 L100.154297,40.059082 C102.803223,40.059082 104.194824,38.9848633 104.194824,36.9462891 C104.194824,34.9077148 102.754395,33.8701172 99.9467773,33.8701172 L96.0283203,33.8701172 L96.0283203,40.059082 Z M119.59259,33.9799805 L119.59259,32.0268555 L121.972962,32.0268555 C124.121399,32.0268555 125.635071,30.7207031 125.635071,28.8774414 C125.635071,27.0585938 124.292297,25.9233398 122.131653,25.9233398 C119.946594,25.9233398 118.530579,27.0463867 118.347473,28.9018555 L116.211243,28.9018555 C116.430969,25.8500977 118.713684,23.9702148 122.217102,23.9702148 C125.513001,23.9702148 127.868958,25.9355469 127.868958,28.6821289 C127.868958,30.6352539 126.538391,32.2954102 124.597473,32.7714844 L124.597473,32.8691406 C126.941223,33.1743164 128.381653,34.8588867 128.381653,37.2514648 C128.381653,40.1567383 125.659485,42.4150391 122.180481,42.4150391 C118.469544,42.4150391 115.89386,40.4130859 115.735169,37.4101562 L117.859192,37.4101562 C118.054505,39.265625 119.739075,40.4619141 122.156067,40.4619141 C124.512024,40.4619141 126.123352,39.1313477 126.123352,37.1904297 C126.123352,35.1762695 124.60968,33.9799805 122.070618,33.9799805 L119.59259,33.9799805 Z M150.041626,42 L148.271607,36.9584961 L141.264771,36.9584961 L139.494751,42 L137.187622,42 L143.681763,24.3852539 L145.854614,24.3852539 L152.348755,42 L150.041626,42 Z M144.731568,27.0585938 L141.911743,35.0908203 L147.624634,35.0908203 L144.80481,27.0585938 L144.731568,27.0585938 Z M160.299373,42 L166.293025,33.1743164 L166.293025,33.0888672 L160.372615,24.3852539 L163.021541,24.3852539 L167.721248,31.465332 L167.806697,31.465332 L172.567439,24.3852539 L175.069881,24.3852539 L168.990779,33.1987305 L168.990779,33.2719727 L174.935603,42 L172.298885,42 L167.623592,34.980957 L167.538143,34.980957 L162.789607,42 L160.299373,42 Z M197.620108,42 L195.422842,42 L195.422842,26.362793 L188.989737,26.362793 L188.428214,35.4082031 C188.135245,40.0957031 186.780264,42.1098633 183.936026,42.1098633 C183.618643,42.1098633 183.30126,42.0610352 183.081534,41.987793 L183.081534,40.0224609 C183.215811,40.059082 183.545401,40.0957031 183.740714,40.0957031 C185.413077,40.0957031 186.157706,38.7285156 186.353018,35.3227539 L186.987784,24.3852539 L197.620108,24.3852539 L197.620108,42 Z M211.919241,22.3710938 C211.18682,22.3710938 210.588675,21.7729492 210.588675,21.0405273 C210.588675,20.2958984 211.18682,19.7099609 211.919241,19.7099609 C212.66387,19.7099609 213.249808,20.2958984 213.249808,21.0405273 C213.249808,21.7729492 212.66387,22.3710938 211.919241,22.3710938 Z M216.484671,22.3710938 C215.752249,22.3710938 215.154105,21.7729492 215.154105,21.0405273 C215.154105,20.2958984 215.752249,19.7099609 216.484671,19.7099609 C217.2293,19.7099609 217.815238,20.2958984 217.815238,21.0405273 C217.815238,21.7729492 217.2293,22.3710938 216.484671,22.3710938 Z M219.658499,40.0224609 L219.658499,42 L208.745413,42 L208.745413,24.3852539 L219.658499,24.3852539 L219.658499,26.362793 L210.942679,26.362793 L210.942679,32.0146484 L219.206839,32.0146484 L219.206839,33.9677734 L210.942679,33.9677734 L210.942679,40.0224609 L219.658499,40.0224609 Z M242.307242,36.7143555 C242.307242,39.8271484 239.975699,42 236.667594,42 L230.258902,42 L230.258902,24.3852539 L240.54943,24.3852539 L240.54943,26.362793 L232.456168,26.362793 L232.456168,31.4042969 L236.64318,31.4042969 C239.951285,31.4042969 242.307242,33.5893555 242.307242,36.7143555 Z M232.456168,40.0224609 L236.093863,40.0224609 C238.620719,40.0224609 240.048941,38.8383789 240.048941,36.7143555 C240.048941,34.578125 238.608512,33.3818359 236.093863,33.3818359 L232.456168,33.3818359 L232.456168,40.0224609 Z" id="ВЗАХЛЁБ" fill="#FFFFFF" fill-rule="nonzero"></path>
                    </g>
                </g>
            </g>
        </g>
    </g>
</svg>