<svg width="112" height="112" viewBox="0 0 112 112" fill="none" xmlns="http://www.w3.org/2000/svg">
<circle cx="56" cy="56" r="56" fill="#F7F8FA"/>
<path d="M75.25 68.25C75.25 69.1783 74.8813 70.0685 74.2249 70.7249C73.5685 71.3813 72.6783 71.75 71.75 71.75H40.25C39.3217 71.75 38.4315 71.3813 37.7751 70.7249C37.1187 70.0685 36.75 69.1783 36.75 68.25V49C36.75 48.0717 37.1187 47.1815 37.7751 46.5251C38.4315 45.8687 39.3217 45.5 40.25 45.5H47.25L50.75 40.25H61.25L64.75 45.5H71.75C72.6783 45.5 73.5685 45.8687 74.2249 46.5251C74.8813 47.1815 75.25 48.0717 75.25 49V68.25Z" stroke="#818C9C" stroke-width="3.5" stroke-linecap="round" stroke-linejoin="round"/>
<path d="M56 64.75C59.866 64.75 63 61.616 63 57.75C63 53.884 59.866 50.75 56 50.75C52.134 50.75 49 53.884 49 57.75C49 61.616 52.134 64.75 56 64.75Z" stroke="#818C9C" stroke-width="3.5" stroke-linecap="round" stroke-linejoin="round"/>
</svg>
