<svg width="32" height="32" viewBox="0 0 32 32" fill="none" xmlns="http://www.w3.org/2000/svg">
<circle cx="16" cy="16" r="16" fill="#F7F8FA"/>
<path d="M21.8933 11.0734C21.5528 10.7327 21.1485 10.4625 20.7035 10.2781C20.2585 10.0937 19.7816 9.99884 19.2999 9.99884C18.8183 9.99884 18.3413 10.0937 17.8964 10.2781C17.4514 10.4625 17.0471 10.7327 16.7066 11.0734L15.9999 11.7801L15.2933 11.0734C14.6055 10.3856 13.6726 9.9992 12.6999 9.9992C11.7272 9.9992 10.7944 10.3856 10.1066 11.0734C9.41881 11.7612 9.03241 12.694 9.03241 13.6667C9.03241 14.6394 9.41881 15.5723 10.1066 16.2601L10.8133 16.9667L15.9999 22.1534L21.1866 16.9667L21.8933 16.2601C22.2339 15.9196 22.5042 15.5153 22.6885 15.0703C22.8729 14.6253 22.9678 14.1484 22.9678 13.6667C22.9678 13.1851 22.8729 12.7081 22.6885 12.2632C22.5042 11.8182 22.2339 11.4139 21.8933 11.0734V11.0734Z" stroke="black" stroke-width="1.5" stroke-linecap="round" stroke-linejoin="round"/>
</svg>
