<svg width="32" height="32" viewBox="0 0 32 32" fill="none" xmlns="http://www.w3.org/2000/svg">
<circle opacity="0.08" cx="16" cy="16" r="16" fill="#008DFF"/>
<path d="M21.3333 12.6666H10.6667C9.93029 12.6666 9.33333 13.2636 9.33333 14V20.6666C9.33333 21.403 9.93029 22 10.6667 22H21.3333C22.0697 22 22.6667 21.403 22.6667 20.6666V14C22.6667 13.2636 22.0697 12.6666 21.3333 12.6666Z" stroke="#008DFF" stroke-width="1.5" stroke-linecap="round" stroke-linejoin="round"/>
<path d="M18.6667 22V11.3333C18.6667 10.9797 18.5262 10.6406 18.2761 10.3905C18.0261 10.1405 17.687 10 17.3333 10H14.6667C14.313 10 13.9739 10.1405 13.7239 10.3905C13.4738 10.6406 13.3333 10.9797 13.3333 11.3333V22" stroke="#008DFF" stroke-width="1.5" stroke-linecap="round" stroke-linejoin="round"/>
</svg>
