<svg width="32" height="32" viewBox="0 0 32 32" fill="none" xmlns="http://www.w3.org/2000/svg">
<circle cx="16" cy="16" r="16" fill="#F7F8FA"/>
<path d="M9.33331 10.6667H13.3333C14.0406 10.6667 14.7188 10.9476 15.2189 11.4477C15.719 11.9478 16 12.6261 16 13.3333V22.6667C16 22.1362 15.7893 21.6275 15.4142 21.2524C15.0391 20.8774 14.5304 20.6667 14 20.6667H9.33331V10.6667Z" stroke="black" stroke-width="1.5" stroke-linecap="round" stroke-linejoin="round"/>
<path d="M22.6667 10.6667H18.6667C17.9594 10.6667 17.2811 10.9476 16.781 11.4477C16.281 11.9478 16 12.6261 16 13.3333V22.6667C16 22.1362 16.2107 21.6275 16.5858 21.2524C16.9609 20.8774 17.4696 20.6667 18 20.6667H22.6667V10.6667Z" stroke="black" stroke-width="1.5" stroke-linecap="round" stroke-linejoin="round"/>
</svg>
