<svg width="32" height="32" viewBox="0 0 32 32" fill="none" xmlns="http://www.w3.org/2000/svg">
<circle cx="16" cy="16" r="16" fill="#F7F8FA"/>
<path d="M9.41741 17.3003C8.95286 16.4956 8.95286 15.5043 9.41741 14.6997L11.5826 10.9494C12.0472 10.1448 12.9057 9.64913 13.8348 9.64913H18.1652C19.0943 9.64913 19.9529 10.1448 20.4174 10.9494L22.5826 14.6997C23.0472 15.5043 23.0472 16.4956 22.5826 17.3003L20.4174 21.0505C19.9529 21.8552 19.0943 22.3508 18.1652 22.3508H13.8348C12.9057 22.3508 12.0472 21.8552 11.5826 21.0505L9.41741 17.3003Z" stroke="black" stroke-width="1.5"/>
<path d="M14 16V13.3333H18M14 16V18.6666H16.2222C16.9586 18.6666 17.5556 18.0697 17.5556 17.3333V17.3333C17.5556 16.5969 16.9586 16 16.2222 16H14Z" stroke="black" stroke-width="1.5"/>
</svg>
