<svg width="32" height="32" viewBox="0 0 32 32" fill="none" xmlns="http://www.w3.org/2000/svg">
<circle cx="16" cy="16" r="16" fill="#F7F8FA"/>
<path d="M16 18C17.1046 18 18 17.1046 18 16C18 14.8954 17.1046 14 16 14C14.8954 14 14 14.8954 14 16C14 17.1046 14.8954 18 16 18Z" stroke="black" stroke-width="1.5" stroke-linecap="round" stroke-linejoin="round"/>
<path d="M20.0364 17.6364C19.9638 17.8009 19.9421 17.9834 19.9742 18.1603C20.0063 18.3373 20.0906 18.5005 20.2164 18.6291L20.2491 18.6618C20.3505 18.7631 20.431 18.8834 20.4859 19.0159C20.5408 19.1483 20.569 19.2903 20.569 19.4336C20.569 19.577 20.5408 19.719 20.4859 19.8514C20.431 19.9838 20.3505 20.1041 20.2491 20.2055C20.1478 20.3069 20.0275 20.3873 19.895 20.4422C19.7626 20.4971 19.6206 20.5254 19.4773 20.5254C19.3339 20.5254 19.192 20.4971 19.0595 20.4422C18.9271 20.3873 18.8068 20.3069 18.7055 20.2055L18.6727 20.1727C18.5442 20.047 18.3809 19.9626 18.204 19.9305C18.027 19.8985 17.8445 19.9201 17.68 19.9927C17.5187 20.0619 17.3811 20.1767 17.2842 20.323C17.1873 20.4694 17.1352 20.6408 17.1345 20.8164V20.9091C17.1345 21.1984 17.0196 21.4759 16.815 21.6805C16.6104 21.8851 16.333 22 16.0436 22C15.7543 22 15.4768 21.8851 15.2722 21.6805C15.0677 21.4759 14.9527 21.1984 14.9527 20.9091V20.86C14.9485 20.6795 14.8901 20.5044 14.785 20.3575C14.6799 20.2106 14.5331 20.0987 14.3636 20.0364C14.1991 19.9638 14.0166 19.9421 13.8397 19.9742C13.6627 20.0063 13.4995 20.0906 13.3709 20.2164L13.3382 20.2491C13.2369 20.3505 13.1166 20.431 12.9841 20.4859C12.8517 20.5408 12.7097 20.569 12.5664 20.569C12.423 20.569 12.281 20.5408 12.1486 20.4859C12.0162 20.431 11.8959 20.3505 11.7945 20.2491C11.6931 20.1478 11.6127 20.0275 11.5578 19.895C11.5029 19.7626 11.4746 19.6206 11.4746 19.4773C11.4746 19.3339 11.5029 19.192 11.5578 19.0595C11.6127 18.9271 11.6931 18.8068 11.7945 18.7055L11.8273 18.6727C11.953 18.5442 12.0374 18.3809 12.0695 18.204C12.1015 18.027 12.0799 17.8445 12.0073 17.68C11.9381 17.5187 11.8233 17.3811 11.677 17.2842C11.5306 17.1873 11.3592 17.1352 11.1836 17.1345H11.0909C10.8016 17.1345 10.5241 17.0196 10.3195 16.815C10.1149 16.6104 10 16.333 10 16.0436C10 15.7543 10.1149 15.4768 10.3195 15.2722C10.5241 15.0677 10.8016 14.9527 11.0909 14.9527H11.14C11.3205 14.9485 11.4956 14.8901 11.6425 14.785C11.7894 14.6799 11.9013 14.5331 11.9636 14.3636C12.0362 14.1991 12.0579 14.0166 12.0258 13.8397C11.9937 13.6627 11.9094 13.4995 11.7836 13.3709L11.7509 13.3382C11.6495 13.2369 11.569 13.1166 11.5141 12.9841C11.4592 12.8517 11.431 12.7097 11.431 12.5664C11.431 12.423 11.4592 12.281 11.5141 12.1486C11.569 12.0162 11.6495 11.8959 11.7509 11.7945C11.8522 11.6931 11.9725 11.6127 12.105 11.5578C12.2374 11.5029 12.3794 11.4746 12.5227 11.4746C12.6661 11.4746 12.808 11.5029 12.9405 11.5578C13.0729 11.6127 13.1932 11.6931 13.2945 11.7945L13.3273 11.8273C13.4558 11.953 13.6191 12.0374 13.796 12.0695C13.973 12.1015 14.1555 12.0799 14.32 12.0073H14.3636C14.525 11.9381 14.6626 11.8233 14.7595 11.677C14.8564 11.5306 14.9084 11.3592 14.9091 11.1836V11.0909C14.9091 10.8016 15.024 10.5241 15.2286 10.3195C15.4332 10.1149 15.7107 10 16 10C16.2893 10 16.5668 10.1149 16.7714 10.3195C16.976 10.5241 17.0909 10.8016 17.0909 11.0909V11.14C17.0916 11.3155 17.1436 11.487 17.2405 11.6333C17.3374 11.7797 17.475 11.8945 17.6364 11.9636C17.8009 12.0362 17.9834 12.0579 18.1603 12.0258C18.3373 11.9937 18.5005 11.9094 18.6291 11.7836L18.6618 11.7509C18.7631 11.6495 18.8834 11.569 19.0159 11.5141C19.1483 11.4592 19.2903 11.431 19.4336 11.431C19.577 11.431 19.719 11.4592 19.8514 11.5141C19.9838 11.569 20.1041 11.6495 20.2055 11.7509C20.3069 11.8522 20.3873 11.9725 20.4422 12.105C20.4971 12.2374 20.5254 12.3794 20.5254 12.5227C20.5254 12.6661 20.4971 12.808 20.4422 12.9405C20.3873 13.0729 20.3069 13.1932 20.2055 13.2945L20.1727 13.3273C20.047 13.4558 19.9626 13.6191 19.9305 13.796C19.8985 13.973 19.9201 14.1555 19.9927 14.32V14.3636C20.0619 14.525 20.1767 14.6626 20.323 14.7595C20.4694 14.8564 20.6408 14.9084 20.8164 14.9091H20.9091C21.1984 14.9091 21.4759 15.024 21.6805 15.2286C21.8851 15.4332 22 15.7107 22 16C22 16.2893 21.8851 16.5668 21.6805 16.7714C21.4759 16.976 21.1984 17.0909 20.9091 17.0909H20.86C20.6845 17.0916 20.513 17.1436 20.3667 17.2405C20.2203 17.3374 20.1055 17.475 20.0364 17.6364V17.6364Z" stroke="black" stroke-width="1.5" stroke-linecap="round" stroke-linejoin="round"/>
</svg>
