<svg width="32" height="32" viewBox="0 0 32 32" fill="none" xmlns="http://www.w3.org/2000/svg">
<circle cx="16" cy="16" r="16" fill="#F7F8FA"/>
<path d="M16 13.3333C19.3137 13.3333 22 12.4379 22 11.3333C22 10.2287 19.3137 9.33331 16 9.33331C12.6863 9.33331 10 10.2287 10 11.3333C10 12.4379 12.6863 13.3333 16 13.3333Z" stroke="black" stroke-width="1.5" stroke-linecap="round" stroke-linejoin="round"/>
<path d="M22 16C22 17.1067 19.3333 18 16 18C12.6667 18 10 17.1067 10 16" stroke="black" stroke-width="1.5" stroke-linecap="round" stroke-linejoin="round"/>
<path d="M10 11.3333V20.6666C10 21.7733 12.6667 22.6666 16 22.6666C19.3333 22.6666 22 21.7733 22 20.6666V11.3333" stroke="black" stroke-width="1.5" stroke-linecap="round" stroke-linejoin="round"/>
</svg>
