<svg width="102" height="24" viewBox="0 0 102 24" fill="none" xmlns="http://www.w3.org/2000/svg">
<path fill-rule="evenodd" clip-rule="evenodd" d="M10.9698 5.05811C13.0905 5.05811 14.7238 5.66486 15.8695 6.87881C16.4301 7.46223 16.8445 8.18038 17.1132 9.03151C17.3809 9.88396 17.5148 10.9288 17.5148 12.1657V23.65H12.3959V12.7266C12.3959 11.979 12.3226 11.3894 12.1764 10.9579C12.0306 10.5259 11.7982 10.1821 11.4814 9.92535C10.9207 9.45861 10.1405 9.22437 9.1411 9.22437C8.4099 9.22437 7.68445 9.34721 6.96562 9.59247C6.24679 9.83772 5.63134 10.123 5.11928 10.4498V23.65H0V5.37337H4.53432L4.79013 6.98404C5.66801 6.42352 6.66077 5.96295 7.77016 5.60101C8.87911 5.23952 9.94564 5.05811 10.9698 5.05811Z" fill="white"/>
<path fill-rule="evenodd" clip-rule="evenodd" d="M27.2929 23.9637C25.2137 23.9637 23.6126 23.3565 22.4895 22.1425C21.9399 21.5591 21.5334 20.841 21.2701 19.9898C21.0077 19.1374 20.8765 18.0925 20.8765 16.8557V5.37183H25.895V16.2952C25.895 17.0424 25.9666 17.632 26.1102 18.0639C26.2529 18.4954 26.4813 18.8397 26.7915 19.096C27.3411 19.5632 28.1058 19.797 29.0858 19.797C29.8029 19.797 30.5137 19.6746 31.2189 19.4289C31.9236 19.1841 32.5271 18.8983 33.0285 18.572V5.37183H38.0475V23.648H33.602L33.3515 22.0373C32.4913 22.5978 31.518 23.0584 30.4302 23.4208C29.3425 23.7823 28.2967 23.9637 27.2929 23.9637Z" fill="white"/>
<path fill-rule="evenodd" clip-rule="evenodd" d="M46.199 9.81991V16.5422C46.199 17.6157 46.4141 18.3977 46.844 18.8878C47.2748 19.3783 47.956 19.6235 48.8878 19.6235C49.509 19.6235 50.1068 19.6006 50.6803 19.5531C51.2533 19.5068 51.7433 19.4368 52.1497 19.343L52.4011 23.194C51.8276 23.3816 51.1278 23.5269 50.3043 23.6321C49.4794 23.7369 48.6727 23.7898 47.884 23.7898C46.8564 23.7898 46.142 23.6898 45.3171 23.4921C44.4927 23.2944 43.7875 22.9488 43.2021 22.4591C42.6163 21.9691 42.1683 21.3152 41.8573 20.4984C41.5467 19.6821 41.3916 18.6544 41.3916 17.4171V0.735766L46.199 0V5.68843H52.4011L51.5051 9.81991H46.199Z" fill="white"/>
<path fill-rule="evenodd" clip-rule="evenodd" d="M88.5264 23.6501H93.5286V0.736084H88.5264V23.6501Z" fill="white"/>
<path fill-rule="evenodd" clip-rule="evenodd" d="M96.6318 23.6501H101.634V0.736084H96.6318V23.6501Z" fill="white"/>
<path fill-rule="evenodd" clip-rule="evenodd" d="M67.1764 19.349C66.7885 19.4868 66.3736 19.6039 65.926 19.6937C65.2293 19.8342 64.4937 19.9042 63.7201 19.9042C62.9681 19.9042 62.2608 19.7928 61.5972 19.5713C60.934 19.3499 60.3588 19.0104 59.8728 18.556C59.3859 18.1007 59.0042 17.5349 58.728 16.8581C58.451 16.1809 58.3136 15.3875 58.3136 14.4764C58.3136 13.5663 58.4572 12.779 58.7448 12.1133C59.032 11.4488 59.4133 10.894 59.8891 10.4502C60.3645 10.0068 60.9278 9.68009 61.5804 9.47006C62.2329 9.25959 62.9239 9.1548 63.6538 9.1548C64.4274 9.1548 65.152 9.22481 65.8266 9.36483C66.3281 9.46918 66.7774 9.58675 67.175 9.71664L68.0291 5.80752C67.2338 5.56183 66.439 5.37601 65.6437 5.25096C64.8259 5.12327 64.0298 5.05811 63.2557 5.05811C61.8627 5.05811 60.5739 5.27474 59.3912 5.70669C58.2085 6.1382 57.1861 6.76301 56.3232 7.57891C55.4608 8.39613 54.7862 9.3886 54.2997 10.555C53.8133 11.7227 53.5703 13.0529 53.5703 14.5465C53.5703 16.0404 53.8027 17.3768 54.2666 18.556C54.731 19.7351 55.3831 20.7263 56.2238 21.5312C57.0637 22.3369 58.0759 22.9494 59.2591 23.3699C60.4418 23.79 61.7522 24 63.1895 24C64.1844 24 65.1242 23.9128 66.0091 23.7376C66.7977 23.5813 67.4627 23.3827 68.0052 23.1427L67.1764 19.349Z" fill="white"/>
<path fill-rule="evenodd" clip-rule="evenodd" d="M80.7376 17.5221C80.7376 18.2231 80.4783 18.8175 79.96 19.3085C79.6304 19.5885 79.2474 19.81 78.8118 19.9738C78.3752 20.1367 77.8398 20.2182 77.2036 20.2182C76.308 20.2182 75.5786 20.0028 75.0126 19.5709C74.4471 19.1394 74.1648 18.526 74.1648 17.7326C74.1648 17.1258 74.3707 16.6595 74.7829 16.3319C75.1951 16.0057 75.7549 15.8414 76.4613 15.8414H80.7376V17.5221ZM85.4743 11.5699C85.4743 9.30671 84.7961 7.65508 83.442 6.61594C82.0865 5.57768 80.3961 5.05811 77.9458 5.05811C77.333 5.05811 76.703 5.08188 76.0553 5.12812C75.4067 5.17523 74.7709 5.23908 74.1471 5.32097C73.5224 5.40243 72.9277 5.50238 72.3622 5.61863C72.0118 5.69084 71.6867 5.76305 71.3814 5.83526V9.80162C72.2089 9.59511 73.0647 9.43043 73.9527 9.31199C74.9185 9.1843 75.8132 9.11957 76.6385 9.11957C78.0518 9.11957 79.0883 9.32432 79.7484 9.73249C80.4071 10.1407 80.7376 10.824 80.7376 11.78V12.5862C80.3846 12.5399 79.9658 12.5043 79.4833 12.4809C79 12.4585 78.5233 12.4457 78.0518 12.4457H76.8506C75.4368 12.4457 74.2408 12.562 73.2635 12.7966C72.2853 13.0291 71.4843 13.3735 70.86 13.8287C70.2353 14.284 69.7877 14.8388 69.5174 15.4923C69.2465 16.1452 69.1113 16.9039 69.1113 17.7678C69.1113 18.6546 69.2757 19.478 69.6057 20.2358C69.9353 20.9953 70.401 21.6536 71.0014 22.2141C71.6023 22.7751 72.3207 23.2119 73.1574 23.5271C73.9929 23.8424 74.9185 24 75.9316 24C77.0626 24 78.0633 23.8124 78.9355 23.4395C79.8067 23.0666 80.549 22.5536 81.1618 21.8988H81.2329C81.3036 22.5056 81.3858 23.0894 81.4799 23.65H85.4743V11.5699Z" fill="white"/>
</svg>
