<svg width="135" height="32" viewBox="0 0 135 32" fill="none" xmlns="http://www.w3.org/2000/svg">
<path fill-rule="evenodd" clip-rule="evenodd" d="M14.4951 6.68353C17.2973 6.68353 19.4556 7.48528 20.9694 9.08935C21.7102 9.86026 22.2578 10.8092 22.6128 11.9339C22.9666 13.0603 23.1435 14.4409 23.1435 16.0752V31.2502H16.3796V16.8165C16.3796 15.8285 16.2827 15.0495 16.0894 14.4793C15.8968 13.9085 15.5897 13.4541 15.1711 13.115C14.4303 12.4982 13.3993 12.1887 12.0788 12.1887C11.1126 12.1887 10.154 12.351 9.20414 12.6751C8.25431 12.9992 7.44108 13.3762 6.76446 13.8079V31.2502H0V7.10011H5.99151L6.32953 9.22841C7.48953 8.48775 8.80132 7.87917 10.2672 7.40091C11.7326 6.92324 13.1419 6.68353 14.4951 6.68353Z" fill="#008DFF"/>
<path fill-rule="evenodd" clip-rule="evenodd" d="M36.0641 31.6646C33.3167 31.6646 31.201 30.8623 29.717 29.2582C28.9908 28.4873 28.4537 27.5384 28.1057 26.4137C27.759 25.2873 27.5856 23.9067 27.5856 22.2724V7.09796H34.2169V21.5317C34.2169 22.5191 34.3115 23.2981 34.5012 23.8689C34.6898 24.439 34.9916 24.894 35.4014 25.2327C36.1277 25.85 37.1382 26.1589 38.4331 26.1589C39.3806 26.1589 40.3199 25.9972 41.2517 25.6725C42.1828 25.349 42.9803 24.9714 43.6429 24.5403V7.09796H50.2749V31.2475H44.4007L44.0697 29.1192C42.933 29.8598 41.6469 30.4684 40.2096 30.9473C38.7723 31.4249 37.3904 31.6646 36.0641 31.6646Z" fill="#008DFF"/>
<path fill-rule="evenodd" clip-rule="evenodd" d="M61.046 12.9758V21.8584C61.046 23.2769 61.3303 24.3102 61.8984 24.9578C62.4676 25.6059 63.3678 25.93 64.599 25.93C65.4198 25.93 66.2097 25.8998 66.9675 25.8369C67.7247 25.7758 68.3721 25.6833 68.9092 25.5594L69.2414 30.648C68.4836 30.8958 67.5589 31.0878 66.4707 31.2269C65.3807 31.3654 64.3147 31.4352 63.2726 31.4352C61.9147 31.4352 60.9707 31.3031 59.8808 31.0419C58.7914 30.7806 57.8597 30.3239 57.0861 29.6769C56.312 29.0294 55.72 28.1654 55.309 27.0861C54.8986 26.0074 54.6937 24.6494 54.6937 23.0145V0.97234L61.046 0.00012207V7.51663H69.2414L68.0574 12.9758H61.046Z" fill="#008DFF"/>
<path fill-rule="evenodd" clip-rule="evenodd" d="M116.976 31.2504H123.586V0.972595H116.976V31.2504Z" fill="#008DFF"/>
<path fill-rule="evenodd" clip-rule="evenodd" d="M127.687 31.2504H134.296V0.972595H127.687V31.2504Z" fill="#008DFF"/>
<path fill-rule="evenodd" clip-rule="evenodd" d="M88.7646 25.567C88.252 25.7491 87.7038 25.9039 87.1124 26.0226C86.1918 26.2082 85.2197 26.3007 84.1975 26.3007C83.2039 26.3007 82.2692 26.1535 81.3924 25.8608C80.5161 25.5682 79.756 25.1196 79.1138 24.5192C78.4705 23.9176 77.9661 23.1699 77.6012 22.2757C77.2352 21.3808 77.0536 20.3324 77.0536 19.1286C77.0536 17.926 77.2433 16.8857 77.6234 16.006C78.0028 15.128 78.5067 14.395 79.1354 13.8085C79.7636 13.2226 80.5079 12.7909 81.3702 12.5134C82.2325 12.2352 83.1455 12.0968 84.1099 12.0968C85.1322 12.0968 86.0896 12.1893 86.9811 12.3743C87.6437 12.5122 88.2374 12.6675 88.7628 12.8392L89.8913 7.67379C88.8405 7.34913 87.7902 7.10361 86.7394 6.93837C85.6588 6.76964 84.6068 6.68353 83.5839 6.68353C81.7432 6.68353 80.0403 6.96979 78.4775 7.54055C76.9147 8.11073 75.5637 8.93633 74.4236 10.0144C73.284 11.0943 72.3926 12.4057 71.7498 13.947C71.107 15.4899 70.7859 17.2476 70.7859 19.2211C70.7859 21.1952 71.093 22.9611 71.706 24.5192C72.3196 26.0773 73.1813 27.387 74.2922 28.4505C75.402 29.5152 76.7395 30.3246 78.3029 30.8802C79.8657 31.4352 81.5973 31.7128 83.4964 31.7128C84.8111 31.7128 86.0528 31.5976 87.2222 31.366C88.2642 31.1595 89.1429 30.8971 89.8598 30.58L88.7646 25.567Z" fill="#008DFF"/>
<path fill-rule="evenodd" clip-rule="evenodd" d="M106.685 23.1532C106.685 24.0795 106.342 24.865 105.657 25.5137C105.222 25.8837 104.715 26.1764 104.14 26.3928C103.563 26.6081 102.855 26.7157 102.015 26.7157C100.831 26.7157 99.8675 26.4312 99.1197 25.8604C98.3724 25.2903 97.9994 24.4798 97.9994 23.4314C97.9994 22.6296 98.2714 22.0135 98.8161 21.5806C99.3608 21.1495 100.1 20.9324 101.034 20.9324H106.685V23.1532ZM112.943 15.2882C112.943 12.2977 112.047 10.1153 110.258 8.74219C108.467 7.37026 106.233 6.68372 102.995 6.68372C102.186 6.68372 101.353 6.71513 100.497 6.77622C99.6404 6.83848 98.8003 6.92284 97.976 7.03106C97.1505 7.1387 96.3647 7.27077 95.6175 7.42437C95.1545 7.51979 94.7248 7.61521 94.3214 7.71063V12.9516C95.4149 12.6788 96.5457 12.4612 97.7191 12.3047C98.9953 12.1359 100.178 12.0504 101.268 12.0504C103.136 12.0504 104.505 12.321 105.377 12.8603C106.248 13.3996 106.685 14.3026 106.685 15.5658V16.6311C106.218 16.57 105.665 16.5228 105.027 16.492C104.388 16.4623 103.759 16.4455 103.136 16.4455H101.548C99.6801 16.4455 98.0998 16.5991 96.8084 16.9092C95.5159 17.2164 94.4575 17.6714 93.6326 18.273C92.8071 18.8746 92.2157 19.6076 91.8584 20.4711C91.5005 21.3339 91.3219 22.3364 91.3219 23.4779C91.3219 24.6497 91.5391 25.7377 91.9752 26.739C92.4107 27.7426 93.026 28.6124 93.8194 29.3531C94.6133 30.0943 95.5626 30.6715 96.6683 31.0881C97.7723 31.5047 98.9953 31.713 100.334 31.713C101.828 31.713 103.151 31.4651 104.303 30.9723C105.454 30.4795 106.435 29.8017 107.245 28.9365H107.339C107.432 29.7383 107.541 30.5098 107.665 31.2504H112.943V15.2882Z" fill="#008DFF"/>
</svg>
