<svg xmlns="http://www.w3.org/2000/svg" xmlns:xlink="http://www.w3.org/1999/xlink"><symbol id="dislike-fill"><path d="M11.333 1h1.78a1.54 1.54 0 011.554 1.333V7a1.54 1.54 0 01-1.554 1.333h-1.78M6.667 9.667v2.666a2 2 0 002 2l2.666-6V1h-7.52A1.333 1.333 0 002.48 2.133l-.92 6a1.333 1.333 0 001.333 1.534h3.774z" stroke="#FF6366" stroke-width="1.333" stroke-linecap="round" stroke-linejoin="round" fill="#FF6366"/></symbol><symbol id="dislike"><path d="M11.333 1h1.78a1.54 1.54 0 011.554 1.333V7a1.54 1.54 0 01-1.554 1.333h-1.78M6.667 9.667v2.666a2 2 0 002 2l2.666-6V1h-7.52A1.333 1.333 0 002.48 2.133l-.92 6a1.333 1.333 0 001.333 1.534h3.774z" stroke="#FF6366" stroke-width="1.333" stroke-linecap="round" stroke-linejoin="round"/></symbol><symbol id="like-fill"><path d="M4.667 14h-2a1.334 1.334 0 01-1.334-1.333V8a1.333 1.333 0 011.334-1.333h2m4.666-1.334V2.667a2 2 0 00-2-2l-2.666 6V14h7.52a1.334 1.334 0 001.333-1.133l.92-6a1.333 1.333 0 00-1.333-1.534H9.333z" stroke="#1FCF5F" stroke-width="1.333" stroke-linecap="round" stroke-linejoin="round" fill="#1FCF5F"/></symbol><symbol id="like"><path d="M4.667 14h-2a1.334 1.334 0 01-1.334-1.333V8a1.333 1.333 0 011.334-1.333h2m4.666-1.334V2.667a2 2 0 00-2-2l-2.666 6V14h7.52a1.334 1.334 0 001.333-1.133l.92-6a1.333 1.333 0 00-1.333-1.534H9.333z" stroke="#1FCF5F" stroke-width="1.333" stroke-linecap="round" stroke-linejoin="round"/></symbol></svg>