<svg width="16" height="15" viewBox="0 0 16 15" fill="none" xmlns="http://www.w3.org/2000/svg">
    <path d="M11.3334 1.00007H13.1134C13.4907 0.9934 13.8573 1.1255 14.1436 1.37129C14.43 1.61707 14.6161 1.95945 14.6667 2.33341V7.00007C14.6161 7.37403 14.43 7.71641 14.1436 7.96219C13.8573 8.20798 13.4907 8.34008 13.1134 8.33341H11.3334M6.66669 9.66674V12.3334C6.66669 12.8638 6.8774 13.3725 7.25247 13.7476C7.62755 14.1227 8.13625 14.3334 8.66669 14.3334L11.3334 8.33341V1.00007H3.81335C3.4918 0.996438 3.17977 1.10914 2.93475 1.3174C2.68973 1.52567 2.52824 1.81547 2.48002 2.13341L1.56002 8.13341C1.53102 8.3245 1.5439 8.51962 1.59779 8.70524C1.65168 8.89086 1.74529 9.06254 1.87211 9.2084C1.99894 9.35425 2.15597 9.47079 2.33231 9.54993C2.50864 9.62907 2.70008 9.66893 2.89335 9.66674H6.66669Z"
          stroke="#FF6366" stroke-width="1.33333" stroke-linecap="round" stroke-linejoin="round"
          fill="#FF6366"
    />
</svg>
