<svg width="16" height="15" viewBox="0 0 16 15" fill="none" xmlns="http://www.w3.org/2000/svg">
<path d="M4.66665 14H2.66665C2.31302 14 1.97389 13.8595 1.72384 13.6095C1.47379 13.3594 1.33331 13.0203 1.33331 12.6667V8.00001C1.33331 7.64638 1.47379 7.30724 1.72384 7.0572C1.97389 6.80715 2.31302 6.66667 2.66665 6.66667H4.66665M9.33331 5.33334V2.66667C9.33331 2.13624 9.1226 1.62753 8.74753 1.25246C8.37245 0.877386 7.86375 0.666672 7.33331 0.666672L4.66665 6.66667V14H12.1866C12.5082 14.0036 12.8202 13.8909 13.0653 13.6827C13.3103 13.4744 13.4718 13.1846 13.52 12.8667L14.44 6.86667C14.469 6.67558 14.4561 6.48046 14.4022 6.29484C14.3483 6.10922 14.2547 5.93753 14.1279 5.79168C14.0011 5.64583 13.844 5.52929 13.6677 5.45015C13.4914 5.37101 13.2999 5.33115 13.1066 5.33334H9.33331Z" stroke="#1FCF5F" stroke-width="1.33333" stroke-linecap="round" stroke-linejoin="round"/>
</svg>
