<svg width="20" height="24" viewBox="0 0 20 24" fill="none" xmlns="http://www.w3.org/2000/svg">
<path d="M19.8477 0H10.3208C10.0816 0 9.83143 0 9.57042 0C7.19956 0 4.92659 0.345791 3.07776 1.39397C1.28331 2.40973 0 4.28996 0 6.86177C0 10.7087 3.4584 13.3129 8.09135 13.3129C8.70038 13.3129 8.92877 13.5723 8.92877 14.4584V18.1756C8.92877 21.9901 7.67809 22.7573 6.75367 22.7573C6.01414 22.7573 5.43774 22.3143 5.43774 21.5146C5.43774 21.0068 5.78575 20.5637 5.88363 20.3368C5.75313 19.7965 4.89396 19.2238 3.64328 19.2562C3.16476 19.4183 2.58836 20.1531 2.58836 21.2013C2.58836 23.2004 4.41544 24 6.01414 24C6.93855 24 7.96085 23.8379 8.63513 23.33C10.2012 22.1522 10.6145 19.9586 10.6145 16.9437V3.40387C10.6145 2.59343 10.6362 2.16119 10.8211 1.90185H13.7792C14.236 1.90185 14.6384 1.92346 14.9647 1.95588C15.3018 1.9883 15.5954 2.06394 15.8347 2.16119C16.0848 2.26925 16.3023 2.40973 16.509 2.59343C16.7047 2.78794 16.9222 3.03647 17.1397 3.33904C17.5421 3.92256 17.8902 4.71139 18.162 5.71635H20L19.8477 0Z" fill="white"/>
</svg>
