<svg width="56" height="32" viewBox="0 0 56 32" fill="none" xmlns="http://www.w3.org/2000/svg">
<path d="M11.3967 3.94798L19.8406 14.3792V0H7.46179C8.92931 0.980545 10.1791 2.42556 11.3967 3.94798Z" fill="#FEFDFC"/>
<path d="M24.1622 14.3792L31.9997 4.69791V2.04334C31.9997 0.914423 31.1256 0 30.0468 0H24.1622V14.3792Z" fill="#FEFDFC"/>
<path d="M32.0001 17.3928V8.90332L28.6329 13.1384L32.0001 17.3928Z" fill="#FEFDFC"/>
<path d="M5.93297 25.0596L15.3702 13.1382L7.67141 3.45211C5.71526 0.973329 3.75749 0.170185 1.80134 0.00891113C0.793428 0.0895481 0 0.968491 0 2.04419V29.9252C1.96583 28.9963 4.22839 27.2013 5.93297 25.0596Z" fill="#FEFDFC"/>
<path d="M19.8404 31.5159V31.1321V15.124L11.3965 26.0519C7.75353 30.7418 4.11215 31.8417 1.80927 31.9917C1.85604 31.9949 1.90442 31.9997 1.95119 31.9997H19.8404V31.5159Z" fill="#FEFDFC"/>
<path d="M24.1622 15.124V31.1321V31.5159V31.9997H30.0468C31.1256 31.9997 31.9997 31.0853 31.9997 29.9564V25.2665L24.1622 15.124Z" fill="#FEFDFC"/>
<path d="M38.2892 14.8572H42.66C46.8 14.8572 50.48 12.5716 50.48 8.22816C50.48 3.88472 47.0292 1.82848 43.58 1.82848C39.2092 1.82848 35.9892 4.5712 34.84 9.1424H33.92C33.92 6.39968 33.92 4.5712 35.0692 3.19984C36.7252 1.18851 40.5892 0 43.8092 0C48.4092 0 54.8492 1.1436 54.8492 8.45752C54.8492 11.4296 52.7784 14.1723 48.4092 15.5437C54.1584 16.6857 56 19.43 56 23.3147C56 30.3993 49.1 32 44.04 32C39.44 32 35.76 30.6286 33 26.2852L33.92 25.6003C35.9908 28.343 38.98 30.1715 43.3508 30.1715C48.18 30.1715 51.4016 27.6582 51.4016 23.5425C51.4016 19.199 48.4124 16.6857 42.6616 16.6857H38.2908V14.8572H38.2892Z" fill="#FEFDFC"/>
</svg>
