<svg width="32" height="32" viewBox="0 0 32 32" fill="none" xmlns="http://www.w3.org/2000/svg">
<path d="M22.6666 11.6667C24.5075 11.6667 25.9999 10.1743 25.9999 8.33333C25.9999 6.49238 24.5075 5 22.6666 5C20.8256 5 19.3333 6.49238 19.3333 8.33333C19.3333 10.1743 20.8256 11.6667 22.6666 11.6667Z" stroke="#FEFDFC" stroke-width="2"/>
<path d="M9.33333 19.4442C11.1743 19.4442 12.6667 17.9518 12.6667 16.1109C12.6667 14.2699 11.1743 12.7775 9.33333 12.7775C7.49238 12.7775 6 14.2699 6 16.1109C6 17.9518 7.49238 19.4442 9.33333 19.4442Z" stroke="#FEFDFC" stroke-width="2"/>
<path d="M22.6666 27.2217C24.5075 27.2217 25.9999 25.7293 25.9999 23.8883C25.9999 22.0474 24.5075 20.555 22.6666 20.555C20.8256 20.555 19.3333 22.0474 19.3333 23.8883C19.3333 25.7293 20.8256 27.2217 22.6666 27.2217Z" stroke="#FEFDFC" stroke-width="2"/>
<path d="M12.2109 17.7889L19.7998 22.2111" stroke="#FEFDFC" stroke-width="2"/>
<path d="M19.7887 10.0106L12.2109 14.4328" stroke="#FEFDFC" stroke-width="2"/>
</svg>
