<svg width="40" height="40" viewBox="0 0 40 40" fill="none" xmlns="http://www.w3.org/2000/svg">
<circle cx="20" cy="20" r="20" fill="#4680C2"/>
<path fill-rule="evenodd" clip-rule="evenodd" d="M29.5294 14.8327C29.6776 14.363 29.5294 14.0214 28.8727 14.0214H26.691C26.1403 14.0214 25.8861 14.3203 25.7379 14.6406C25.7379 14.6406 24.6153 17.3737 23.0478 19.1459C22.5395 19.6584 22.3065 19.8292 22.0311 19.8292C21.8828 19.8292 21.6922 19.6584 21.6922 19.1886V14.8114C21.6922 14.2562 21.5227 14 21.0568 14H17.6253C17.2864 14 17.0746 14.2562 17.0746 14.5125C17.0746 15.0463 17.8583 15.1744 17.9431 16.669V19.9146C17.9431 20.6192 17.816 20.7473 17.5406 20.7473C16.7993 20.7473 14.9988 17.9929 13.9186 14.8541C13.7068 14.2349 13.495 14 12.9442 14H10.7414C10.1059 14 10 14.2989 10 14.6192C10 15.1957 10.7414 18.0996 13.4526 21.9431C15.253 24.5694 17.816 25.9786 20.1248 25.9786C21.5227 25.9786 21.6922 25.6584 21.6922 25.1246V23.1388C21.6922 22.4982 21.8193 22.3915 22.2641 22.3915C22.5818 22.3915 23.1537 22.5623 24.4458 23.8221C25.9285 25.3167 26.1827 26 27.0088 26H29.1905C29.8259 26 30.1224 25.6797 29.953 25.0605C29.7624 24.4413 29.0422 23.5445 28.1102 22.4769C27.6018 21.879 26.8393 21.2171 26.6063 20.8968C26.2886 20.4698 26.3733 20.2989 26.6063 19.9146C26.5851 19.9146 29.254 16.1139 29.5294 14.8327Z" fill="#FEFDFC"/>
</svg>
