<?xml version="1.0" encoding="UTF-8"?>
<svg width="209px" height="62px" viewBox="0 0 209 62" version="1.1" xmlns="http://www.w3.org/2000/svg" xmlns:xlink="http://www.w3.org/1999/xlink">
    <!-- Generator: sketchtool 55.2 (78181) - https://sketchapp.com -->
    <title>BEEEBCEC-1D8D-4958-9501-0635494C284B</title>
    <desc>Created with sketchtool.</desc>
    <g id="лендинг" stroke="none" stroke-width="1" fill="none" fill-rule="evenodd">
        <g id="LP_VZ_1920_main" transform="translate(-946.000000, -557.000000)" fill-rule="nonzero">
            <g id="1-block" transform="translate(-472.000000, -2221.000000)">
                <g id="text" transform="translate(1418.000000, 2459.000000)">
                    <g id="donload" transform="translate(0.000000, 319.000000)">
                        <g id="App-Store-Badge-US-Black">
                            <path d="M13.4204241,61.9967583 C12.8804041,61.9967583 12.353429,61.9904371 11.817645,61.9794155 C10.707725,61.9661907 9.6003992,61.87783 8.50474906,61.715058 C7.48311059,61.5541552 6.49341752,61.2548467 5.56831456,60.8270051 C4.65169429,60.4027085 3.81566292,59.8463588 3.0922477,59.1792691 C2.35836121,58.5200373 1.74736718,57.7554409 1.28347821,56.9157796 C0.814477574,56.0706611 0.489901226,55.1647959 0.321055655,54.2297396 C0.138717096,53.225011 0.0400643809,52.209072 0.0259481881,51.1906828 C0.0147110629,50.8488497 3.63797881e-12,49.7107027 3.63797881e-12,49.7107027 L3.63797881e-12,12.2686155 C3.63797881e-12,12.2686155 0.0156681682,11.1479572 0.026036809,10.818718 C0.0395529555,9.80194204 0.137632004,8.78757953 0.319425031,7.78441023 C0.488582268,6.84679245 0.81340989,5.93831511 1.28266289,5.09042821 C1.74484696,4.25134682 2.35244888,3.4861795 3.08191451,2.82458852 C3.81056024,2.15671149 4.64926591,1.597497 5.56744607,1.16733818 C6.49042289,0.740871154 7.47824555,0.443673999 8.49781891,0.285703754 C9.59706734,0.12129668 10.7082374,0.032410259 11.8220051,0.0197903378 L13.4212926,0 L195.57004,0 L197.188434,0.0205845446 C198.292071,0.0325773883 199.393147,0.120670824 200.482295,0.28411534 C201.512189,0.444067087 202.510307,0.743337946 203.443827,1.17208721 C205.283274,2.03898188 206.779997,3.41049103 207.724214,5.09438304 C208.185977,5.93641663 208.505794,6.8374835 208.672812,7.76700251 C208.856769,8.77840284 208.959725,9.80073661 208.980858,10.8258496 C208.985998,11.2848688 208.985998,11.7779253 208.985998,12.2686155 C209,12.8764269 209,13.4549498 209,14.0382218 L209,47.9600439 C209,48.5488916 209,49.1234759 208.985998,49.7027606 C208.985998,50.2298546 208.985998,50.7127 208.979085,51.2096466 C208.95841,52.2164669 208.857171,53.2205527 208.676179,54.2138555 C208.510795,55.155657 208.187985,56.0685929 207.719074,56.9206421 C207.251906,57.7511897 206.644421,58.509163 205.919007,59.1666266 C205.194941,59.8373012 204.357434,60.396906 203.438686,60.8239255 C202.507753,61.2550562 201.511105,61.5554715 200.482295,61.715058 C199.386727,61.8786986 198.279295,61.967065 197.169292,61.9794155 C196.650151,61.9904371 196.106551,61.9967583 195.578725,61.9967583 L193.657425,62 L13.4204241,61.9967583 Z" id="Background-Black" fill="#000000"></path>
                            <path d="M64.4085519,41.0664575 L57.0896813,41.0664575 L55.3320639,46.268955 L52.2320813,46.268955 L59.1643973,27.021055 L62.3851704,27.021055 L69.3174864,46.268955 L66.1646387,46.268955 L64.4085519,41.0664575 Z M57.847684,38.665771 L63.6490958,38.665771 L60.7891946,30.2225025 L60.7091624,30.2225025 L57.847684,38.665771 Z M84.2889324,39.2530815 C84.2889324,43.6139755 81.9605439,46.415771 78.4468242,46.415771 C76.6306132,46.5110102 74.9198417,45.5573976 74.0422198,43.960571 L73.9757324,43.960571 L73.9757324,50.91136 L71.10224,50.91136 L71.10224,32.235689 L73.8836706,32.235689 L73.8836706,34.569772 L73.9365203,34.569772 C74.8531315,32.9829563 76.5657478,32.0297542 78.3939745,32.0888575 C81.9468908,32.088873 84.2889324,34.904293 84.2889324,39.2530815 Z M81.3354077,39.2530815 C81.3354077,36.4119315 79.8707213,34.544042 77.6359563,34.544042 C75.4404497,34.544042 73.9636874,36.4512705 73.9636874,39.2530815 C73.9636874,42.0806225 75.4404497,43.9742265 77.6359563,43.9742265 C79.8707368,43.9742265 81.3354077,42.119977 81.3354077,39.2530815 Z M99.6967523,39.2530815 C99.6967523,43.6139755 97.3683637,46.415771 93.854644,46.415771 C92.038433,46.5110102 90.3276615,45.5573976 89.4500397,43.960571 L89.3835523,43.960571 L89.3835523,50.91136 L86.5100598,50.91136 L86.5100598,32.235689 L89.2914286,32.235689 L89.2914286,34.569772 L89.3442783,34.569772 C90.2608962,32.9829572 91.973519,32.0297608 93.8017479,32.088873 C97.3547724,32.088873 99.6967523,34.904293 99.6967523,39.2530815 Z M96.743243,39.2530815 C96.743243,36.4119315 95.2785412,34.544042 93.0437761,34.544042 C90.8482696,34.544042 89.3715072,36.4512705 89.3715072,39.2530815 C89.3715072,42.0806225 90.8482696,43.9742265 93.0437761,43.9742265 C95.2785566,43.9742265 96.743243,42.119977 96.743243,39.2530815 L96.743243,39.2530815 Z M109.880054,40.9060015 C110.092969,42.814749 111.94271,44.0680015 114.470391,44.0680015 C116.892403,44.0680015 118.634914,42.814687 118.634914,41.093629 C118.634914,39.5996305 117.583964,38.705079 115.095527,38.092023 L112.607089,37.491088 C109.081293,36.637379 107.444467,34.9844435 107.444467,32.302215 C107.444467,28.981216 110.33155,26.700112 114.431132,26.700112 C118.488409,26.700112 121.269825,28.981216 121.363448,32.302215 L118.462742,32.302215 C118.289102,30.381362 116.705125,29.2219 114.390327,29.2219 C112.07553,29.2219 110.491568,30.395002 110.491568,32.10242 C110.491568,33.4632115 111.503259,34.2639415 113.978106,34.87692 L116.09358,35.397627 C120.033113,36.331564 121.669939,37.917927 121.669939,40.733316 C121.669939,44.334338 118.808523,46.589712 114.257445,46.589712 C109.999299,46.589712 107.124307,44.387317 106.938575,40.905862 L109.880054,40.9060015 Z M127.871451,28.91469 L127.871451,32.235689 L130.533544,32.235689 L130.533544,34.516793 L127.871451,34.516793 L127.871451,42.2531685 C127.871451,43.455023 128.404479,44.0150845 129.574703,44.0150845 C129.890737,44.0095602 130.206259,43.9873126 130.519953,43.9484345 L130.519953,46.215914 C129.993819,46.3144623 129.459047,46.3590945 128.9239,46.349121 C126.089681,46.349121 124.984367,45.281977 124.984367,42.560394 L124.984367,34.516793 L122.948925,34.516793 L122.948925,32.235689 L124.984336,32.235689 L124.984336,28.91469 L127.871451,28.91469 Z M132.075294,39.2530815 C132.075294,34.837705 134.669431,32.063143 138.714679,32.063143 C142.773503,32.063143 145.355564,34.837643 145.355564,39.2530815 C145.355564,43.680579 142.787094,46.44302 138.714679,46.44302 C134.643702,46.44302 132.075294,43.6805635 132.075294,39.2530815 Z M142.427706,39.2530815 C142.427706,36.2242265 141.043052,34.4365805 138.714664,34.4365805 C136.386275,34.4365805 135.003136,36.237851 135.003136,39.2530815 C135.003136,42.294042 136.386275,44.068079 138.714664,44.068079 C141.043052,44.068079 142.427706,42.294042 142.427706,39.2530815 L142.427706,39.2530815 Z M147.724649,32.235689 L150.465275,32.235689 L150.465275,34.624239 L150.531762,34.624239 C150.91395,33.086621 152.319396,32.0283789 153.899008,32.088842 C154.230153,32.087683 154.560384,32.1237337 154.883517,32.196319 L154.883517,34.890653 C154.465467,34.7625971 154.029369,34.7038025 153.592424,34.716588 C152.747645,34.6822329 151.930086,35.0197288 151.354414,35.6404593 C150.778743,36.2611897 150.502471,37.1031397 150.598141,37.945238 L150.598141,46.268924 L147.724649,46.268924 L147.724649,32.235689 Z M168.132027,42.1472105 C167.745472,44.694713 165.27061,46.4430045 162.104187,46.4430045 C158.031772,46.4430045 155.504076,43.707797 155.504076,39.3196695 C155.504076,34.9179175 158.045363,32.0631275 161.983396,32.0631275 C165.856488,32.0631275 168.292091,34.7302125 168.292091,38.9851485 L168.292091,39.9720645 L158.404751,39.9720645 L158.404751,40.1461295 C158.312438,41.1908785 158.672311,42.2250351 159.392831,42.9855434 C160.113351,43.7460516 161.125071,44.1596116 162.170643,44.121027 C163.565089,44.2520014 164.879777,43.4493154 165.403508,42.147195 L168.132027,42.1472105 Z M158.418315,37.9588935 L165.417084,37.9588935 C165.469231,37.0201011 165.128337,36.1020758 164.476535,35.4259789 C163.824732,34.749882 162.921117,34.3770146 161.983396,34.3972105 C161.038258,34.3915565 160.130023,34.7645987 159.460564,35.4334215 C158.791105,36.1022444 158.415893,37.0114295 158.418315,37.9588935 L158.418315,37.9588935 Z" id="App-Store" fill="#FFFFFF"></path>
                            <path d="M57.4875543,12.53305 C58.707438,12.4452955 59.9022872,12.9105485 60.7432275,13.8007513 C61.5841679,14.6909541 61.9825597,15.9122744 61.8287482,17.128552 C61.8287482,20.0832395 60.2357257,21.781652 57.4875543,21.781652 L54.155036,21.781652 L54.155036,12.53305 L57.4875543,12.53305 Z M55.5879939,20.4737 L57.3274897,20.4737 C58.1992817,20.5259381 59.0481472,20.1816165 59.6383883,19.5363403 C60.2286294,18.8910641 60.4974071,18.0135313 60.3700921,17.1474 C60.4881444,16.284863 60.2154959,15.4145716 59.6267183,14.7745577 C59.0379407,14.1345437 58.1946488,13.7917838 57.3274897,13.8400255 L55.5879939,13.8400255 L55.5879939,20.4737 Z M63.447438,18.288727 C63.32805,17.0376988 63.9264621,15.8269735 64.9917019,15.1643259 C66.0569417,14.5016783 67.4048324,14.5016783 68.4700722,15.1643259 C69.535312,15.8269735 70.1337241,17.0376988 70.0143361,18.288727 C70.1359956,19.5410995 69.5381297,20.7541731 68.4719454,21.4182472 C67.4057611,22.0823213 66.056013,22.0823213 64.9898287,21.4182472 C63.9236444,20.7541731 63.3257785,19.5410995 63.447438,18.288727 Z M68.6009997,18.288727 C68.6009997,16.7758185 67.9229983,15.8910785 66.7331523,15.8910785 C65.5387603,15.8910785 64.8668666,16.7758185 64.8668666,18.2887425 C64.8668666,19.813772 65.5388067,20.691692 66.7331523,20.691692 C67.9230292,20.691692 68.6009997,19.807696 68.6009997,18.288727 L68.6009997,18.288727 Z M78.7435281,21.7815125 L77.3181156,21.7815125 L75.8791119,16.641077 L75.7703973,16.641077 L74.3374239,21.7815125 L72.9255872,21.7815125 L71.0064054,14.801971 L72.4001203,14.801971 L73.647362,20.127771 L73.7500464,20.127771 L75.1815045,14.801971 L76.4997176,14.801971 L77.9311758,20.127771 L78.0398904,20.127771 L79.2810864,14.801971 L80.6551644,14.801971 L78.7435281,21.7815125 Z M82.2693237,14.801971 L83.5920672,14.801971 L83.5920672,15.9107325 L83.6947516,15.9107325 C84.0518273,15.0943908 84.8862101,14.5950266 85.7724827,14.667245 C86.4587204,14.6155242 87.1311849,14.8794243 87.6000059,15.3844332 C88.0688269,15.8894421 88.2831288,16.5807568 88.1824034,17.263185 L88.1824034,21.781435 L86.8083254,21.781435 L86.8083254,17.609083 C86.8083254,16.4874565 86.322117,15.929658 85.3058958,15.929658 C84.8404312,15.9079256 84.3887102,16.091048 84.0691601,16.431016 C83.7496099,16.770984 83.5941006,17.2338916 83.6434017,17.6983785 L83.6434017,21.7815125 L82.2693237,21.7815125 L82.2693237,14.801971 Z M90.3718797,12.07735 L91.7459576,12.07735 L91.7459576,21.781497 L90.3718797,21.781497 L90.3718797,12.07735 Z M93.6560787,18.288727 C93.5367824,17.037617 94.1352889,15.826861 95.2006077,15.1642032 C96.2659266,14.5015454 97.6138865,14.5015454 98.6792054,15.1642032 C99.7445242,15.826861 100.343031,17.037617 100.223734,18.288727 C100.345239,19.5411443 99.7472639,20.7541836 98.6810267,21.4182285 C97.6147895,22.0822734 96.2650236,22.0822734 95.1987864,21.4182285 C94.1325492,20.7541836 93.5345737,19.5411443 93.6560787,18.288727 L93.6560787,18.288727 Z M98.8096403,18.288727 C98.8096403,16.7758185 98.131639,15.8910785 96.9417929,15.8910785 C95.747401,15.8910785 95.0755072,16.7758185 95.0755072,18.2887425 C95.0755072,19.813772 95.7474474,20.691692 96.9417929,20.691692 C98.1316545,20.691692 98.8096403,19.807696 98.8096403,18.288727 L98.8096403,18.288727 Z M101.670299,19.807696 C101.670299,18.5513435 102.603473,17.8270595 104.259906,17.724124 L106.145875,17.6151435 L106.145875,17.012705 C106.145875,16.2755405 105.659667,15.859288 104.720463,15.859288 C103.953399,15.859288 103.421886,16.1415895 103.269367,16.6350475 L101.939078,16.6350475 C102.079506,15.4362155 103.204442,14.667276 104.783873,14.667276 C106.529414,14.667276 107.513923,15.538376 107.513923,17.012705 L107.513923,21.781528 L106.191179,21.781528 L106.191179,20.8006725 L106.082465,20.8006725 C105.633209,21.5169683 104.834285,21.935603 103.991142,21.8965225 C103.400079,21.9581533 102.810591,21.7662615 102.36841,21.3682863 C101.92623,20.9703111 101.672628,20.4033971 101.670299,19.807696 L101.670299,19.807696 Z M106.145875,19.2113025 L106.145875,18.6277895 L104.445638,18.73677 C103.486797,18.801095 103.051923,19.128052 103.051923,19.7433555 C103.051923,20.371524 103.595511,20.737076 104.343015,20.737076 C104.785521,20.7819793 105.227261,20.6449363 105.567111,20.3573192 C105.90696,20.069702 106.115819,19.6561386 106.145875,19.2113025 Z M109.319844,18.288727 C109.319844,16.0833095 110.450826,14.686186 112.209943,14.686186 C113.098209,14.6451577 113.930153,15.1222829 114.345054,15.910686 L114.447738,15.910686 L114.447738,12.07735 L115.821816,12.07735 L115.821816,21.781497 L114.505119,21.781497 L114.505119,20.6787805 L114.396404,20.6787805 C113.950141,21.4606423 113.107947,21.9297025 112.209958,21.8965225 C110.43875,21.8966 109.319844,20.4994455 109.319844,18.288727 Z M110.739273,18.288727 C110.739273,19.769101 111.43538,20.6599015 112.599574,20.6599015 C113.757692,20.6599015 114.473452,19.7562515 114.473452,18.2947875 C114.473452,16.8401435 113.750177,15.923613 112.599574,15.923613 C111.442879,15.923613 110.739226,16.8204585 110.739226,18.288727 L110.739273,18.288727 Z M121.506891,18.288727 C121.387503,17.0376988 121.985915,15.8269735 123.051155,15.1643259 C124.116395,14.5016783 125.464285,14.5016783 126.529525,15.1643259 C127.594765,15.8269735 128.193177,17.0376988 128.073789,18.288727 C128.195448,19.5410995 127.597582,20.7541731 126.531398,21.4182472 C125.465214,22.0823213 124.115466,22.0823213 123.049282,21.4182472 C121.983097,20.7541731 121.385231,19.5410995 121.506891,18.288727 L121.506891,18.288727 Z M126.660437,18.288727 C126.660437,16.7758185 125.982451,15.8910785 124.792605,15.8910785 C123.598213,15.8910785 122.926319,16.7758185 122.926319,18.2887425 C122.926319,19.813772 123.598259,20.691692 124.792605,20.691692 C125.982467,20.691692 126.660437,19.807696 126.660437,18.288727 Z M129.917469,14.801971 L131.240212,14.801971 L131.240212,15.9107325 L131.342897,15.9107325 C131.699973,15.0943908 132.534355,14.5950266 133.420628,14.667245 C134.106866,14.6155242 134.77933,14.8794243 135.248151,15.3844332 C135.716972,15.8894421 135.931274,16.5807568 135.830549,17.263185 L135.830549,21.781435 L134.456471,21.781435 L134.456471,17.609083 C134.456471,16.4874565 133.970262,15.929658 132.954041,15.929658 C132.488576,15.9079256 132.036855,16.091048 131.717305,16.431016 C131.397755,16.770984 131.242246,17.2338916 131.291547,17.6983785 L131.291547,21.7815125 L129.917469,21.7815125 L129.917469,14.801971 Z M143.594869,13.0642815 L143.594869,14.8337615 L145.103345,14.8337615 L145.103345,15.9939985 L143.594869,15.9939985 L143.594869,19.582915 C143.594869,20.314019 143.895361,20.634156 144.579377,20.634156 C144.754495,20.6335942 144.929437,20.62298 145.103345,20.6023655 L145.103345,21.749722 C144.856583,21.7939756 144.606569,21.8175191 144.355903,21.8201075 C142.827806,21.8201075 142.219276,21.2812345 142.219276,19.9355865 L142.219276,15.9939365 L141.113977,15.9939365 L141.113977,14.8336995 L142.219276,14.8336995 L142.219276,13.0642815 L143.594869,13.0642815 Z M146.980237,12.07735 L148.342239,12.07735 L148.342239,15.9235975 L148.450954,15.9235975 C148.825182,15.1001113 149.674168,14.6001107 150.573912,14.6733055 C151.256253,14.6360858 151.919614,14.9057958 152.383311,15.4089725 C152.847008,15.9121492 153.062744,16.5963837 152.971757,17.275306 L152.971757,21.7815125 L151.596303,21.7815125 L151.596303,17.6151125 C151.596303,16.5002905 151.078319,15.9356875 150.107464,15.9356875 C149.629418,15.8963852 149.15844,16.070601 148.820442,16.4117599 C148.482444,16.7529189 148.31189,17.2262335 148.354377,17.7051675 L148.354377,21.7815125 L146.980299,21.7815125 L146.980237,12.07735 Z M160.983782,19.8969915 C160.598475,21.2135297 159.327548,22.0641597 157.966846,21.916223 C157.038441,21.9407908 156.146192,21.5550276 155.526834,20.8612855 C154.907475,20.1675434 154.623623,19.2359567 154.750588,18.3136975 C154.626995,17.3888752 154.909784,16.4557958 155.525693,15.7561928 C156.141603,15.0565898 157.030027,14.659304 157.960801,14.6672605 C159.898104,14.6672605 161.066829,15.9940605 161.066829,18.1857605 L161.066829,18.6664 L156.150333,18.6664 L156.150333,18.74359 C156.106826,19.2615072 156.283278,19.773794 156.636296,20.1544631 C156.989313,20.5351322 157.486139,20.7488621 158.00459,20.74309 C158.676842,20.8239918 159.331233,20.4897162 159.661038,19.896945 L160.983782,19.8969915 Z M156.150303,17.647678 L159.667037,17.647678 C159.702064,17.1739987 159.535916,16.7075179 159.209537,16.3631916 C158.883159,16.0188653 158.426904,15.8287161 157.953209,15.839603 C157.473096,15.8335563 157.010894,16.0221329 156.67145,16.3625558 C156.332006,16.7029786 156.144092,17.1663933 156.150333,17.647678 L156.150303,17.647678 Z" id="Download-on-the" fill="#FFFFFF"></path>
                            <path d="M37.2981002,30.466054 C37.3318959,27.8365241 38.7070808,25.4076385 40.9418568,24.030361 C39.525633,22.0027948 37.2385894,20.7633614 34.7706514,20.685957 C32.1741795,20.412754 29.6570131,22.2434435 28.3338985,22.2434435 C26.9851785,22.2434435 24.9480356,20.713082 22.7543691,20.7583265 C19.8680759,20.8518045 17.2424978,22.4569645 15.8382575,24.986525 C12.8478709,30.176576 15.0784303,37.8042035 17.9429701,41.999449 C19.37616,44.0537415 21.0511476,46.348439 23.242835,46.267064 C25.3875328,46.1778925 26.1885358,44.89612 28.7773694,44.89612 C31.3421748,44.89612 32.0936834,46.267064 34.32984,46.215325 C36.6312007,46.177877 38.0811671,44.151903 39.4640739,42.078158 C40.4938185,40.6143995 41.2862053,38.9966277 41.811883,37.2847675 C39.0785655,36.125881 37.3012904,33.4410532 37.2981002,30.466054 L37.2981002,30.466054 Z M33.0744034,17.9268795 C34.3292008,16.416857 34.9473919,14.4759788 34.7976948,12.5164185 C32.8806434,12.7182603 31.1098249,13.636727 29.8380753,15.088814 C28.5822811,16.521493 27.9460986,18.3958207 28.0696497,20.2989685 C30.0124065,20.3190205 31.8570131,19.4447375 33.0744034,17.9268795 L33.0744034,17.9268795 Z" id="Icon" fill="#FFFFFF"></path>
                        </g>
                    </g>
                </g>
            </g>
        </g>
    </g>
</svg>