<?xml version="1.0" encoding="UTF-8"?>
<svg width="212px" height="68px" viewBox="0 0 212 68" version="1.1" xmlns="http://www.w3.org/2000/svg" xmlns:xlink="http://www.w3.org/1999/xlink">
    <!-- Generator: Sketch 58 (84663) - https://sketch.com -->
    <title>logo</title>
    <desc>Created with Sketch.</desc>
    <g id="лендинг" stroke="none" stroke-width="1" fill="none" fill-rule="evenodd">
        <g id="LP_VZ_1920_main" transform="translate(-575.000000, -40.000000)">
            <g id="1-block" transform="translate(-821.000000, -2221.000000)">
                <g id="header" transform="translate(0.000000, 2221.000000)">
                    <g id="logo" transform="translate(1396.000000, 40.000000)">
                        <g id="Group-12">
                            <g id="Group">
                                <path d="M34,0 C15.2223774,0 0,15.2223774 0,34 C0,41.4755094 2.41913208,48.3839245 6.50811321,53.9958491 C6.49913208,54.0362642 6.4869434,54.0766792 6.47924528,54.1164528 L4.50596226,64.5615094 C4.1614717,66.3833962 5.36045283,67.5426038 7.17015094,67.1371698 L17.5420755,64.8136226 C17.9353208,64.7257358 18.324717,64.567283 18.6993585,64.3600755 C23.2996226,66.6829811 28.494566,68 34,68 C52.7776226,68 68,52.7782642 68,34 C68,15.2223774 52.7776226,0 34,0" id="Fill-1" fill="#FFFFFE"></path>
                                <path d="M55.0743802,34.0003202 C55.0743802,45.6394669 45.6389699,55.0743802 34,55.0743802 C22.3610301,55.0743802 12.9256198,45.6394669 12.9256198,34.0003202 C12.9256198,22.3611735 22.3610301,12.9256198 34,12.9256198 C45.6389699,12.9256198 55.0743802,22.3611735 55.0743802,34.0003202" id="Fill-4" fill="#24ADC1"></path>
                                <path d="M48.3305785,33.7193302 C48.3305785,41.4788403 42.0403241,47.768595 34.2809917,47.768595 C26.5216594,47.768595 20.231405,41.4788403 20.231405,33.7193302 C20.231405,25.95982 26.5216594,19.6694215 34.2809917,19.6694215 C42.0403241,19.6694215 48.3305785,25.95982 48.3305785,33.7193302" id="Fill-5" fill="#171A1D"></path>
                                <path d="M54.5123967,21.9176756 C54.5123967,26.5732989 50.7379477,30.3471074 46.0823244,30.3471074 C41.4267011,30.3471074 37.6528926,26.5732989 37.6528926,21.9176756 C37.6528926,17.2620523 41.4267011,13.4876033 46.0823244,13.4876033 C50.7379477,13.4876033 54.5123967,17.2620523 54.5123967,21.9176756" id="Fill-6" fill="#FFFFFE"></path>
                            </g>
                        </g>
                        <path d="M106.792809,42.9439503 L109.088955,42.9439503 L102.625731,25.4130632 L100.463224,25.4130632 L94,42.9439503 L96.2961453,42.9439503 L98.0577382,37.9264476 L105.031217,37.9264476 L106.792809,42.9439503 Z M101.447286,28.2437608 L101.641669,28.2437608 L104.387324,36.0676633 L98.7016308,36.0676633 L101.447286,28.2437608 Z M128.954864,42.9439503 C132.684581,42.9439503 134.895684,41.1094638 134.895684,38.0236389 C134.895684,35.7031958 133.377069,34.063092 130.983733,33.7593691 L130.983733,33.5649864 C132.672432,33.2612635 134.008813,31.6090108 134.008813,29.7866733 C134.008813,27.1017626 132.040689,25.4130632 128.821226,25.4130632 L122.115023,25.4130632 L122.115023,42.9439503 L128.954864,42.9439503 Z M124.301829,27.344741 L128.359567,27.344741 C130.534223,27.344741 131.79771,28.3773989 131.79771,30.1632897 C131.79771,32.022074 130.44918,32.9696895 127.800717,32.9696895 L124.301829,32.9696895 L124.301829,27.344741 Z M124.301829,41.0122725 L124.301829,34.8527716 L128.420311,34.8527716 C131.214562,34.8527716 132.648134,35.8854295 132.648134,37.9142987 C132.648134,39.9431678 131.263158,41.0122725 128.626843,41.0122725 L124.301829,41.0122725 Z M154.955976,42.9439503 L154.955976,35.3994729 L161.176221,25.4130632 L158.685693,25.4130632 L153.959764,33.2005189 L153.765382,33.2005189 L149.039453,25.4130632 L146.548925,25.4130632 L152.769171,35.3994729 L152.769171,42.9439503 L154.955976,42.9439503 Z M173.133185,38.3638086 C173.364014,41.3888889 175.927436,43.3570134 179.645005,43.3570134 C183.654147,43.3570134 186.193271,41.3038465 186.193271,38.0843835 C186.193271,35.5824008 184.817517,34.1810208 181.408925,33.2677056 L179.268388,32.7024133 C176.850754,32.0828185 175.890989,31.293139 175.890989,29.9203113 C175.890989,28.1465695 177.433902,26.9802735 179.766494,26.9802735 C181.953299,26.9802735 183.435467,28.0493781 183.73919,29.8474178 L185.938143,29.8474178 C185.75591,27.0167202 183.228935,25 179.839387,25 C176.133968,25 173.64344,27.0167202 173.64344,29.9932048 C173.64344,32.4082623 174.934326,33.8294513 177.903815,34.6444878 L180.434684,35.3022815 C182.852319,35.9097274 183.945721,36.8573429 183.945721,38.3516597 C183.945721,40.0889548 182.208426,41.3645911 179.851536,41.3645911 C177.361008,41.3645911 175.611564,40.198295 175.344288,38.3638086 L173.133185,38.3638086 Z M198.939914,38.3638086 L201.151017,38.3638086 C201.418293,40.198295 203.167737,41.3645911 205.658265,41.3645911 C208.015155,41.3645911 209.75245,40.0889548 209.75245,38.3516597 C209.75245,36.9107113 208.735753,35.9781115 206.495389,35.3686761 L203.993864,34.7191335 C200.822996,33.917305 199.450169,32.4837328 199.450169,29.9932048 C199.450169,27.0167202 201.940697,25 205.646116,25 C209.035664,25 211.562639,27.0167202 211.744873,29.8474178 L209.545919,29.8474178 C209.242196,28.0493781 207.760028,26.9802735 205.573223,26.9802735 C203.240631,26.9802735 201.697718,28.1465695 201.697718,29.9203113 C201.697718,31.2441094 202.590152,32.0256691 204.821641,32.6353585 L206.909604,33.18837 C210.54213,34.0995388 212,35.5088131 212,38.0843835 C212,41.3038465 209.460876,43.3570134 205.451734,43.3570134 C201.734165,43.3570134 199.170744,41.3888889 198.939914,38.3638086 Z" id="ABYSS" fill="#FFFFFF" fill-rule="nonzero"></path>
                    </g>
                </g>
            </g>
        </g>
    </g>
</svg>