<svg width="62" height="62" viewBox="0 0 62 62" fill="none" xmlns="http://www.w3.org/2000/svg">
<g clip-path="url(#clip0)">
<path d="M43.1974 25.7775C43.1968 25.7109 43.1902 25.6445 43.1778 25.579C43.1778 25.5594 43.1778 25.5427 43.1778 25.5203C43.1778 25.4979 43.1778 25.4644 43.1778 25.4336C43.1747 25.3502 43.1663 25.2671 43.1526 25.1848C43.1303 25.0813 43.1023 24.9052 43.1023 24.9052C43.0909 24.8393 43.0641 24.7771 43.024 24.7235C42.9958 24.6916 42.9697 24.658 42.9457 24.6228C42.8938 24.5323 42.8319 24.4479 42.7612 24.3712C42.7304 24.3214 42.6906 24.2778 42.6438 24.2426C42.599 24.2078 42.5513 24.1769 42.5012 24.1503L42.4705 24.1308C42.382 24.0834 42.2881 24.0467 42.1909 24.0217C42.0921 23.9745 41.9879 23.9398 41.8805 23.9183C41.8694 23.9199 41.8581 23.9199 41.847 23.9183C41.7626 23.8886 41.6736 23.8744 41.5842 23.8764C41.5363 23.8789 41.4887 23.8845 41.4416 23.8931H41.408C41.3354 23.8931 41.2627 23.8931 41.1956 23.9099C41.115 23.8838 41.0287 23.881 40.9466 23.9018C40.8645 23.9226 40.7899 23.9661 40.7315 24.0273C40.695 24.0408 40.6595 24.0567 40.6252 24.0749L40.5889 24.0916L40.4854 24.1531C40.4036 24.1871 40.3329 24.2433 40.2813 24.3153C40.2009 24.3937 40.1296 24.4809 40.0689 24.5753C40.0472 24.6076 40.0276 24.6412 40.0101 24.676C39.9648 24.7229 39.9321 24.7806 39.9151 24.8437L39.8648 25.0394C39.833 25.0956 39.8121 25.1572 39.8032 25.2211C39.7984 25.2657 39.7984 25.3107 39.8032 25.3553V25.3749C39.8032 25.4672 39.7837 25.5678 39.7809 25.6545C39.7634 25.7086 39.7568 25.7656 39.7613 25.8222C39.7613 25.8222 39.7893 26.0711 39.806 26.1913C39.8289 26.3711 39.8731 26.5475 39.9374 26.7169C39.9683 26.793 40.015 26.8616 40.0744 26.9182C40.1002 27.005 40.143 27.0858 40.2002 27.1558C40.3026 27.2761 40.4245 27.3782 40.5609 27.4578L40.6811 27.5193C40.7601 27.5896 40.8568 27.637 40.9607 27.6563C41.0332 27.663 41.1062 27.663 41.1788 27.6563H41.2515C41.3325 27.6606 41.4137 27.6606 41.4947 27.6563H41.6345C41.6578 27.6546 41.6811 27.6546 41.7044 27.6563H41.7296C41.7602 27.6604 41.7912 27.6604 41.8218 27.6563L42.0623 27.5948C42.1242 27.5785 42.1849 27.558 42.244 27.5333C42.2665 27.5247 42.29 27.5191 42.3139 27.5165C42.3979 27.4999 42.4743 27.4568 42.532 27.3935C42.532 27.3935 42.5543 27.3655 42.5767 27.3432C42.6262 27.3203 42.6709 27.288 42.7081 27.2481C42.747 27.2076 42.7808 27.1625 42.8087 27.1139V27.0943C42.8451 27.0595 42.8779 27.0211 42.9066 26.9797C42.9445 26.9222 42.9728 26.8589 42.9905 26.7924L43.0268 26.7057L43.052 26.647C43.097 26.5594 43.1272 26.4649 43.1414 26.3674C43.1414 26.3451 43.1414 26.2668 43.1582 26.2053V26.1438C43.1582 26.1186 43.175 26.085 43.175 26.0823C43.1944 26.0296 43.2002 25.9728 43.1918 25.9173C43.1918 25.9173 43.1974 25.8306 43.1974 25.7775ZM30.1185 29.2835V29.2639C30.124 29.2019 30.1184 29.1394 30.1018 29.0794C30.0661 28.9615 30.0173 28.848 29.9564 28.7411C29.9311 28.6956 29.9031 28.6518 29.8725 28.6097C29.8635 28.5946 29.856 28.5787 29.8501 28.5621C29.8184 28.4727 29.7657 28.3921 29.6964 28.3273C29.6395 28.2804 29.5739 28.2453 29.5035 28.2238H29.4755C29.387 28.1637 29.2935 28.1113 29.1959 28.0673C29.144 28.0222 29.0829 27.9889 29.017 27.9694C28.954 27.9526 28.8892 27.9433 28.8241 27.9415H28.7682L28.6843 27.9247C28.5401 27.8882 28.3909 27.875 28.2425 27.8856C28.1358 27.9025 28.0316 27.9325 27.9322 27.975L27.8763 27.9974C27.8025 28.0231 27.7313 28.0559 27.6638 28.0952C27.6113 28.1256 27.5641 28.1643 27.524 28.2099V28.2266L27.4849 28.2518C27.4208 28.2853 27.3631 28.3298 27.3143 28.3832L27.2752 28.4168C27.2111 28.4665 27.1562 28.527 27.113 28.5957C27.0586 28.6947 27.019 28.8011 26.9956 28.9116C26.9956 28.9424 26.976 28.9731 26.9677 29.0039C26.9453 29.0794 26.9257 29.1549 26.9117 29.2192V29.2387C26.8851 29.2916 26.8662 29.3481 26.8558 29.4065C26.8558 29.4065 26.8558 29.4288 26.8558 29.44V29.6889L26.73 30.3263C26.7286 30.3477 26.7286 30.3692 26.73 30.3906V30.5891L26.6405 31.0364C26.6278 31.0957 26.6347 31.1575 26.6601 31.2126C26.6466 31.2409 26.6372 31.271 26.6322 31.302L26.5595 31.8416L26.4952 32.1436C26.4909 32.1695 26.4909 32.1959 26.4952 32.2219V32.275L26.4476 32.4064C26.4362 32.4377 26.4306 32.4709 26.4309 32.5042V32.7838L26.4085 32.946C26.407 32.9562 26.407 32.9665 26.4085 32.9767V33.2116L26.3442 33.4912C26.3428 33.4995 26.3428 33.508 26.3442 33.5163C26.3166 33.6958 26.311 33.8779 26.3274 34.0587V34.1314C26.3306 34.2972 26.3667 34.4606 26.4337 34.6123C26.4736 34.6869 26.5224 34.7563 26.579 34.8192C26.579 34.8387 26.6098 34.8555 26.621 34.8695C26.6785 34.9488 26.7431 35.0227 26.8139 35.0904C26.8435 35.1386 26.8813 35.1811 26.9257 35.2162C26.9602 35.2439 27.0003 35.2639 27.0431 35.2749L27.0711 35.2973C27.1679 35.391 27.2859 35.4601 27.415 35.4986C27.4903 35.516 27.567 35.5263 27.6442 35.5293H27.7337C27.8194 35.5464 27.9064 35.5567 27.9937 35.5601H28.0273C28.086 35.5602 28.1444 35.5517 28.2006 35.5349H28.2453H28.3096C28.3888 35.5348 28.4676 35.5254 28.5445 35.5069C28.6231 35.482 28.6998 35.4512 28.7738 35.4147C28.8554 35.4099 28.9345 35.3839 29.003 35.3392C29.0677 35.2882 29.1186 35.2219 29.1512 35.1463C29.1819 35.1127 29.2127 35.0792 29.2407 35.0428L29.2714 35.0121C29.3377 34.9568 29.3904 34.887 29.4252 34.808C29.479 34.6766 29.522 34.541 29.5538 34.4026C29.5719 34.3314 29.5776 34.2576 29.5706 34.1845C29.5693 34.1743 29.5693 34.164 29.5706 34.1538L29.6293 33.972C29.6293 33.972 29.6293 33.9581 29.6293 33.9525L29.688 33.7092C29.6909 33.6907 29.6909 33.6718 29.688 33.6533V33.3737L29.7187 33.1557L29.7747 32.9823C29.776 32.9665 29.776 32.9506 29.7747 32.9348L29.7942 32.7726C29.7956 32.7624 29.7956 32.7521 29.7942 32.7419V32.4623L29.8334 32.3029C29.8361 32.2853 29.8361 32.2674 29.8334 32.2498L29.8557 31.9255L29.8949 31.6459L29.9424 31.5285C29.9618 31.4826 29.9685 31.4325 29.962 31.3831V31.2713L29.9788 31.1511L30.0179 31.0308C30.0208 31.0067 30.0208 30.9823 30.0179 30.9582V30.6786L30.0626 30.5975C30.0878 30.5513 30.0994 30.499 30.0962 30.4465V30.1669V29.974C30.0946 29.9452 30.0946 29.9162 30.0962 29.8874C30.1207 29.7612 30.131 29.6328 30.1269 29.5043C30.1214 29.4403 30.1073 29.3773 30.085 29.317C30.0941 29.304 30.1055 29.2926 30.1185 29.2835ZM61.9545 32.0793L57.2631 14.5775C57.1727 14.2442 56.954 13.9603 56.6548 13.7879C56.3556 13.6156 56.0004 13.5687 55.6667 13.6576L45.6605 16.3388L48.3417 6.32981C48.4305 5.99653 48.3836 5.64161 48.2112 5.34287C48.0387 5.04413 47.7549 4.82596 47.4218 4.7362L29.9144 0.044821C29.7494 0.000437392 29.5772 -0.0109711 29.4078 0.0112482C29.2383 0.0334675 29.0749 0.0888785 28.9269 0.174311C28.7789 0.259744 28.6492 0.373522 28.5452 0.509135C28.4412 0.644749 28.365 0.799537 28.3208 0.964644L25.6396 10.9737L18.3062 3.63465C18.0616 3.39187 17.731 3.25563 17.3864 3.25563C17.0418 3.25563 16.7111 3.39187 16.4666 3.63465L3.63377 16.4674C3.391 16.712 3.25475 17.0427 3.25475 17.3873C3.25475 17.7319 3.391 18.0625 3.63377 18.3071L10.9728 25.6349L0.96377 28.3161C0.798055 28.3602 0.642698 28.4366 0.506646 28.541C0.370594 28.6454 0.256536 28.7756 0.171039 28.9243C0.0855426 29.0729 0.0302975 29.237 0.00848528 29.4071C-0.0133269 29.5772 -0.00127528 29.7499 0.0439462 29.9153L4.73533 47.4283C4.82509 47.7613 5.04326 48.0452 5.34199 48.2176C5.64073 48.3901 5.99566 48.437 6.32894 48.3481L16.338 45.6669L13.6568 55.676C13.5679 56.0092 13.6148 56.3642 13.7873 56.6629C13.9597 56.9616 14.2436 57.1798 14.5766 57.2696L32.0896 61.961C32.4229 62.0498 32.7778 62.0029 33.0765 61.8305C33.3753 61.658 33.5934 61.3742 33.6832 61.0411L36.3644 51.0321L43.6922 58.3599C43.9368 58.6027 44.2674 58.739 44.6121 58.739C44.9567 58.739 45.2873 58.6027 45.5319 58.3599L58.3535 45.5383C58.5963 45.2938 58.7325 44.9631 58.7325 44.6185C58.7325 44.2739 58.5963 43.9433 58.3535 43.6987L51.0257 36.3709L61.0347 33.6897C61.2004 33.6456 61.3557 33.5692 61.4918 33.4648C61.6278 33.3604 61.7419 33.2301 61.8274 33.0815C61.9129 32.9328 61.9681 32.7688 61.99 32.5987C62.0118 32.4286 61.9997 32.2559 61.9545 32.0905V32.0793ZM23.3722 39.7817L23.3499 39.9187C23.3483 39.9289 23.3483 39.9393 23.3499 39.9495H22.3322L22.0862 39.9104H22.0386L21.6137 39.9495H20.4282L20.0256 39.9775L19.4665 39.9495H19.1478L18.172 39.9439L17.3696 39.9747H16.8915V39.5441L17.3333 38.8116L17.5765 38.532C17.5927 38.5147 17.6059 38.4949 17.6157 38.4733L17.775 38.0511L18.2503 37.2431L18.3649 37.0111L18.5578 36.7315L18.9716 36.027L19.3686 35.4147L19.7013 34.7828L19.8886 34.5032C19.8968 34.4941 19.9034 34.4837 19.9082 34.4725L20.0089 34.2488L20.5065 33.4101C20.531 33.3703 20.5534 33.3292 20.5736 33.2871C20.591 33.2628 20.6097 33.2395 20.6295 33.2172C20.668 33.1733 20.7017 33.1255 20.7302 33.0746C20.7653 33.0038 20.7907 32.9285 20.8057 32.8509C20.8137 32.8119 20.8249 32.7735 20.8392 32.7363C20.87 32.6608 20.8979 32.5825 20.9259 32.507C20.9259 32.4819 20.9511 32.4595 20.9622 32.4343C20.9919 32.3849 21.0163 32.3324 21.0349 32.2778C21.0426 32.2296 21.0426 32.1806 21.0349 32.1324V32.1016C21.0737 31.9535 21.0971 31.8017 21.1048 31.6487C21.1148 31.5455 21.1148 31.4416 21.1048 31.3384C21.097 31.2752 21.0849 31.2126 21.0685 31.1511C21.0509 31.076 21.0256 31.0029 20.993 30.933C20.9678 30.8715 20.9175 30.7373 20.9175 30.7345C20.9008 30.6914 20.8703 30.655 20.8308 30.631C20.7789 30.604 20.7285 30.5741 20.6799 30.5416C20.6133 30.495 20.541 30.4574 20.4646 30.4297C20.3351 30.3842 20.1992 30.3597 20.062 30.3571C19.8308 30.3443 19.6022 30.4104 19.4134 30.5444C19.3611 30.5497 19.3121 30.572 19.2737 30.6079C19.2353 30.6437 19.2098 30.6911 19.2009 30.7429C19.1712 30.7772 19.1441 30.8136 19.1198 30.8519L19.0974 30.8771C19.0719 30.908 19.0486 30.9407 19.0275 30.9749C18.9446 31.1499 18.8998 31.3405 18.8961 31.5341H18.4768L17.9959 31.4949H17.9679L17.4423 31.5313H17.0118C17.0118 31.4754 17.0118 31.4167 17.0118 31.3608C17.0195 31.2586 17.0325 31.1568 17.0509 31.056C17.0509 30.9889 17.0733 30.9246 17.0816 30.8603C17.0872 30.812 17.0872 30.7632 17.0816 30.7149C17.0802 30.6879 17.0802 30.6608 17.0816 30.6338C17.1103 30.4668 17.1486 30.3016 17.1963 30.139C17.2186 30.0579 17.2326 29.9908 17.2438 29.9293C17.2557 29.8554 17.2764 29.7831 17.3053 29.714C17.3313 29.6771 17.3593 29.6416 17.3892 29.6078C17.4311 29.5594 17.4694 29.508 17.5038 29.454C17.5231 29.4138 17.5381 29.3716 17.5486 29.3282L17.5821 29.2751H17.5989C17.6283 29.2821 17.6589 29.2821 17.6883 29.2751L17.8645 29.2443C17.9089 29.2359 17.9491 29.2124 17.9781 29.1777C18.0072 29.1431 18.0233 29.0994 18.0238 29.0542C18.0244 29.0123 18.0114 28.9714 17.9867 28.9376C17.9619 28.9038 17.9269 28.879 17.8868 28.8669L17.9679 28.7802C18.0547 28.7022 18.1483 28.632 18.2475 28.5705C18.2633 28.5607 18.2774 28.5484 18.2894 28.5342C18.3202 28.4971 18.3538 28.4625 18.3901 28.4307L18.4991 28.3608H18.5411C18.5813 28.3502 18.6206 28.3361 18.6585 28.3189C18.6994 28.2976 18.7386 28.2733 18.7759 28.2462C18.8107 28.2215 18.8482 28.2009 18.8877 28.1847C18.994 28.1414 19.1034 28.1059 19.2149 28.0785C19.2646 28.0679 19.3151 28.0614 19.3658 28.0589C19.4189 28.0618 19.4721 28.0618 19.5252 28.0589L19.6678 28.0225C19.7038 28.0086 19.7413 27.9993 19.7796 27.9946C19.9026 27.9946 20.0284 27.9778 20.1626 27.9778C20.3215 27.9744 20.4803 27.9828 20.6379 28.003C20.6672 28.0074 20.6962 28.014 20.7246 28.0225L20.8085 28.0449C20.9523 28.0744 21.0935 28.1156 21.2306 28.1679C21.2805 28.1959 21.3282 28.2277 21.3732 28.263C21.3955 28.2825 21.4225 28.296 21.4515 28.3021C21.5102 28.3132 21.5674 28.331 21.6221 28.3552C21.7023 28.401 21.7798 28.4514 21.8541 28.5062C21.9352 28.5649 22.0135 28.6236 22.0862 28.688L22.1533 28.7467C22.2176 28.797 22.3014 28.8697 22.3294 28.8948C22.3938 28.9547 22.4493 29.0234 22.4943 29.0989L22.5838 29.2331C22.6418 29.3327 22.6923 29.4364 22.7348 29.5435C22.7406 29.5574 22.7481 29.5706 22.7572 29.5826C22.8219 29.6697 22.8772 29.7634 22.9221 29.8622C22.9464 29.9189 22.9679 29.9767 22.9864 30.0355C23.0071 30.0914 23.0248 30.1484 23.0395 30.2061C23.0087 30.2634 22.9988 30.3296 23.0116 30.3934C23.0186 30.4232 23.0316 30.4512 23.0499 30.4757C23.0682 30.5002 23.0913 30.5207 23.1178 30.536C23.1178 30.5779 23.1178 30.6199 23.1374 30.6618C23.1374 30.7485 23.1598 30.8351 23.1681 30.9246C23.1765 31.0141 23.1681 31.0588 23.1681 31.1259C23.1776 31.3122 23.1776 31.4988 23.1681 31.6851V31.7633C23.1681 31.8668 23.1486 31.973 23.1318 32.0709C23.1226 32.1018 23.1104 32.1318 23.0954 32.1604C23.0728 32.212 23.0541 32.2653 23.0395 32.3197C23.0316 32.3772 23.0316 32.4356 23.0395 32.4931C23.0438 32.5152 23.0438 32.538 23.0395 32.5602C22.992 32.7363 22.9361 32.9544 22.9165 33.0243C22.8969 33.0942 22.7991 33.2535 22.7823 33.3038C22.7488 33.3849 22.7124 33.4632 22.6733 33.5415C22.6384 33.608 22.5982 33.6716 22.5531 33.7316C22.5139 33.7875 22.4748 33.8434 22.4412 33.8993C22.4245 33.9272 22.4158 33.9591 22.4161 33.9916C22.3982 34.0731 22.366 34.1507 22.321 34.2209C22.2399 34.3663 22.1253 34.562 21.9799 34.8052C21.9408 34.8695 21.8178 35.0261 21.7479 35.1099C21.736 35.1276 21.7257 35.1463 21.7171 35.1659C21.6843 35.2616 21.6451 35.355 21.5997 35.4454L21.555 35.4958C21.5228 35.5311 21.4929 35.5684 21.4655 35.6076C21.4226 35.6782 21.3834 35.751 21.3481 35.8257C21.3145 35.8956 21.2782 35.9655 21.2306 36.0465C21.1927 36.1143 21.1636 36.1867 21.144 36.2618C21.0729 36.3343 21.0084 36.4129 20.9511 36.4967L20.8029 36.7315C20.772 36.7791 20.7384 36.8248 20.7022 36.8685C20.6547 36.93 20.6044 36.9943 20.5764 37.0391C20.5452 37.0891 20.5199 37.1426 20.5009 37.1984C20.4881 37.2329 20.4712 37.2657 20.4506 37.2963C20.4321 37.3271 20.4224 37.3624 20.4224 37.3983C20.4224 37.4343 20.4321 37.4695 20.4506 37.5004C20.4694 37.5306 20.4958 37.5553 20.5272 37.572C20.5587 37.5887 20.594 37.5968 20.6295 37.5954L21.0685 37.5703L21.2894 37.5926H21.555C21.7049 37.6153 21.8563 37.6265 22.0079 37.6262L22.3378 37.5954H22.7124L22.8746 37.6206H22.9249L23.2045 37.5954H23.2464C23.2798 37.5954 23.3118 37.6087 23.3354 37.6323C23.359 37.6559 23.3722 37.6879 23.3722 37.7212V37.7604L23.3443 38.0903V38.1182L23.3722 38.5684V38.792L23.4198 39.217L23.375 39.5441C23.3736 39.559 23.3736 39.574 23.375 39.5888L23.3722 39.7817ZM32.0784 30.276C32.077 30.2871 32.077 30.2984 32.0784 30.3095V30.5891L32.0113 30.8687C32.01 30.8789 32.01 30.8892 32.0113 30.8994L31.9358 31.4586L31.9135 31.4894C31.8844 31.5385 31.869 31.5944 31.8687 31.6515V31.8948L31.8128 32.3057L31.7513 32.5853C31.75 32.6002 31.75 32.6152 31.7513 32.6301L31.7289 32.9683L31.7038 33.1668L31.6003 33.5163C31.5896 33.5525 31.5863 33.5905 31.5906 33.6279C31.5949 33.6654 31.6068 33.7016 31.6255 33.7344L31.5164 34.5228C31.5164 34.5648 31.5164 34.643 31.5164 34.7213C31.5164 34.7996 31.5164 34.8359 31.5164 34.8751C31.4802 34.9284 31.4545 34.9882 31.441 35.0512C31.4158 35.1631 31.385 35.2721 31.3515 35.3755C31.3179 35.479 31.3068 35.5181 31.2816 35.5852C31.2695 35.6164 31.2545 35.6463 31.2369 35.6747C31.2141 35.7146 31.1936 35.7556 31.1754 35.7977C31.1585 35.8377 31.1445 35.8788 31.1334 35.9207C31.1334 35.9431 31.1334 35.9655 31.1111 35.985C31.0887 36.0046 31.0523 36.0969 31.0216 36.1528C30.9855 36.2095 30.9443 36.2628 30.8986 36.3121C30.8594 36.3569 30.8231 36.4044 30.7895 36.4491C30.7588 36.4935 30.7317 36.5402 30.7085 36.5889C30.7039 36.6024 30.6983 36.6155 30.6917 36.6281C30.6043 36.7269 30.5109 36.8203 30.4121 36.9076L30.3198 37.0027L30.2555 37.0726C30.2119 37.0885 30.1705 37.1101 30.1325 37.1369L30.0067 37.2264C29.951 37.2614 29.8994 37.3027 29.8529 37.3494C29.8368 37.3683 29.8168 37.3836 29.7942 37.3941L29.674 37.4361C29.6236 37.4518 29.5741 37.4705 29.5258 37.492C29.428 37.5339 29.3273 37.5703 29.2295 37.6038C29.1626 37.6224 29.0944 37.6355 29.0254 37.6429L28.8632 37.6681C28.8122 37.6795 28.7618 37.6935 28.7122 37.71L28.6032 37.7408L28.3935 37.7576L27.9574 37.7436C27.8427 37.7436 27.6303 37.7436 27.5352 37.7184H27.5156C27.4786 37.7028 27.4402 37.6907 27.401 37.6821L27.2668 37.6569C27.1515 37.6408 27.0375 37.6166 26.9257 37.5842L26.6713 37.4976C26.5455 37.4472 26.2967 37.327 26.224 37.2907L25.9891 37.1509C25.9612 37.1313 25.8577 37.0391 25.7682 36.9552C25.7455 36.931 25.7178 36.912 25.6872 36.8993C25.6327 36.8746 25.5819 36.8427 25.5362 36.8042C25.3712 36.6557 25.2196 36.4929 25.0833 36.3177V36.287C25.0653 36.2356 25.0409 36.1868 25.0106 36.1416C24.9752 36.0937 24.9369 36.0479 24.896 36.0046C24.8663 35.975 24.84 35.9422 24.8177 35.9067C24.7626 35.8008 24.714 35.6915 24.6723 35.5796L24.608 35.4287V35.4063C24.5254 35.236 24.4625 35.0569 24.4207 34.8723C24.4039 34.8052 24.3899 34.7325 24.3787 34.6626C24.3728 34.5854 24.3728 34.5078 24.3787 34.4306C24.3787 34.3635 24.3787 34.2964 24.3787 34.2265C24.3745 34.1645 24.366 34.1028 24.3536 34.0419C24.3445 33.9892 24.3389 33.936 24.3368 33.8826C24.3368 33.8239 24.3368 33.7624 24.3368 33.7008C24.3368 33.5974 24.3368 33.4884 24.3592 33.3821C24.358 33.3719 24.358 33.3616 24.3592 33.3514C24.3762 33.3033 24.3884 33.2537 24.3955 33.2032C24.3969 33.1911 24.3969 33.1789 24.3955 33.1668V32.9655L24.4486 32.5769L24.4878 32.1632L24.5157 32.0737C24.5171 32.0579 24.5171 32.042 24.5157 32.0262L24.5549 31.7466L24.6331 31.4418C24.6359 31.4111 24.6359 31.3803 24.6331 31.3496V31.2014L24.7366 30.4409L24.7869 29.9489L24.8233 29.7979C24.8244 29.7877 24.8244 29.7774 24.8233 29.7671L24.896 29.2443L24.9631 29.0011V28.9647C24.9631 28.8837 24.9798 28.8082 24.9882 28.7327C24.9995 28.5923 25.0219 28.453 25.0553 28.3161C25.1055 28.1251 25.17 27.9382 25.2482 27.7569C25.2889 27.6685 25.3366 27.5834 25.3908 27.5025C25.4216 27.4522 25.4551 27.4019 25.4831 27.3516C25.511 27.3012 25.539 27.2481 25.5669 27.195C25.6003 27.1247 25.6396 27.0573 25.6844 26.9937C25.7703 26.8795 25.8637 26.7712 25.964 26.6694C26.0929 26.5316 26.2301 26.4018 26.3749 26.2808C26.428 26.2451 26.4841 26.2142 26.5427 26.1885C26.5902 26.1661 26.6405 26.1438 26.6937 26.113C26.7386 26.0878 26.7799 26.0568 26.8167 26.0207C26.8696 26.0154 26.9214 26.0022 26.9705 25.9816C27.2472 25.8644 27.5389 25.7863 27.8372 25.7495H27.949C28.0189 25.7495 28.086 25.7495 28.1167 25.7495C28.1705 25.7463 28.2239 25.7379 28.2761 25.7244C28.3039 25.7198 28.3322 25.7198 28.36 25.7244C28.455 25.7244 28.5501 25.7244 28.6396 25.7412C28.729 25.7579 28.8129 25.7691 28.9191 25.7887L29.0645 25.8194L29.2015 25.8418C29.2704 25.85 29.3386 25.8631 29.4056 25.881C29.5003 25.9048 29.5936 25.9338 29.6852 25.9676L29.7858 26.0012C29.9054 26.039 30.023 26.0828 30.1381 26.1326C30.2051 26.1628 30.268 26.2013 30.3254 26.2472C30.3729 26.2844 30.4223 26.3189 30.4736 26.3506C30.5239 26.387 30.5771 26.4205 30.6274 26.4597C30.7427 26.5431 30.8503 26.6366 30.9489 26.7393L30.9936 26.7868L31.1055 26.8874L31.2033 26.9741C31.2481 27.0281 31.2892 27.0851 31.3263 27.1447L31.413 27.2733C31.441 27.3124 31.4745 27.3543 31.5109 27.3963C31.5511 27.4443 31.5884 27.4948 31.6227 27.5473C31.6423 27.5808 31.6618 27.6116 31.6786 27.6451C31.6954 27.6787 31.7485 27.7765 31.7821 27.8436C31.8156 27.9107 31.8436 27.9834 31.8715 28.0533C31.8871 28.097 31.8992 28.1419 31.9079 28.1875C31.9079 28.2378 31.9302 28.2909 31.9442 28.3413C31.9582 28.3916 31.9806 28.4475 31.9973 28.5006C32.0287 28.5835 32.0539 28.6685 32.0728 28.755C32.0924 28.8557 32.1064 28.9591 32.1175 29.0654C32.1175 29.0822 32.1175 29.1045 32.1175 29.1269C32.1134 29.1837 32.1134 29.2407 32.1175 29.2974C32.1231 29.3622 32.1325 29.4266 32.1455 29.4904C32.1551 29.542 32.1607 29.5944 32.1623 29.6469C32.1498 29.8643 32.1255 30.0808 32.0896 30.2955L32.0784 30.276ZM36.3448 32.3169V32.7111L36.3308 33.0997V33.1221V33.4324C36.3022 33.4964 36.2925 33.5672 36.3029 33.6365L36.3364 33.8378V34.397L36.3169 34.7073C36.3154 34.7278 36.3154 34.7484 36.3169 34.7688L36.3336 34.9086L36.3532 35.3252C36.3397 35.3609 36.3331 35.3989 36.3336 35.437V35.6775H36.2861H36.1212H34.7764C34.7204 35.6557 34.6596 35.6489 34.6002 35.6579L34.466 35.6775H34.4157H34.357H34.1976H34.1082V35.3336L34.1277 35.1239V35.0652L34.1082 34.8304V34.685L34.1361 34.3355C34.141 34.2799 34.1314 34.2241 34.1082 34.1733V33.7064L34.1249 33.6561C34.1366 33.6172 34.1413 33.5765 34.1389 33.5359L34.1082 32.9264V32.2973C34.1097 32.2769 34.1097 32.2563 34.1082 32.2358V32.1855V32.1016C34.1095 32.0858 34.1095 32.0699 34.1082 32.0541V31.6907C34.111 31.6749 34.111 31.6588 34.1082 31.6431V31.4698V31.2098V30.9637V30.3151V30.125V29.5658C34.1096 29.5547 34.1096 29.5434 34.1082 29.5323V29.3478V29.0961C34.111 29.0851 34.111 29.0736 34.1082 29.0626V28.6963V28.0058L34.1333 27.743C34.1404 27.7023 34.1404 27.6607 34.1333 27.6199V27.5668V27.0832V26.9685C34.1363 26.9453 34.1363 26.9218 34.1333 26.8986L34.1082 26.7281C34.1042 26.6787 34.0894 26.6308 34.0648 26.5879C34.0401 26.5449 34.0063 26.5079 33.9656 26.4796C33.925 26.4513 33.8786 26.4323 33.8298 26.424C33.781 26.4157 33.7309 26.4184 33.6832 26.4317L33.0094 26.6107C32.9502 26.6007 32.8895 26.6064 32.8333 26.6274L32.7634 26.6554L32.6516 26.222L32.5369 25.5706V25.4448C32.5385 25.4243 32.5385 25.4038 32.5369 25.3833L32.5118 25.3022C32.523 25.2506 32.523 25.1972 32.5118 25.1457L32.3776 24.6508L32.4307 24.6033L32.6571 24.5418H32.7214C32.7517 24.539 32.7811 24.5304 32.8081 24.5166L33.0709 24.3992L33.5658 24.237L34.0578 24.0581L34.4493 23.9462L34.5164 23.9239H34.5918H34.6198H34.6729H35.288L35.4502 23.9435H35.5033L35.9506 23.9239H35.973H36.1072H36.2917H36.3392V24.0133V24.1587V24.2174L36.3448 24.3237V24.9919C36.3523 25.0363 36.3523 25.0817 36.3448 25.1261V25.3833L36.3141 25.6629C36.3113 25.6917 36.3113 25.7207 36.3141 25.7495L36.3448 25.948V26.2556V26.5771V26.6023V26.8399V27.6032C36.3434 27.6171 36.3434 27.6312 36.3448 27.6451L36.3588 27.7765L36.3448 27.8772C36.3434 27.8939 36.3434 27.9107 36.3448 27.9275V28.3692L36.3197 28.8054C36.3183 28.8212 36.3183 28.8371 36.3197 28.8529L36.342 29.1325V29.4931L36.3252 29.7056C36.3239 29.7261 36.3239 29.7467 36.3252 29.7671L36.3392 29.8902V30.5108L36.3588 30.9665L36.3392 31.179V31.7382L36.3141 31.8584C36.3099 31.8881 36.3099 31.9182 36.3141 31.9479L36.3448 32.3169ZM45.1013 26.1074C45.1013 26.1745 45.1013 26.2444 45.0817 26.3143C45.0622 26.3842 45.0482 26.401 45.0482 26.4038C45.0204 26.4709 45.0117 26.5445 45.023 26.6163C45.0259 26.6441 45.0259 26.6722 45.023 26.7001L45.0035 26.8036C44.9912 26.8556 44.9763 26.9069 44.9587 26.9573C44.9448 26.9937 44.9308 27.0384 44.914 27.0943C44.899 27.146 44.8933 27.2 44.8972 27.2537C44.8757 27.2972 44.857 27.342 44.8413 27.3879C44.8202 27.4492 44.795 27.509 44.7658 27.5668C44.7435 27.6199 44.7183 27.6731 44.6959 27.729C44.6771 27.7747 44.664 27.8226 44.6568 27.8716C44.6176 27.9666 44.5757 28.0589 44.5282 28.1512C44.4558 28.2097 44.4063 28.2919 44.3884 28.3832L44.3744 28.4559L44.2682 28.66C44.2605 28.6753 44.2539 28.6912 44.2486 28.7075L44.1927 28.8585L44.0948 29.0039L44.0697 29.043L44.0054 29.1716C43.9535 29.2125 43.9123 29.2652 43.8851 29.3254L43.846 29.4177C43.8401 29.4312 43.8354 29.4452 43.832 29.4596L43.7985 29.5714L43.7034 29.7504C43.6489 29.799 43.6092 29.8619 43.5888 29.9321L43.4909 30.2117L43.421 30.3291L43.3847 30.3738C43.3681 30.3945 43.354 30.417 43.3428 30.4409L43.0967 30.9442L43.0017 31.1007C42.9858 31.1273 42.9727 31.1554 42.9625 31.1846C42.9494 31.2035 42.9373 31.2231 42.9262 31.2433L42.8087 31.4698L42.6438 31.7326C42.6325 31.7516 42.6222 31.7712 42.613 31.7913L42.5236 32.015C42.4658 32.0737 42.4277 32.1489 42.4145 32.2302L42.395 32.2722C42.3892 32.2819 42.3845 32.2922 42.381 32.3029L42.3027 32.4903L42.2216 32.6133C42.2024 32.6397 42.1873 32.6689 42.1769 32.6999C42.1666 32.7142 42.1572 32.7292 42.1489 32.7447L42.0315 32.9739C42.0233 32.989 42.0168 33.005 42.0119 33.0215L41.9868 33.0858L41.9281 33.178C41.9205 33.1886 41.914 33.1998 41.9085 33.2116L41.8889 33.2479C41.8812 33.2633 41.8747 33.2791 41.8694 33.2955L41.8442 33.3681L41.7547 33.5079C41.7556 33.5163 41.7556 33.5247 41.7547 33.5331L41.6932 33.6533H41.6345L41.4807 33.6729H41.3633H41.313H41.1984H41.067C41.0042 33.6403 40.9333 33.6267 40.8629 33.6337L40.4798 33.6617H40.0912H40.0493H39.8172H39.7445C39.7084 33.6561 39.6716 33.6561 39.6355 33.6617L39.6495 33.6365L39.7278 33.4604V33.4324L39.7669 33.3877C39.8166 33.3411 39.8532 33.2823 39.8731 33.2172L39.9095 33.1053L40.0045 32.9264L40.0213 32.8901L40.0493 32.8174L40.1947 32.6077C40.2138 32.5817 40.2297 32.5535 40.2422 32.5238L40.3037 32.3644L40.4798 32.0345L40.4966 31.9982L40.5385 31.8724L40.6224 31.7494C40.6315 31.7383 40.639 31.7261 40.6448 31.713L40.7594 31.4977C40.7903 31.4626 40.8157 31.423 40.8349 31.3803L40.8796 31.2657L40.9048 31.2182C40.95 31.1805 40.9855 31.1326 41.0082 31.0784L41.1257 30.7988L41.148 30.7569C41.1984 30.7206 41.2393 30.6727 41.267 30.6172C41.2948 30.5616 41.3086 30.5002 41.3074 30.4381L41.3465 30.3459L41.4248 30.2368L41.4584 30.1781L41.5478 29.9768L41.5674 29.9517C41.616 29.8952 41.6472 29.826 41.6572 29.7523C41.6673 29.6785 41.6559 29.6034 41.6242 29.5361C41.5926 29.4687 41.5422 29.4119 41.479 29.3725C41.4159 29.3332 41.3427 29.3129 41.2683 29.3142H41.1816C41.1228 29.3002 41.0615 29.3002 41.0027 29.3142C40.9482 29.3253 40.8931 29.3328 40.8377 29.3366H40.6895H40.4603C40.3848 29.3366 40.1807 29.2891 40.0577 29.2611L39.8815 29.2164L39.862 29.2024C39.8074 29.1651 39.7435 29.1438 39.6774 29.1409H39.6523L39.5544 29.0989C39.4663 29.0576 39.3813 29.01 39.3 28.9563L39.2469 28.92L39.1462 28.8613L39.0847 28.8277C39.0568 28.797 39.0036 28.7299 38.9561 28.6712C38.9084 28.6113 38.8457 28.565 38.7744 28.537C38.7528 28.5298 38.7328 28.5184 38.7157 28.5034C38.6653 28.4475 38.615 28.3944 38.5703 28.3357C38.538 28.2923 38.509 28.2465 38.4836 28.1987C38.4613 28.1623 38.4389 28.1232 38.4165 28.0924L38.3662 28.0142C38.317 27.9424 38.2722 27.8677 38.232 27.7905C38.232 27.7681 38.1957 27.7262 38.1705 27.687C38.1626 27.6401 38.1495 27.5941 38.1313 27.5501L38.0978 27.455C38.028 27.2499 37.9747 27.0395 37.9384 26.8259C37.9305 26.7835 37.9173 26.7422 37.8993 26.7029C37.9035 26.6555 37.9035 26.6078 37.8993 26.5603C37.8825 26.4401 37.8713 26.3115 37.8657 26.1829C37.8628 26.1466 37.8628 26.1102 37.8657 26.0739C37.8657 26.0291 37.8657 25.9816 37.8657 25.9285C37.864 25.8872 37.8594 25.8461 37.8518 25.8055C37.8518 25.7412 37.8518 25.6769 37.8518 25.6154C37.8491 25.5921 37.8491 25.5687 37.8518 25.5455C37.8829 25.4842 37.8965 25.4155 37.8909 25.347C37.8909 25.2491 37.8909 25.1149 37.8909 25.0925C37.8909 24.9835 37.9217 24.8801 37.9412 24.7766C37.9412 24.7207 37.958 24.6704 37.9636 24.6228C37.9693 24.5673 37.9786 24.5122 37.9916 24.4579L38.0419 24.2929C38.0627 24.2629 38.0787 24.2299 38.0894 24.1951C38.1062 24.1475 38.123 24.1 38.1425 24.0525C38.1621 24.005 38.1929 23.9267 38.2236 23.8652C38.2544 23.8037 38.2488 23.7981 38.2628 23.7561L38.2767 23.731C38.3023 23.6971 38.3256 23.6616 38.3466 23.6247C38.394 23.5489 38.4473 23.4769 38.506 23.4095L38.5815 23.3144C38.6238 23.2571 38.6613 23.1963 38.6933 23.1327C38.7517 23.0923 38.8068 23.0474 38.8583 22.9985C38.8902 22.9687 38.9193 22.9359 38.9449 22.9006C39.0111 22.8445 39.0812 22.7931 39.1546 22.7468L39.2469 22.6853C39.2829 22.6605 39.3166 22.6324 39.3475 22.6015C39.3923 22.5735 39.437 22.5455 39.4845 22.5204L39.7333 22.3722C39.7977 22.3526 39.9123 22.3191 40.0129 22.2799C40.1755 22.2314 40.3407 22.1922 40.5078 22.1625H40.5805C40.623 22.1538 40.665 22.1426 40.7063 22.129H40.7706C40.8461 22.129 40.9216 22.1094 41.0027 22.1038H41.067C41.1145 22.1038 41.176 22.1038 41.204 22.1038C41.2771 22.1045 41.35 22.111 41.422 22.1234C41.479 22.1374 41.5384 22.1374 41.5954 22.1234H41.6289H41.8134H41.8302C41.881 22.1401 41.9335 22.1514 41.9868 22.1569C42.0427 22.1569 42.1014 22.1569 42.1601 22.1569C42.1992 22.1548 42.2384 22.1548 42.2775 22.1569L42.5376 22.1961C42.584 22.2257 42.635 22.2474 42.6885 22.2604L42.8004 22.2855L42.8563 22.2995C42.9541 22.3331 43.052 22.3694 43.1359 22.4113C43.1787 22.4483 43.2256 22.4802 43.2757 22.5064C43.3288 22.5316 43.3791 22.5511 43.4322 22.5707L43.5077 22.6015L43.5273 22.6182C43.5603 22.6519 43.5969 22.6818 43.6363 22.7077C43.6786 22.7361 43.7236 22.7605 43.7705 22.7804L43.969 22.9174C44.0002 22.9593 44.0348 22.9986 44.0725 23.0348C44.1228 23.0823 44.1703 23.1327 44.215 23.183C44.2598 23.2333 44.3157 23.3004 44.3632 23.3619C44.3652 23.3758 44.3652 23.3899 44.3632 23.4039C44.3831 23.4698 44.4197 23.5295 44.4695 23.5772C44.5054 23.6135 44.5381 23.6527 44.5673 23.6946C44.5795 23.7147 44.5889 23.7363 44.5953 23.7589C44.6103 23.8038 44.6281 23.8476 44.6484 23.8903C44.6691 23.9291 44.6925 23.9665 44.7183 24.0022C44.7574 24.0944 44.7938 24.1923 44.8245 24.2817C44.843 24.3423 44.8579 24.4039 44.8693 24.4663C44.8765 24.5162 44.8868 24.5657 44.9 24.6144C44.9105 24.6617 44.9235 24.7084 44.9392 24.7542C44.9392 24.785 44.9587 24.8185 44.9643 24.8493C44.9756 24.9029 44.984 24.957 44.9895 25.0115C44.986 25.0914 44.9984 25.1712 45.0258 25.2463C45.0088 25.3828 45.0088 25.5208 45.0258 25.6573C45.0258 25.7216 45.0398 25.7887 45.0398 25.8558C45.1069 25.8893 45.1013 26.0012 45.0929 26.1074H45.1013Z" fill="white"/>
</g>
<defs>
<clipPath id="clip0">
<rect width="62" height="62" fill="white"/>
</clipPath>
</defs>
</svg>
